<svg width="32" height="32" viewBox="0 0 32 32" fill="none" xmlns="http://www.w3.org/2000/svg">
  <path d="M16.5 18.6C16.1222 18.6 15.8053 18.4752 15.5493 18.2256C15.2933 17.976 15.1658 17.6675 15.1667 17.3C15.1667 16.9317 15.2947 16.6227 15.5507 16.3731C15.8067 16.1235 16.1231 15.9991 16.5 16C16.8778 16 17.1947 16.1248 17.4507 16.3744C17.7067 16.624 17.8342 16.9325 17.8333 17.3C17.8333 17.6683 17.7053 17.9773 17.4493 18.2269C17.1933 18.4765 16.8769 18.6009 16.5 18.6ZM11.1667 18.6C10.7889 18.6 10.472 18.4752 10.216 18.2256C9.96 17.976 9.83245 17.6675 9.83333 17.3C9.83333 16.9317 9.96133 16.6227 10.2173 16.3731C10.4733 16.1235 10.7898 15.9991 11.1667 16C11.5444 16 11.8613 16.1248 12.1173 16.3744C12.3733 16.624 12.5009 16.9325 12.5 17.3C12.5 17.6683 12.372 17.9773 12.116 18.2269C11.86 18.4765 11.5436 18.6009 11.1667 18.6ZM21.8333 18.6C21.4556 18.6 21.1387 18.4752 20.8827 18.2256C20.6267 17.976 20.4991 17.6675 20.5 17.3C20.5 16.9317 20.628 16.6227 20.884 16.3731C21.14 16.1235 21.4564 15.9991 21.8333 16C22.2111 16 22.528 16.1248 22.784 16.3744C23.04 16.624 23.1676 16.9325 23.1667 17.3C23.1667 17.6683 23.0387 17.9773 22.7827 18.2269C22.5267 18.4765 22.2102 18.6009 21.8333 18.6ZM16.5 23.8C16.1222 23.8 15.8053 23.6752 15.5493 23.4256C15.2933 23.176 15.1658 22.8675 15.1667 22.5C15.1667 22.1317 15.2947 21.8227 15.5507 21.5731C15.8067 21.3235 16.1231 21.1991 16.5 21.2C16.8778 21.2 17.1947 21.3248 17.4507 21.5744C17.7067 21.824 17.8342 22.1325 17.8333 22.5C17.8333 22.8683 17.7053 23.1773 17.4493 23.4269C17.1933 23.6765 16.8769 23.8009 16.5 23.8ZM11.1667 23.8C10.7889 23.8 10.472 23.6752 10.216 23.4256C9.96 23.176 9.83245 22.8675 9.83333 22.5C9.83333 22.1317 9.96133 21.8227 10.2173 21.5731C10.4733 21.3235 10.7898 21.1991 11.1667 21.2C11.5444 21.2 11.8613 21.3248 12.1173 21.5744C12.3733 21.824 12.5009 22.1325 12.5 22.5C12.5 22.8683 12.372 23.1773 12.116 23.4269C11.86 23.6765 11.5436 23.8009 11.1667 23.8ZM21.8333 23.8C21.4556 23.8 21.1387 23.6752 20.8827 23.4256C20.6267 23.176 20.4991 22.8675 20.5 22.5C20.5 22.1317 20.628 21.8227 20.884 21.5731C21.14 21.3235 21.4564 21.1991 21.8333 21.2C22.2111 21.2 22.528 21.3248 22.784 21.5744C23.04 21.824 23.1676 22.1325 23.1667 22.5C23.1667 22.8683 23.0387 23.1773 22.7827 23.4269C22.5267 23.6765 22.2102 23.8009 21.8333 23.8ZM7.16667 29C6.43334 29 5.80534 28.7452 5.28267 28.2356C4.76 27.726 4.49911 27.1141 4.5 26.4V8.2C4.5 7.485 4.76134 6.8727 5.284 6.3631C5.80667 5.8535 6.43422 5.59913 7.16667 5.6H8.5V3H11.1667V5.6H21.8333V3H24.5V5.6H25.8333C26.5667 5.6 27.1947 5.8548 27.7173 6.3644C28.24 6.874 28.5009 7.48587 28.5 8.2V26.4C28.5 27.115 28.2387 27.7273 27.716 28.2369C27.1933 28.7465 26.5658 29.0009 25.8333 29H7.16667ZM7.16667 26.4H25.8333V13.4H7.16667V26.4Z" fill="white"/>
</svg>