<svg width="32" height="32" viewBox="0 0 32 32" fill="none" xmlns="http://www.w3.org/2000/svg">
  <path d="M15.9974 4C8.66406 4 2.66406 8.8 2.66406 14.6667C2.66406 17.6 4.13073 20.2667 6.3974 22C6.3974 22.8 5.86406 24.9333 2.66406 28C5.86406 27.8667 8.7974 26.6667 11.3307 24.6667C12.7974 25.0667 14.3974 25.3333 15.9974 25.3333C23.3307 25.3333 29.3307 20.5333 29.3307 14.6667C29.3307 8.8 23.3307 4 15.9974 4ZM15.9974 22.6667C10.1307 22.6667 5.33073 19.0667 5.33073 14.6667C5.33073 10.2667 10.1307 6.66667 15.9974 6.66667C21.8641 6.66667 26.6641 10.2667 26.6641 14.6667C26.6641 19.0667 21.8641 22.6667 15.9974 22.6667ZM16.2641 8.66667C15.0641 8.66667 14.1307 8.93333 13.4641 9.33333C12.6641 9.86667 12.2641 10.6667 12.3974 11.6H15.0641C15.0641 11.2 15.1974 10.9333 15.4641 10.8C15.7307 10.6667 15.9974 10.5333 16.3974 10.5333C16.7974 10.5333 17.1974 10.6667 17.4641 10.9333C17.7307 11.2 17.8641 11.4667 17.8641 11.8667C17.8641 12.2667 17.7307 12.5333 17.5974 12.8C17.3307 13.0667 17.0641 13.3333 16.7974 13.4667C16.1307 13.8667 15.5974 14.2667 15.3307 14.5333C14.7974 14.9333 14.6641 15.3333 14.6641 16H17.3307C17.3307 15.6 17.4641 15.3333 17.4641 15.0667C17.5974 14.8 17.8641 14.6667 18.1307 14.4C18.7974 14.1333 19.1974 13.7333 19.5974 13.2C19.9974 12.6667 20.1307 12.1333 20.1307 11.6C20.1307 10.6667 19.7307 9.86667 19.0641 9.33333C18.5307 8.93333 17.4641 8.66667 16.2641 8.66667ZM14.6641 17.3333V20H17.3307V17.3333H14.6641Z" fill="white"/>
</svg>