<svg width="273" height="263" viewBox="0 0 273 263" fill="none" xmlns="http://www.w3.org/2000/svg">
<g clip-path="url(#clip0_244_22236)">
<g clip-path="url(#clip1_244_22236)">
<path d="M168.465 149.971C167.334 143.235 154.439 144.248 152.817 141.528C151.945 140.066 152.461 137.497 153.125 135.431C156.583 134.203 158.422 132.228 159.394 130.412C159.559 130.513 159.748 130.598 159.967 130.661C163.336 131.639 166.188 127.33 165.587 123.579C165.205 121.19 163.028 121.95 161.497 122.817C162.9 117.696 164.752 108.352 159.962 107.222C159.962 107.222 146.547 100.142 140.729 106.335C139.174 107.989 137.62 112.676 136.818 117.438C135.83 116.291 134.521 115.473 133.384 117.111C131.219 120.233 131.925 125.352 135.385 125.929C135.772 125.994 136.106 125.963 136.4 125.865C137.026 131.048 139.574 133.794 142.278 135.181C141.799 137.452 141.086 139.881 140.163 140.378C138.347 141.357 129.677 140.004 126.641 141.329C123.604 142.653 121.498 160.547 127.287 162.01C131.956 163.19 148.721 168.429 151.384 164.962C154.047 161.494 169.596 156.707 168.465 149.971Z" fill="white" stroke="black"/>
<path d="M140.164 140.379C140.164 140.379 138.39 146.523 143.506 149.005C148.623 151.488 153.194 142.046 154.199 142.282C156.824 142.9 169.427 143.33 168.946 146.651C168.466 149.972 167.776 187.118 163.05 189.354C158.323 191.59 127.04 185.306 121.296 185.897C115.551 186.488 119.833 144.246 124.359 140.984C126.989 139.087 140.164 140.379 140.164 140.379Z" fill="white" stroke="black"/>
<path d="M122.887 140.45L122.927 140.441L122.935 140.441L123.019 140.431C123.094 140.422 123.203 140.409 123.343 140.394C123.622 140.363 124.022 140.32 124.5 140.275C125.458 140.185 126.73 140.084 127.99 140.039C129.258 139.995 130.487 140.008 131.372 140.139C131.821 140.206 132.134 140.296 132.313 140.393C132.368 140.423 132.398 140.447 132.413 140.461C132.379 140.747 132.355 141.472 132.335 142.48C132.315 143.541 132.3 144.956 132.288 146.608C132.265 149.912 132.256 154.169 132.252 158.438C132.25 160.321 132.249 162.206 132.248 164.011C132.245 170.403 132.242 175.806 132.202 176.677C132.203 176.662 132.21 176.691 132.138 176.767C132.065 176.845 131.937 176.942 131.735 177.05C131.333 177.266 130.732 177.478 129.968 177.674C128.445 178.065 126.382 178.37 124.234 178.563C122.088 178.757 119.878 178.838 118.068 178.787C117.162 178.762 116.365 178.704 115.73 178.613C115.075 178.519 114.658 178.398 114.462 178.282C114.234 178.148 113.901 177.871 113.478 177.435C113.062 177.006 112.58 176.446 112.055 175.77C111.005 174.418 109.792 172.621 108.593 170.519C106.192 166.312 103.863 160.922 102.976 155.494C102.558 152.935 103.52 150.73 105.273 148.826C107.035 146.913 109.572 145.336 112.204 144.083C114.83 142.833 117.517 141.921 119.552 141.321C120.568 141.021 121.419 140.799 122.015 140.653C122.313 140.58 122.547 140.526 122.707 140.49C122.786 140.472 122.847 140.459 122.887 140.45Z" fill="white" stroke="black"/>
<path d="M158.841 143.901C158.953 143.487 159.043 143.157 159.107 142.925C172.75 144.084 180.126 149.246 184.184 155.205C188.302 161.253 189.062 168.2 189.347 172.883C189.578 176.669 187.984 180.432 186.063 183.201C185.105 184.582 184.079 185.694 183.188 186.423C182.742 186.788 182.343 187.046 182.014 187.196C181.668 187.353 181.475 187.358 181.399 187.338C179.608 186.859 173.586 185.18 167.557 183.196C164.542 182.204 161.533 181.138 159.052 180.111C157.812 179.597 156.71 179.095 155.808 178.62C154.9 178.141 154.224 177.703 153.813 177.323C153.671 177.19 153.525 176.955 153.403 176.578C153.282 176.205 153.195 175.728 153.143 175.151C153.04 173.997 153.085 172.507 153.244 170.785C153.563 167.346 154.33 163.062 155.216 158.869C156.102 154.679 157.102 150.593 157.881 147.554C158.271 146.035 158.605 144.778 158.841 143.901Z" fill="white" stroke="black"/>
<path d="M135.091 121.555C135.047 121.719 134.873 121.813 134.713 121.769C134.549 121.724 134.453 121.555 134.498 121.391C134.634 120.899 135.143 119.304 136.009 119.415L136.013 119.415C136.775 119.52 137.427 121.68 137.749 122.96M135.091 121.555L135.188 121.582M135.091 121.555L135.188 121.581C135.188 121.581 135.188 121.581 135.188 121.582M135.091 121.555C135.313 120.757 135.728 119.999 135.918 120.022C136.191 120.139 136.768 121.582 137.152 123.109M135.188 121.582C135.128 121.8 134.899 121.923 134.687 121.866L134.687 121.866C134.47 121.806 134.342 121.582 134.402 121.364L134.402 121.364C134.471 121.116 134.634 120.585 134.893 120.128C135.022 119.899 135.178 119.683 135.363 119.531C135.55 119.377 135.771 119.283 136.022 119.315L136.023 119.315L136.023 119.315L136.023 119.315L136.023 119.315L136.023 119.315L136.023 119.315L136.023 119.315L136.023 119.315L136.023 119.315L136.023 119.315L136.023 119.315L136.023 119.315L136.023 119.315L136.023 119.315L136.023 119.315L136.023 119.315L136.023 119.315L136.023 119.315L136.023 119.315L136.023 119.315L136.023 119.315L136.023 119.315L136.023 119.315L136.023 119.315L136.023 119.315L136.023 119.315L136.023 119.315L136.023 119.315L136.023 119.315L136.023 119.315L136.023 119.315L136.023 119.315L136.023 119.315L136.023 119.315L136.023 119.315L136.023 119.316L136.023 119.316L136.023 119.316L136.023 119.316L136.023 119.316L136.023 119.316L136.023 119.316L136.023 119.316L136.023 119.316L136.023 119.316L136.023 119.316L136.023 119.316L136.023 119.316L136.023 119.316L136.023 119.316L136.023 119.316L136.023 119.316L136.023 119.316L136.023 119.316L136.023 119.316L136.023 119.316L136.023 119.316L136.023 119.316L136.023 119.316L136.023 119.316L136.023 119.316L136.023 119.316L136.023 119.316L136.023 119.316L136.023 119.316L136.023 119.316L136.023 119.316L136.023 119.316L136.023 119.316L136.023 119.316L136.023 119.316L136.023 119.316L136.023 119.316L136.023 119.316L136.023 119.316L136.023 119.316L136.024 119.316L136.024 119.316L136.024 119.316L136.024 119.316L136.024 119.316L136.024 119.316L136.024 119.316L136.024 119.316L136.024 119.316L136.024 119.316L136.024 119.316L136.024 119.316L136.024 119.316L136.024 119.316L136.024 119.316L136.024 119.316L136.024 119.316L136.024 119.316L136.024 119.316L136.024 119.316L136.024 119.316L136.024 119.316L136.024 119.316L136.024 119.316L136.024 119.316L136.024 119.316L136.024 119.316L136.024 119.316L136.024 119.316L136.024 119.316L136.024 119.316L136.024 119.316L136.024 119.316L136.024 119.316L136.024 119.316L136.024 119.316L136.024 119.316L136.024 119.316L136.024 119.316L136.024 119.316L136.024 119.316L136.024 119.316L136.024 119.316L136.024 119.316L136.024 119.316L136.024 119.316L136.024 119.316L136.024 119.316L136.024 119.316L136.024 119.316L136.024 119.316L136.024 119.316L136.024 119.316L136.024 119.316L136.024 119.316L136.024 119.316L136.024 119.316L136.024 119.316L136.024 119.316L136.024 119.316L136.024 119.316L136.024 119.316L136.024 119.316L136.024 119.316L136.024 119.316L136.024 119.316L136.024 119.316L136.024 119.316L136.024 119.316L136.024 119.316L136.024 119.316L136.024 119.316L136.024 119.316L136.024 119.316L136.024 119.316L136.024 119.316L136.024 119.316L136.024 119.316L136.024 119.316L136.024 119.316L136.024 119.316L136.024 119.316L136.024 119.316L136.024 119.316L136.024 119.316L136.024 119.316L136.024 119.316L136.024 119.316L136.024 119.316L136.024 119.316L136.024 119.316L136.024 119.316L136.024 119.316L136.024 119.316L136.024 119.316L136.024 119.316L136.024 119.316L136.024 119.316L136.024 119.316L136.024 119.316L136.024 119.316L136.024 119.316L136.024 119.316L136.024 119.316L136.024 119.316L136.024 119.316L136.024 119.316L136.024 119.316L136.024 119.316L136.024 119.316L136.024 119.316L136.024 119.316L136.024 119.316L136.024 119.316L136.024 119.316L136.024 119.316L136.024 119.316L136.024 119.316L136.024 119.316L136.024 119.316L136.024 119.316L136.024 119.316L136.024 119.316L136.024 119.316L136.024 119.316L136.024 119.316L136.024 119.316L136.024 119.316L136.024 119.316L136.024 119.316L136.024 119.316L136.024 119.316L136.024 119.316L136.024 119.316L136.024 119.316L136.024 119.316L136.024 119.316L136.024 119.316L136.024 119.316L136.024 119.316L136.025 119.316L136.025 119.316L136.025 119.316L136.025 119.316L136.025 119.316L136.025 119.316L136.025 119.316L136.025 119.316L136.025 119.316L136.025 119.316L136.025 119.316L136.025 119.316L136.025 119.316L136.025 119.316L136.025 119.316L136.025 119.316L136.025 119.316L136.025 119.316L136.025 119.316L136.025 119.316L136.025 119.316L136.025 119.316L136.025 119.316L136.025 119.316L136.025 119.316L136.025 119.316L136.025 119.316L136.025 119.316L136.025 119.316L136.025 119.316L136.025 119.316L136.025 119.316L136.025 119.316L136.025 119.316L136.025 119.316L136.025 119.316L136.025 119.316L136.025 119.316L136.025 119.316L136.025 119.316L136.025 119.316L136.025 119.316L136.025 119.316L136.025 119.316L136.025 119.316L136.025 119.316L136.025 119.316L136.025 119.316L136.025 119.316L136.025 119.316L136.025 119.316L136.025 119.316L136.025 119.316L136.025 119.316L136.025 119.316L136.025 119.316L136.025 119.316L136.025 119.316L136.025 119.316L136.025 119.316L136.025 119.316L136.025 119.316L136.025 119.316L136.025 119.316L136.025 119.316L136.025 119.316L136.025 119.316L136.025 119.316L136.025 119.316L136.025 119.316L136.025 119.316L136.025 119.316L136.025 119.316L136.025 119.316L136.025 119.316L136.025 119.316L136.025 119.316L136.025 119.316L136.025 119.316L136.025 119.316L136.025 119.316L136.025 119.316L136.025 119.316L136.025 119.316L136.025 119.316L136.025 119.316L136.025 119.316L136.025 119.316L136.025 119.316L136.025 119.316L136.025 119.316L136.025 119.316L136.025 119.316L136.025 119.316L136.025 119.316L136.025 119.316L136.025 119.316L136.025 119.316L136.025 119.316L136.025 119.316L136.025 119.316L136.025 119.316L136.025 119.316L136.025 119.316L136.025 119.316L136.025 119.316L136.025 119.316L136.025 119.316L136.025 119.316L136.025 119.316L136.025 119.316L136.025 119.316L136.025 119.316L136.025 119.316L136.025 119.316L136.025 119.316L136.025 119.316L136.025 119.316L136.025 119.316L136.025 119.316L136.025 119.316L136.025 119.316L136.025 119.316L136.025 119.316L136.025 119.316L136.025 119.316L136.025 119.316L136.025 119.316L136.025 119.316L136.025 119.316L136.025 119.316L136.025 119.316L136.025 119.316L136.025 119.316L136.025 119.316L136.025 119.316L136.025 119.316L136.026 119.316L136.026 119.316L136.026 119.316L136.026 119.316L136.026 119.316L136.026 119.316L136.026 119.316L136.026 119.316L136.026 119.316L136.026 119.316L136.026 119.316L136.026 119.316L136.026 119.316L136.026 119.316L136.026 119.316L136.026 119.316L136.026 119.316L136.026 119.316L136.026 119.316L136.026 119.316L136.026 119.316L136.026 119.316L136.026 119.316L136.026 119.316L136.026 119.316L136.026 119.316L136.026 119.316L136.026 119.316L136.026 119.316L136.026 119.316L136.026 119.316L136.026 119.316L136.026 119.316L136.026 119.316L136.026 119.316L136.026 119.316L136.026 119.316L136.026 119.316L136.026 119.316L136.026 119.316L136.026 119.316L136.026 119.316L136.026 119.316L136.026 119.316L136.026 119.316L136.026 119.316L136.026 119.316L136.026 119.316L136.026 119.316L136.026 119.316L136.026 119.316L136.026 119.316L136.026 119.316L136.026 119.316L136.026 119.316L136.026 119.316L136.026 119.316L136.026 119.316L136.026 119.316L136.026 119.316L136.026 119.316L136.026 119.316L136.026 119.316L136.026 119.316L136.026 119.316L136.026 119.316L136.026 119.316L136.026 119.316L136.026 119.316L136.026 119.316L136.026 119.316L136.026 119.316L136.026 119.316L136.026 119.316L136.026 119.316L136.026 119.316L136.026 119.316L136.026 119.316L136.026 119.316L136.026 119.316L136.026 119.316L136.026 119.316L136.026 119.316L136.026 119.316L136.026 119.316L136.026 119.316L136.026 119.316L136.026 119.316L136.026 119.316L136.026 119.316L136.026 119.316L136.026 119.316L136.026 119.316L136.026 119.316L136.026 119.316L136.026 119.316L136.026 119.316L136.026 119.316L136.026 119.316L136.026 119.316L136.026 119.316L136.026 119.316L136.026 119.316L136.026 119.316L136.026 119.316L136.026 119.316L136.026 119.316L136.026 119.316L136.026 119.316L136.026 119.316L136.026 119.316L136.026 119.316L136.026 119.316L136.026 119.316L136.026 119.316L136.026 119.316L136.026 119.316L136.026 119.316L136.026 119.316L136.026 119.316L136.026 119.316L136.026 119.316L136.026 119.316L136.026 119.316L136.026 119.316L136.026 119.316L136.026 119.316L136.026 119.316L136.026 119.316L136.026 119.316L136.026 119.316L136.026 119.316L136.026 119.316L136.026 119.316L136.026 119.316L136.026 119.316L136.026 119.316L136.026 119.316L136.026 119.316L136.026 119.316L136.026 119.316L136.026 119.316L136.026 119.316L136.026 119.316L136.027 119.316L136.027 119.316L136.027 119.316L136.027 119.316L136.027 119.316L136.027 119.316L136.027 119.316L136.027 119.316L136.027 119.316L136.027 119.316L136.027 119.316L136.027 119.316L136.027 119.316L136.027 119.316L136.027 119.316L136.027 119.316L136.027 119.316C136.259 119.348 136.464 119.532 136.641 119.774C136.821 120.02 136.988 120.348 137.138 120.708C137.44 121.428 137.685 122.294 137.846 122.936M135.188 121.582C135.296 121.189 135.453 120.807 135.604 120.528C135.68 120.388 135.753 120.277 135.816 120.205C135.847 120.168 135.873 120.144 135.893 120.131C135.895 120.13 135.897 120.129 135.899 120.127C135.912 120.139 135.931 120.158 135.955 120.188C135.993 120.236 136.037 120.302 136.085 120.388C136.18 120.558 136.288 120.793 136.401 121.074C136.625 121.635 136.864 122.374 137.055 123.134M137.846 122.936C137.846 122.936 137.846 122.935 137.846 122.935L137.749 122.96M137.846 122.936L137.749 122.96M137.846 122.936C137.901 123.154 137.768 123.375 137.55 123.43L137.549 123.43C137.498 123.443 137.446 123.445 137.395 123.438C137.235 123.417 137.097 123.3 137.055 123.134M137.749 122.96C137.79 123.124 137.69 123.292 137.525 123.333C137.486 123.343 137.447 123.345 137.409 123.339C137.288 123.323 137.183 123.235 137.152 123.109M137.055 123.134C137.055 123.134 137.055 123.134 137.055 123.134L137.152 123.109M137.055 123.134C137.055 123.134 137.055 123.134 137.055 123.133L137.152 123.109" fill="black" stroke="black" stroke-width="0.2"/>
<path d="M146.705 136.634C144.83 136.376 142.543 135.655 140.267 133.922C140.132 133.819 140.106 133.626 140.209 133.491C140.311 133.355 140.504 133.329 140.64 133.432C145.624 137.227 150.785 135.908 150.837 135.895C150.999 135.851 151.169 135.949 151.213 136.113C151.257 136.276 151.159 136.446 150.995 136.489C150.87 136.523 149.133 136.967 146.705 136.634Z" fill="black"/>
<path d="M160.3 127.906L160.301 127.906C160.361 127.956 160.432 127.986 160.506 127.996C160.64 128.014 160.781 127.965 160.874 127.853L160.874 127.853C161.375 127.25 161.91 126.688 162.354 126.278C162.576 126.073 162.774 125.908 162.932 125.795C163.011 125.739 163.078 125.697 163.132 125.67C163.167 125.653 163.191 125.644 163.207 125.64C163.209 125.642 163.211 125.645 163.214 125.649C163.227 125.67 163.241 125.702 163.254 125.749C163.28 125.841 163.299 125.972 163.308 126.131C163.325 126.449 163.301 126.86 163.229 127.261L163.229 127.261C163.19 127.481 163.335 127.692 163.555 127.733C163.784 127.788 163.992 127.62 164.032 127.406L164.032 127.406C164.077 127.153 164.159 126.603 164.124 126.078C164.107 125.817 164.059 125.554 163.959 125.337C163.858 125.118 163.699 124.938 163.459 124.858C163.234 124.78 162.969 124.854 162.704 124.995C162.434 125.138 162.142 125.362 161.85 125.622C161.267 126.142 160.671 126.822 160.247 127.331L160.247 127.331C160.104 127.505 160.127 127.761 160.3 127.906Z" fill="black" stroke="black" stroke-width="0.2"/>
<path d="M143.126 102.259C143.126 102.259 142.017 96.3625 151.61 94.8674C161.204 93.3722 159.51 101.057 163.987 101.044C168.465 101.031 168.175 105.482 165.508 106.875C165.508 106.875 168.186 106.176 169.445 107.222C170.678 108.246 170.399 110.256 167.43 111.623C167.43 111.623 168.622 110.8 170.183 115.019C172.402 121.013 163.655 123.295 161.408 123.403C159.16 123.51 165.904 113.93 161.037 109.127C156.17 104.323 154.3 108.228 151.09 108.861C147.881 109.494 149.373 105.251 145.19 105.392C141.006 105.532 139.661 118.415 136.98 117.67C134.298 116.925 133.759 109.268 136.416 104.517C139.072 99.7664 143.126 102.259 143.126 102.259Z" fill="white" stroke="black"/>
<path d="M186.799 164.925C186.922 162.509 184.635 162.799 182.957 163.328C185.395 158.612 189.15 149.857 184.701 147.756C184.563 148.05 172.822 138.536 166.073 142.886C164.166 144.115 161.681 148.391 159.92 152.901C159.192 151.588 158.088 150.542 156.647 151.898C153.879 154.5 153.505 159.654 156.769 160.939C157.134 161.082 157.467 161.122 157.775 161.087C157.221 167.266 160.04 170.643 162.948 172.376C162.735 173.565 162.594 174.585 162.537 175C162.37 176.22 153.283 172.64 150.773 175.09C148.263 177.54 155.303 188.038 159.12 189.754C164.304 192.085 178.632 187.756 178.734 182.492C178.836 177.227 174.269 179.309 173.024 175.509C172.962 175.318 173.199 174.591 173.558 173.673C176.371 173.021 178.172 171.679 179.32 170.319C179.46 170.453 179.627 170.575 179.828 170.683C182.919 172.34 186.606 168.719 186.799 164.925Z" fill="#62B3B6" stroke="black"/>
<path d="M158.131 158.451C157.986 158.431 157.872 158.309 157.867 158.157C157.809 156.583 157.545 155.052 157.302 154.88C157.138 154.811 156.55 155.486 156.176 156.208C156.098 156.358 155.913 156.419 155.761 156.339C155.61 156.261 155.552 156.075 155.63 155.924C155.864 155.472 156.694 154.02 157.518 154.305C158.244 154.56 158.433 156.814 158.481 158.135C158.487 158.305 158.355 158.448 158.185 158.453C158.166 158.455 158.149 158.453 158.131 158.451Z" fill="black"/>
<path d="M167.996 174.685C166.629 174.497 164.791 173.862 162.569 172.199C162.433 172.097 162.405 171.904 162.507 171.768C162.609 171.632 162.803 171.606 162.937 171.706C167.588 175.189 170.433 173.889 170.462 173.875C170.615 173.801 170.797 173.865 170.872 174.017C170.946 174.17 170.884 174.352 170.732 174.427C170.662 174.462 169.692 174.918 167.996 174.685Z" fill="black"/>
<path d="M195.994 158.29C198.6 158.492 198.94 155.89 198.835 154.613C198.718 153.199 197.027 154.209 195.892 153.432C194.757 152.655 201.871 144.938 193.231 140.025C187.844 136.962 184.667 140.463 183.635 141.941C181.049 140.283 177.556 139.397 172.713 139.837C161.684 140.84 158.928 151.284 158.928 151.284C161.281 158.483 175.484 143.137 175.22 147.022C174.955 150.907 181.927 160.532 183.64 162.384C184.742 163.575 186.929 164.159 189.355 159.834C191.977 162.646 195.558 163.576 198.602 159.704C199.138 159.021 197.203 158.526 195.994 158.29Z" fill="#006987"/>
<path d="M172.699 165.82C172.635 166.586 172.344 167.35 171.877 167.981C171.41 168.612 170.795 169.072 170.139 169.281C169.482 169.49 168.824 169.436 168.277 169.127C167.73 168.819 167.328 168.275 167.14 167.59" stroke="black" stroke-miterlimit="10" stroke-linecap="round"/>
<path d="M181.005 168.109C180.928 168.099 180.856 168.06 180.805 167.995C180.7 167.861 180.722 167.668 180.856 167.563C181.894 166.745 183.731 165.433 184.399 165.819C185.152 166.26 184.58 167.834 184.388 168.306C184.323 168.463 184.142 168.538 183.987 168.474C183.829 168.41 183.754 168.23 183.818 168.073C184.131 167.306 184.264 166.453 184.088 166.35C183.825 166.279 182.474 167.071 181.237 168.046C181.168 168.1 181.085 168.12 181.005 168.109Z" fill="black"/>
<path d="M169.12 155.7C168.53 155.97 167.888 156.109 167.239 156.106C166.59 156.103 165.949 155.959 165.362 155.682C164.774 155.406 164.254 155.005 163.838 154.507C163.421 154.009 163.119 153.426 162.951 152.799" stroke="black" stroke-linecap="round" stroke-linejoin="round"/>
<path d="M174.474 146.569L169.458 159.676C169.048 160.177 168.613 160.647 168.157 161.082C168.157 161.082 167.651 161.574 166.463 162.573C166.919 162.987 167.433 163.309 167.99 163.53C168.605 163.773 169.264 163.888 169.945 163.871" stroke="black" stroke-linecap="round" stroke-linejoin="round"/>
<path d="M180.199 159.188C179.684 159.583 179.088 159.861 178.455 160.002C177.821 160.143 177.164 160.144 176.53 160.005C175.896 159.866 175.3 159.59 174.784 159.197C174.267 158.804 173.843 158.303 173.54 157.729" stroke="black" stroke-linecap="round" stroke-linejoin="round"/>
<path d="M185.466 180.634C185.466 180.634 188.837 172.173 190.582 172.686C192.327 173.199 189.89 176.983 189.89 176.983C189.89 176.983 195.47 171.578 197.168 173.51C197.99 174.446 192.528 177.45 192.528 177.45C192.528 177.45 197.866 173.022 199.013 174.992C199.696 176.164 194.746 179.134 194.746 179.134C194.746 179.134 199.51 176.032 199.928 177.126C200.347 178.22 195.125 181.988 195.125 181.988C195.125 181.988 199.478 179.29 199.873 180.516C200.268 181.742 193.227 184.2 192.466 185.425C191.706 186.65 185.55 184.388 185.466 180.634Z" fill="#62B3B6"/>
<path d="M189.568 182.338C189.41 182.316 189.293 182.175 189.304 182.013C189.315 181.845 189.459 181.717 189.627 181.726C189.648 181.726 189.997 181.732 190.231 181.397C190.499 181.013 190.775 179.943 189.606 177.1C189.542 176.943 189.617 176.763 189.774 176.699C189.93 176.635 190.111 176.709 190.176 176.867C191.158 179.256 191.342 180.904 190.724 181.766C190.284 182.378 189.619 182.342 189.591 182.34C189.583 182.34 189.576 182.339 189.568 182.338Z" fill="black"/>
<path d="M195.106 181.005C194.963 180.985 194.85 180.866 194.841 180.717C194.723 178.617 192.444 177.746 192.421 177.738C192.262 177.678 192.18 177.502 192.239 177.342C192.298 177.184 192.475 177.102 192.634 177.161C192.743 177.201 195.315 178.175 195.456 180.683C195.466 180.853 195.336 180.998 195.166 181.008C195.146 181.008 195.126 181.007 195.106 181.005Z" fill="black"/>
<path d="M194.543 188.401C194.337 185.472 183.174 179.08 183.174 179.08C182.604 179.047 182.001 179.878 181.41 181.166C179.222 179.717 176.517 178.436 175.429 177.599C173.463 176.087 165.991 186.032 161.366 183.534C156.741 181.036 160.275 174.897 160.275 174.897C159.402 174.196 154.751 173.419 151.117 173.729C143.978 173.837 127.117 174.623 121.755 179.543C116.261 184.584 125.091 206.497 132.629 205.877C134.914 205.689 139.477 201.228 139.84 198.587C140.203 195.946 135.339 192.173 135.248 191.332C135.189 190.796 138.596 190.735 141.948 189.865C140.13 195.893 138.868 201.558 140.539 201.788C143.884 202.247 169.44 211.936 175.081 209.966C177.911 212.369 181.073 214.256 183.45 212.65C188.261 209.397 194.748 191.33 194.543 188.401Z" fill="#E6E780" stroke="black"/>
<path d="M139.091 199.518C139.091 199.518 143.253 202.367 141.492 209.163C139.731 215.96 133.755 215.76 132.879 214.605C132.003 213.449 136.807 211.625 136.807 211.625C136.807 211.625 131.596 213.394 131.532 212.35C131.469 211.306 135.867 209.426 135.867 209.426C135.867 209.426 131.062 211.25 130.851 209.772C130.64 208.294 136.497 207.856 134.652 204.705C132.808 201.554 139.091 199.518 139.091 199.518Z" fill="#62B3B6"/>
<path d="M173.832 179.712C173.77 179.795 167.553 187.94 160.009 184.908C157.859 184.046 156.587 182.841 156.228 181.327L173.832 179.712ZM173.832 179.712C173.934 179.576 174.127 179.55 174.263 179.651C174.399 179.753 174.426 179.945 174.324 180.082M173.832 179.712L174.324 180.082M174.324 180.082C174.266 180.16 168.997 187.052 162.136 186.11C161.368 186.005 160.582 185.802 159.78 185.48M174.324 180.082L159.743 185.573M155.531 181.489L155.531 181.489C155.16 179.923 155.66 178.362 156.259 177.186C156.858 176.008 157.562 175.2 157.623 175.132L155.531 181.489ZM155.531 181.489C155.949 183.255 157.379 184.625 159.743 185.573M155.531 181.489L158.233 175.672M158.233 175.672L158.233 175.672L158.233 175.672L158.233 175.672L158.158 175.606C158.271 175.478 158.259 175.284 158.132 175.172C158.004 175.06 157.81 175.071 157.698 175.198C157.583 175.328 154.903 178.401 155.628 181.466C156.036 183.188 157.432 184.538 159.78 185.48M158.233 175.672L158.233 175.672L158.232 175.673L158.231 175.675L158.224 175.682L158.202 175.709C158.182 175.732 158.154 175.766 158.119 175.81C158.049 175.897 157.95 176.024 157.835 176.183C157.604 176.503 157.305 176.955 157.027 177.491C156.47 178.566 156.006 179.962 156.325 181.303L156.325 181.303C156.673 182.773 157.911 183.959 160.046 184.816L160.047 184.816C163.775 186.314 167.18 185.054 169.671 183.395C172.162 181.736 173.724 179.689 173.751 179.652L173.752 179.652C173.888 179.471 174.144 179.438 174.322 179.57L174.323 179.571C174.503 179.706 174.539 179.961 174.404 180.142L174.404 180.142C174.372 180.185 173.033 181.936 170.84 183.559C168.649 185.181 165.59 186.685 162.122 186.209C161.347 186.103 160.552 185.898 159.743 185.573M158.233 175.672L159.743 185.573M159.78 185.48L159.743 185.573M159.78 185.48L159.743 185.573C159.743 185.573 159.743 185.573 159.743 185.573" fill="black" stroke="black" stroke-width="0.2"/>
<path d="M173.924 207.238L173.924 207.238C173.013 205.57 172.717 203.414 173.022 200.799C173.327 198.183 174.234 195.101 175.738 191.57C177.96 186.355 180.737 182.032 180.766 181.987L180.766 181.987C180.889 181.798 181.141 181.744 181.329 181.866L181.329 181.866C181.518 181.988 181.574 182.24 181.451 182.429M173.924 207.238L181.367 182.375M173.924 207.238C173.989 207.356 174.103 207.43 174.227 207.447C174.31 207.458 174.398 207.444 174.477 207.401M173.924 207.238L174.012 207.19C174.061 207.279 174.147 207.335 174.24 207.348C174.303 207.356 174.37 207.345 174.429 207.313M181.451 182.429C181.451 182.429 181.451 182.429 181.451 182.429L181.367 182.375M181.451 182.429C181.451 182.429 181.451 182.429 181.451 182.429L181.367 182.375M181.451 182.429C181.395 182.516 178.676 186.771 176.48 191.936C175.381 194.52 174.415 197.327 173.978 199.952C173.54 202.579 173.635 205.008 174.64 206.848C174.748 207.045 174.675 207.293 174.477 207.401M181.367 182.375C181.258 182.545 170.47 199.423 174.552 206.896C174.633 207.044 174.579 207.232 174.429 207.313M174.477 207.401L174.429 207.313M174.477 207.401C174.477 207.401 174.477 207.401 174.477 207.401L174.429 207.313" fill="black" stroke="black" stroke-width="0.2"/>
<path d="M116.239 149.235C113.418 147.498 111.28 148.05 109.618 146.826C108.861 146.267 108.489 144.188 108.307 142.091C111.562 141.613 115.259 139.642 117.252 134.086C117.516 134.247 117.836 134.352 118.227 134.375C121.729 134.582 123.556 129.748 122.139 126.223C121.395 124.373 119.937 124.88 118.719 125.778C118.996 120.957 118.523 116.041 117.376 114.083C113.08 106.751 98.4266 110.67 98.4266 110.67C93.5056 110.705 93.2319 120.228 93.4613 125.532C92.1612 124.346 90.2083 123.121 89.3041 125.365C87.8841 128.889 89.7066 133.724 93.2086 133.521C93.4359 133.508 93.6391 133.467 93.8223 133.405C94.256 134.99 95.2017 136.797 97.1402 138.462C97.6662 140.678 98.2962 144.493 96.9284 146.189C94.9407 148.655 92.7193 146.776 92.6532 148.014C92.2581 155.412 94.8959 164.218 97.0467 168.024C99.1976 171.831 107.712 170.194 112.5 169.681C118.438 169.044 119.06 150.972 116.239 149.235Z" fill="#C8410A" stroke="black"/>
<path d="M91.389 147.426C91.389 147.426 93.6111 158.754 92.7981 161.282C91.9852 163.809 79.7991 160.221 78.9508 156.223C78.1025 152.226 85.795 146.709 91.389 147.426Z" fill="#C8410A"/>
<path d="M104.576 124.085C103.962 124.823 103.194 125.418 102.326 125.828C101.458 126.238 100.511 126.454 99.5509 126.46C98.5909 126.467 97.6411 126.263 96.7679 125.865C95.8946 125.466 95.119 124.881 94.4951 124.151" stroke="black" stroke-linecap="round" stroke-linejoin="round"/>
<path d="M116.674 131.457L116.674 131.457C116.716 131.478 116.759 131.491 116.803 131.497C116.97 131.52 117.141 131.437 117.222 131.279L117.222 131.278C117.577 130.58 117.974 129.913 118.316 129.415C118.488 129.166 118.644 128.962 118.773 128.817C118.838 128.744 118.894 128.689 118.941 128.65C118.97 128.626 118.992 128.612 119.007 128.604C119.01 128.607 119.013 128.61 119.017 128.614C119.035 128.632 119.056 128.661 119.079 128.704C119.125 128.789 119.172 128.913 119.216 129.066C119.302 129.371 119.369 129.775 119.387 130.179L119.387 130.18C119.398 130.404 119.589 130.58 119.813 130.568C120.037 130.558 120.212 130.368 120.202 130.143L120.202 130.143C120.191 129.889 120.15 129.343 120.004 128.844C119.93 128.595 119.829 128.351 119.687 128.16C119.544 127.968 119.355 127.823 119.11 127.79L119.109 127.79L119.109 127.79L119.109 127.79L119.109 127.79L119.109 127.789L119.109 127.789L119.109 127.789L119.109 127.789L119.109 127.789L119.109 127.789L119.109 127.789L119.109 127.789L119.109 127.789L119.109 127.789L119.109 127.789L119.109 127.789L119.109 127.789L119.109 127.789L119.109 127.789L119.108 127.789L119.108 127.789L119.108 127.789L119.108 127.789L119.108 127.789L119.108 127.789L119.108 127.789L119.108 127.789L119.108 127.789L119.108 127.789L119.108 127.789L119.108 127.789L119.108 127.789L119.108 127.789L119.108 127.789L119.108 127.789L119.108 127.789L119.108 127.789L119.108 127.789L119.107 127.789L119.107 127.789L119.107 127.789L119.107 127.789L119.107 127.789L119.107 127.789L119.107 127.789L119.107 127.789L119.107 127.789L119.107 127.789L119.107 127.789L119.107 127.789L119.107 127.789L119.107 127.789L119.107 127.789L119.107 127.789L119.107 127.789L119.107 127.789L119.107 127.789L119.106 127.789L119.106 127.789L119.106 127.789L119.106 127.789L119.106 127.789L119.106 127.789L119.106 127.789L119.106 127.789L119.106 127.789L119.106 127.789L119.106 127.789L119.106 127.789L119.106 127.789L119.106 127.789L119.106 127.789L119.106 127.789L119.106 127.789L119.106 127.789L119.105 127.789L119.105 127.789L119.105 127.789L119.105 127.789L119.105 127.789L119.105 127.789L119.105 127.789L119.105 127.789L119.105 127.789L119.105 127.789L119.105 127.789L119.105 127.789L119.105 127.789L119.105 127.789L119.105 127.789L119.105 127.789L119.105 127.789L119.105 127.789L119.105 127.789L119.104 127.789L119.104 127.789L119.104 127.789L119.104 127.789L119.104 127.789L119.104 127.789L119.104 127.789L119.104 127.789L119.104 127.789L119.104 127.789L119.104 127.789L119.104 127.789L119.104 127.789L119.104 127.789L119.104 127.789L119.104 127.789L119.104 127.789L119.104 127.789L119.104 127.789L119.103 127.789L119.103 127.789L119.103 127.789L119.103 127.789L119.103 127.789L119.103 127.789L119.103 127.789L119.103 127.789L119.103 127.789L119.103 127.789L119.103 127.789L119.103 127.789L119.103 127.789L119.103 127.789L119.103 127.789L119.103 127.789L119.103 127.789L119.103 127.789L119.103 127.789L119.102 127.789L119.102 127.789L119.102 127.789L119.102 127.789L119.102 127.789L119.102 127.789L119.102 127.789L119.102 127.789L119.102 127.788L119.102 127.788L119.102 127.788L119.102 127.788L119.102 127.788L119.102 127.788L119.102 127.788L119.102 127.788L119.102 127.788L119.102 127.788L119.102 127.788L119.101 127.788L119.101 127.788L119.101 127.788L119.101 127.788L119.101 127.788L119.101 127.788L119.101 127.788L119.101 127.788L119.101 127.788L119.101 127.788L119.101 127.788L119.101 127.788L119.101 127.788L119.101 127.788L119.101 127.788L119.101 127.788L119.101 127.788L119.101 127.788L119.101 127.788L119.1 127.788L119.1 127.788L119.1 127.788L119.1 127.788L119.1 127.788L119.1 127.788L119.1 127.788L119.1 127.788L119.1 127.788L119.1 127.788L119.1 127.788L119.1 127.788L119.1 127.788L119.1 127.788L119.1 127.788L119.1 127.788L119.1 127.788L119.1 127.788L119.1 127.788L119.099 127.788L119.099 127.788L119.099 127.788L119.099 127.788L119.099 127.788L119.099 127.788L119.099 127.788L119.099 127.788L119.099 127.788L119.099 127.788L119.099 127.788L119.099 127.788L119.099 127.788L119.099 127.788L119.099 127.788L119.099 127.788L119.099 127.788L119.099 127.788L119.099 127.788L119.098 127.788L119.098 127.788L119.098 127.788L119.098 127.788L119.098 127.788L119.098 127.788L119.098 127.788L119.098 127.788L119.098 127.788L119.098 127.788L119.098 127.788L119.098 127.788L119.098 127.788L119.098 127.788L119.098 127.788L119.098 127.788L119.098 127.788L119.098 127.788L119.098 127.788L119.097 127.788L119.097 127.788L119.097 127.788L119.097 127.788L119.097 127.788L119.097 127.788L119.097 127.788L119.097 127.788L119.097 127.788L119.097 127.788L119.097 127.788L119.097 127.788L119.097 127.788L119.097 127.788L119.097 127.788L119.097 127.788L119.097 127.788L119.097 127.788L119.097 127.788L119.096 127.788L119.096 127.788L119.096 127.788L119.096 127.788L119.096 127.788L119.096 127.788L119.096 127.788L119.096 127.788L119.096 127.788L119.096 127.788L119.096 127.788L119.096 127.788L119.096 127.788L119.096 127.788L119.096 127.788L119.096 127.788L119.096 127.788L119.096 127.788L119.096 127.788L119.095 127.788L119.095 127.788L119.095 127.788L119.095 127.788L119.095 127.788L119.095 127.788L119.095 127.788L119.095 127.788L119.095 127.788L119.095 127.788L119.095 127.788L119.095 127.788L119.095 127.788L119.095 127.788L119.095 127.787L119.095 127.787L119.095 127.787L119.095 127.787L119.095 127.787L119.094 127.787L119.094 127.787L119.094 127.787L119.094 127.787L119.094 127.787L119.094 127.787L119.094 127.787L119.094 127.787L119.094 127.787L119.094 127.787L119.094 127.787L119.094 127.787L119.094 127.787L119.094 127.787L119.094 127.787L119.094 127.787L119.094 127.787L119.094 127.787L119.094 127.787L119.093 127.787L119.093 127.787L119.093 127.787L119.093 127.787L119.093 127.787L119.093 127.787L119.093 127.787L119.093 127.787L119.093 127.787L119.093 127.787L119.093 127.787L119.093 127.787L119.093 127.787L119.093 127.787L119.093 127.787L119.093 127.787L119.093 127.787L119.093 127.787L119.093 127.787L119.092 127.787L119.092 127.787L119.092 127.787L119.092 127.787L119.092 127.787L119.092 127.787L119.092 127.787L119.092 127.787L119.092 127.787L119.092 127.787L119.092 127.787L119.092 127.787L119.092 127.787L119.092 127.787L119.092 127.787L119.092 127.787L119.092 127.787L119.092 127.787L119.092 127.787L119.091 127.787L119.091 127.787L119.091 127.787L119.091 127.787L119.091 127.787L119.091 127.787L119.091 127.787L119.091 127.787L119.091 127.787L119.091 127.787L119.091 127.787L119.091 127.787L119.091 127.787L119.091 127.787L119.091 127.787L119.091 127.787L119.091 127.787L119.091 127.787L119.091 127.787L119.091 127.787L119.09 127.787L119.09 127.787L119.09 127.787L119.09 127.787L119.09 127.787L119.09 127.787L119.09 127.787L119.09 127.787L119.09 127.787L119.09 127.787L119.09 127.787L119.09 127.787L119.09 127.787L119.09 127.787L119.09 127.787L119.09 127.787L119.09 127.787L119.09 127.787L119.09 127.787L119.089 127.787L119.089 127.787L119.089 127.787L119.089 127.787L119.089 127.787L119.089 127.787L119.089 127.787L119.089 127.787L119.089 127.787L119.089 127.787L119.089 127.787L119.089 127.787L119.089 127.787L119.089 127.787L119.089 127.787L119.089 127.787L119.089 127.787L119.089 127.787L119.089 127.787L119.088 127.787L119.088 127.787L119.088 127.787L119.088 127.787L119.088 127.787L119.088 127.787L119.088 127.787L119.088 127.787L119.088 127.787L119.088 127.787L119.088 127.787L119.088 127.787L119.088 127.787L119.088 127.787L119.088 127.787L119.088 127.787L119.088 127.787L119.088 127.787L119.088 127.787L119.087 127.786L119.087 127.786L119.087 127.786L119.087 127.786L119.087 127.786L119.087 127.786L119.087 127.786L119.087 127.786L119.087 127.786L119.087 127.786L119.087 127.786L119.087 127.786L119.087 127.786L119.087 127.786L119.087 127.786L119.087 127.786L119.087 127.786L119.087 127.786L119.087 127.786L119.086 127.786L119.086 127.786L119.086 127.786L119.086 127.786L119.086 127.786L119.086 127.786L119.086 127.786L119.086 127.786L119.086 127.786L119.086 127.786L119.086 127.786L119.086 127.786L119.086 127.786L119.086 127.786L119.086 127.786L119.086 127.786L119.086 127.786L119.086 127.786L119.086 127.786L119.086 127.786L119.085 127.786L119.085 127.786L119.085 127.786L119.085 127.786L119.085 127.786L119.085 127.786L119.085 127.786L119.085 127.786L119.085 127.786L119.085 127.786L119.085 127.786L119.085 127.786L119.085 127.786L119.085 127.786L119.085 127.786L119.085 127.786L119.085 127.786L119.085 127.786L119.085 127.786L119.084 127.786L119.084 127.786L119.084 127.786L119.084 127.786L119.084 127.786L119.084 127.786L119.084 127.786L119.084 127.786L119.084 127.786L119.084 127.786L119.084 127.786L119.084 127.786L119.084 127.786L119.084 127.786L119.084 127.786L119.084 127.786L119.084 127.786L119.084 127.786L119.084 127.786L119.083 127.786L119.083 127.786L119.083 127.786L119.083 127.786L119.083 127.786L119.083 127.786L119.083 127.786L119.083 127.786L119.083 127.786L119.083 127.786L119.083 127.786L119.083 127.786L119.083 127.786L119.083 127.786L119.083 127.786L119.083 127.786L119.083 127.786L119.083 127.786L119.079 127.785C118.844 127.763 118.603 127.896 118.376 128.092C118.146 128.292 117.91 128.574 117.683 128.892C117.228 129.527 116.795 130.318 116.495 130.909L116.495 130.909C116.394 131.109 116.473 131.354 116.674 131.457Z" fill="black" stroke="black" stroke-width="0.2"/>
<path d="M108.394 136.47C107.942 137.091 107.298 137.594 106.572 137.892C105.845 138.19 105.082 138.265 104.412 138.104C103.742 137.943 103.207 137.555 102.899 137.008C102.59 136.461 102.528 135.788 102.722 135.104" stroke="black" stroke-miterlimit="10" stroke-linecap="round"/>
<path d="M106.115 114.569L107.411 128.543C107.671 129.136 107.963 129.705 108.285 130.247C108.285 130.247 108.64 130.857 109.515 132.14C108.964 132.416 108.382 132.588 107.786 132.651C107.128 132.718 106.462 132.651 105.811 132.452" stroke="black" stroke-linecap="round" stroke-linejoin="round"/>
<path d="M104.166 142.221C102.091 141.936 100.764 141.254 100.659 141.199C100.509 141.12 100.452 140.934 100.53 140.784C100.609 140.633 100.796 140.576 100.946 140.655C100.994 140.679 105.743 143.108 111.435 140.522C111.589 140.451 111.773 140.519 111.843 140.675C111.913 140.83 111.844 141.012 111.69 141.082C108.779 142.404 106.136 142.492 104.166 142.221Z" fill="black" stroke="black" stroke-width="0.1"/>
<path d="M89.972 129.442C89.9612 129.673 90.1549 129.851 90.3568 129.868L90.3568 129.868L90.3606 129.868C90.5855 129.878 90.7761 129.704 90.7867 129.48L90.7867 129.479C90.8055 129.073 90.8733 128.666 90.9589 128.36C91.0018 128.207 91.0482 128.083 91.093 127.998C91.1155 127.955 91.1356 127.927 91.1518 127.909C91.1536 127.907 91.1553 127.906 91.1568 127.904C91.1727 127.912 91.1954 127.927 91.2254 127.951C91.2732 127.989 91.3305 128.045 91.3961 128.117C91.5271 128.262 91.6843 128.467 91.8561 128.716C92.1995 129.214 92.5959 129.881 92.9504 130.58L92.9506 130.58C93.0136 130.704 93.1308 130.782 93.2585 130.799C93.3386 130.81 93.4217 130.797 93.4978 130.76L93.4978 130.76L93.4988 130.759C93.6994 130.657 93.7793 130.412 93.6779 130.211L93.6778 130.211C93.3781 129.62 92.9489 128.828 92.4958 128.192C92.2695 127.875 92.0342 127.592 91.8033 127.392C91.5761 127.195 91.334 127.063 91.0975 127.086L91.1072 127.185M89.972 129.442C89.9838 129.185 90.0258 128.631 90.1767 128.128C90.252 127.876 90.3565 127.631 90.503 127.441C90.6506 127.25 90.8454 127.11 91.0976 127.086L91.1072 127.185M89.972 129.442C89.972 129.442 89.972 129.442 89.972 129.442L90.0719 129.447M89.972 129.442C89.972 129.442 89.972 129.442 89.972 129.442L90.0719 129.447M91.1072 127.185C91.8824 127.11 92.9905 129.078 93.5886 130.256M91.1072 127.185C90.2382 127.269 90.0952 128.938 90.0719 129.447M93.5886 130.256L90.0719 129.447M93.5886 130.256C93.6653 130.408 93.6048 130.593 93.4535 130.67L93.5886 130.256Z" fill="black" stroke="black" stroke-width="0.2"/>
<path d="M123.969 119.711C120.43 116.845 128.366 109.551 120.976 105.327C113.587 101.104 107.987 108.719 107.987 108.719C107.925 105.398 97.0996 101.324 90.6692 108.203C90.1427 108.767 89.6993 109.357 89.3163 109.964C88.633 108.888 85.5296 104.855 79.7276 109.495C73.1001 114.795 75.6058 116.898 77.1174 120.211C78.629 123.524 76.4777 122.607 75.4396 126.398C74.4015 130.188 79.2179 130.539 77.2756 133.378C75.3333 136.216 74.8364 136.525 80.2669 139.481C86.6228 142.942 91.2543 138.61 91.1073 132.897C91.1073 132.897 86.5261 127.662 90.443 124.405C91.7864 124.23 93.6499 125.69 93.6499 125.69C94.1801 121.83 96.7196 122.179 100.55 119.91C104.381 117.642 100.997 111.381 109.401 112.742C117.805 114.103 110.422 121.887 118.477 125.788C119.68 126.371 121.903 126.465 122.676 124.605C122.972 123.893 122.904 123.39 122.71 123.039C124.771 124.072 127.017 122.18 123.969 119.711Z" fill="#60244A" stroke="black"/>
<path d="M94.9546 147.087C94.9546 147.087 94.0694 155.039 96.2007 157.609C98.3318 160.178 104.865 166.872 107.618 166.422C110.371 165.972 115.271 160.435 115.578 158.2C115.885 155.965 113.842 148.232 114.914 147.965C115.985 147.699 117.814 147.95 117.814 147.95C117.814 147.95 118.646 156.965 119.403 157.483C120.16 158.001 123.251 161.117 125.537 165.571C127.823 170.025 124.444 178.048 124.221 179.673C123.998 181.299 124.052 197.038 123.662 199.883C101.192 196.797 84.6831 196.252 83.5185 195.69C80.7242 194.34 88.3588 177.025 86.5148 173.874C84.6705 170.722 84.4161 166.547 85.6192 163.815C86.8226 161.082 92.2568 157.688 92.4521 156.266C92.6474 154.844 91.1023 148.007 91.3891 147.426C91.6761 146.844 94.9546 147.087 94.9546 147.087Z" fill="#DF93BA" stroke="black"/>
<path d="M82.5776 150.849L82.5805 150.849C92.3828 151.79 99.1132 161.076 102.014 170.914C103.46 175.819 103.929 180.792 103.362 184.81C102.792 188.854 101.2 191.788 98.6667 192.869C95.2939 194.309 91.5779 194.028 87.8711 192.555C84.1611 191.081 80.4926 188.424 77.2662 185.174C74.0415 181.925 71.2775 178.103 69.3687 174.325C67.4552 170.537 66.4234 166.838 66.6036 163.825C66.9631 157.81 70.896 154.575 74.8308 152.823C76.7985 151.946 78.7488 151.451 80.2104 151.175C80.9402 151.038 81.5455 150.955 81.9668 150.907C82.1774 150.883 82.3418 150.868 82.4526 150.859C82.508 150.854 82.55 150.851 82.5776 150.849Z" fill="white" stroke="black"/>
<path d="M88.5264 150.052C87.4128 149.221 86.673 149.833 86.1965 150.744C84.8358 146.949 81.2968 142.125 72.2414 146.561C60.1688 152.477 63.1618 159.07 66.8272 163.587C65.6729 163.518 64.5772 163.824 64.8283 165.333C65.329 168.341 68.5994 170.892 70.9136 169.288C71.1329 169.136 71.2944 168.966 71.4083 168.783C76.1408 173.79 84.6181 168.606 86.0156 166.876C89.2794 162.835 89.4071 159.61 88.7854 157.449C88.937 157.415 89.0932 157.358 89.2545 157.272C91.7404 155.95 90.9709 151.874 88.5264 150.052Z" fill="white" stroke="black"/>
<path d="M84.0211 154.271C83.4542 154.129 82.8633 154.114 82.2897 154.224C81.7161 154.335 81.1736 154.57 80.7001 154.912C80.2266 155.254 79.8335 155.696 79.5483 156.206C79.2631 156.716 79.0926 157.282 79.0488 157.864" stroke="black" stroke-linecap="round" stroke-linejoin="round"/>
<path d="M75.2145 158.713C74.6476 158.572 74.0567 158.556 73.4831 158.667C72.9095 158.778 72.367 159.012 71.8935 159.355C71.42 159.697 71.0269 160.138 70.7417 160.648C70.4564 161.158 70.286 161.724 70.2422 162.307" stroke="black" stroke-linecap="round" stroke-linejoin="round"/>
<path d="M87.4718 155.205L87.4718 155.205C87.4206 154.548 87.3936 153.808 87.4504 153.197C87.4788 152.892 87.5285 152.613 87.6092 152.392C87.6889 152.173 87.8055 151.991 87.9802 151.906C88.179 151.809 88.3858 151.822 88.5795 151.893C88.7713 151.963 88.9553 152.091 89.1196 152.236C89.4483 152.527 89.7183 152.902 89.8377 153.079L89.8379 153.08C89.963 153.266 89.9142 153.519 89.7273 153.645C89.5416 153.771 89.2873 153.721 89.1615 153.535C88.9847 153.273 88.7834 153.042 88.6115 152.88C88.5253 152.799 88.4485 152.737 88.3874 152.697C88.3703 152.686 88.3552 152.677 88.3421 152.67C88.3404 152.676 88.3387 152.682 88.337 152.688C88.3242 152.734 88.3119 152.796 88.3006 152.872C88.2781 153.024 88.2609 153.226 88.2507 153.463C88.2302 153.937 88.2379 154.541 88.2843 155.142L87.4718 155.205ZM87.4718 155.205C87.487 155.399 87.6364 155.552 87.822 155.577C87.8504 155.581 87.8797 155.582 87.9096 155.58L87.9098 155.58C88.134 155.562 88.3017 155.367 88.2843 155.142L88.1846 155.15C88.1977 155.319 88.0712 155.467 87.902 155.48M87.4718 155.205L87.902 155.48M87.902 155.48C87.8795 155.482 87.8572 155.481 87.8356 155.478C87.6958 155.459 87.583 155.344 87.5715 155.197L87.902 155.48Z" fill="black" stroke="black" stroke-width="0.2"/>
<path d="M81.3361 164.315L81.336 164.315C80.9498 164.558 80.4878 164.639 79.9612 164.567C79.2633 164.471 78.4467 164.106 77.5185 163.485C77.3314 163.36 77.2815 163.106 77.4065 162.92C77.5319 162.731 77.7877 162.684 77.9718 162.808C78.6555 163.265 79.2518 163.559 79.7483 163.693C80.2454 163.827 80.6288 163.797 80.9024 163.626C81.1066 163.497 81.2619 163.286 81.3772 163.02C81.4924 162.754 81.5648 162.441 81.6066 162.118C81.6904 161.472 81.65 160.807 81.6007 160.456C81.6007 160.456 81.6007 160.456 81.6007 160.456L81.6997 160.442L81.3361 164.315ZM81.3361 164.315C82.0943 163.839 82.358 162.856 82.4381 162.011C82.5187 161.159 82.4165 160.407 82.4072 160.342C82.3762 160.122 82.1735 159.96 81.9458 159.996L81.3361 164.315Z" fill="black" stroke="black" stroke-width="0.2"/>
<path d="M79.3773 159.272L79.4426 159.197C79.3888 159.15 79.1279 158.933 78.7842 158.769C78.444 158.607 77.9979 158.484 77.5897 158.664L77.5897 158.664C77.0892 158.885 76.847 159.461 76.8215 160.303L76.8215 160.304C76.817 160.465 76.9062 160.607 77.0401 160.677C77.0925 160.704 77.1527 160.722 77.2173 160.723M79.3773 159.272L79.4423 159.196C79.6131 159.342 79.6327 159.6 79.4869 159.77M79.3773 159.272C79.2758 159.185 78.3646 158.431 77.6301 158.755L77.5373 160.325C77.5541 159.766 77.6754 159.408 77.8788 159.318C78.1791 159.185 78.7486 159.544 78.9773 159.739C79.1043 159.85 79.3009 159.835 79.4108 159.705M79.3773 159.272C79.5061 159.382 79.5209 159.577 79.4108 159.705M79.4869 159.77C79.3414 159.942 79.0814 159.963 78.9121 159.815C78.8036 159.723 78.6118 159.59 78.4125 159.496C78.3128 159.45 78.2149 159.415 78.127 159.399C78.0382 159.383 77.9688 159.388 77.9192 159.409C77.8557 159.438 77.7873 159.517 77.7328 159.678C77.6793 159.835 77.6455 160.054 77.6373 160.328L77.6373 160.328C77.6299 160.553 77.4421 160.73 77.2173 160.723M79.4869 159.77C79.487 159.77 79.487 159.77 79.4871 159.77L79.4108 159.705M79.4869 159.77C79.4869 159.77 79.4869 159.77 79.4868 159.77L79.4108 159.705M77.2173 160.723C77.2174 160.723 77.2174 160.723 77.2174 160.723L77.2201 160.623L77.2173 160.723C77.2173 160.723 77.2173 160.723 77.2173 160.723Z" fill="black" stroke="black" stroke-width="0.2"/>
<path d="M67.4723 168.047C67.6701 167.939 67.7411 167.69 67.6336 167.494L67.6336 167.494C67.4819 167.217 67.3681 166.932 67.2984 166.707C67.2634 166.594 67.2401 166.498 67.2283 166.426C67.2258 166.41 67.2239 166.396 67.2225 166.384C67.2285 166.384 67.235 166.385 67.2419 166.387C67.2915 166.395 67.3542 166.411 67.429 166.434C67.5785 166.481 67.7687 166.557 67.9854 166.655C68.4185 166.85 68.9506 167.133 69.4635 167.45C69.6531 167.568 69.9063 167.509 70.0243 167.317C70.1431 167.126 70.0834 166.875 69.8917 166.757C69.3308 166.41 68.6861 166.048 68.117 165.819C67.8328 165.704 67.5627 165.621 67.3286 165.591C67.0974 165.562 66.8822 165.582 66.7269 165.698L66.7269 165.698L66.7267 165.698C66.5499 165.831 66.4664 166.02 66.4406 166.225C66.4151 166.428 66.4452 166.65 66.499 166.863C66.6067 167.288 66.8162 167.699 66.9189 167.886C66.9834 168.004 67.0981 168.077 67.2208 168.094C67.3047 168.105 67.3926 168.09 67.4723 168.047ZM67.4723 168.047C67.4724 168.047 67.4724 168.047 67.4725 168.047L67.4244 167.959L67.4723 168.047C67.4723 168.047 67.4723 168.047 67.4723 168.047Z" fill="black" stroke="black" stroke-width="0.2"/>
<path d="M83.0538 187.318C82.9645 187.305 82.8811 187.254 82.8316 187.17C82.7442 187.024 82.7927 186.836 82.9386 186.749C83.0345 186.691 92.6076 180.931 95.5796 174.203C95.6482 174.047 95.8311 173.975 95.985 174.046C96.1406 174.115 96.2109 174.296 96.1421 174.452C93.0907 181.361 83.6528 187.039 83.2527 187.277C83.1908 187.314 83.1207 187.327 83.0538 187.318Z" fill="black" stroke="black" stroke-width="0.3"/>
<path d="M65.2858 147.266C65.2858 147.266 64.4827 141.897 69.5303 142.303C74.5782 142.709 72.4744 138.833 74.4623 139.347C76.6874 139.921 78.5372 143.438 76.2947 145.042C76.2947 145.042 77.6071 139.587 79.1965 141.336C80.7861 143.084 82.2937 144.725 78.5733 147.274C78.5733 147.274 81.9888 145.544 81.9715 147.072C81.9542 148.599 81.1293 152.502 77.3659 152.559C73.6025 152.616 71.4073 148.967 68.8727 151.297C66.3381 153.626 69.8509 160.481 63.6391 158.614C58.703 157.13 59.6663 152.423 60.667 152.847C61.6681 153.272 62.0618 152.321 61.3229 150.689C60.5841 149.058 63.4428 145.961 65.2858 147.266Z" fill="white" stroke="black"/>
<path d="M70.7292 176.519C70.7292 176.519 71.6532 172.935 75.767 171.42C79.8808 169.904 73.2745 177.225 73.2745 177.225C73.2745 177.225 77.5256 171.559 79.5312 172.507C81.5368 173.455 76.229 177.363 76.229 177.363C76.229 177.363 80.9739 173.315 82.3821 174.862C83.79 176.408 80.5543 176.2 77.9906 181.09C75.4265 185.981 67.6752 182.931 70.7292 176.519Z" fill="#C8410A" stroke="black"/>
<path d="M128.15 155.217C123.13 149.092 117.911 148.377 117.911 148.377C117.911 148.377 117.363 155.754 119.619 158.548C124.675 164.811 126.494 167.737 125.312 171.265C119.928 170.856 111.434 170.484 107.299 167.331C102.848 163.936 96.0854 162.425 94.9753 163.403C94.2484 164.042 97.1489 165.259 99.2376 166.022C97.2847 165.416 94.4955 164.749 93.8262 165.627C93.3257 166.283 94.6396 166.927 96.1589 167.424C94.7875 167.167 93.5463 167.089 93.5288 167.644C93.5137 168.126 94.4754 168.771 95.6583 169.379C95.1491 169.27 94.6953 169.242 94.3792 169.365C92.9535 169.919 97.0011 172.68 100.014 173.554C104.692 174.912 121.489 189.177 128.854 187.043C128.874 187.104 128.887 187.145 128.887 187.145C144.925 184.078 136.648 165.587 128.15 155.217Z" fill="#C8410A" stroke="black"/>
<path d="M118.124 124.101C117.566 124.772 116.868 125.313 116.079 125.686C115.29 126.058 114.429 126.255 113.556 126.26C112.683 126.266 111.82 126.081 111.026 125.719C110.232 125.356 109.527 124.824 108.96 124.161" stroke="black" stroke-linecap="round" stroke-linejoin="round"/>
<path d="M89.9313 122.923C89.2259 122.115 88.6598 121.169 88.2724 120.151C87.885 119.134 87.6857 118.069 87.6884 117.031C87.6912 115.994 87.8958 115.008 88.2882 114.144C88.6805 113.279 89.2511 112.557 89.96 112.026" stroke="black" stroke-width="0.75" stroke-linecap="round" stroke-linejoin="round"/>
<path d="M131.171 175.04C131.102 175.031 131.036 174.998 130.986 174.943C130.955 174.909 127.744 171.493 121.144 171.487C120.976 171.492 120.837 171.349 120.837 171.179C120.837 171.009 120.975 170.872 121.145 170.872C128.035 170.877 131.305 174.379 131.441 174.528C131.555 174.654 131.546 174.848 131.421 174.962C131.35 175.026 131.258 175.052 131.171 175.04Z" fill="black" stroke="black" stroke-width="0.2"/>
<path d="M150.279 128.148C150.215 128.914 149.924 129.678 149.457 130.309C148.99 130.941 148.375 131.4 147.719 131.609C147.062 131.818 146.404 131.764 145.857 131.455C145.31 131.147 144.908 130.603 144.72 129.918" stroke="black" stroke-miterlimit="10" stroke-linecap="round"/>
<path d="M140.797 193.145L140.797 193.145C140.776 193.364 140.932 193.559 141.148 193.589L141.148 193.589L141.148 193.589L141.148 193.589L141.148 193.589L141.148 193.589L141.148 193.589L141.148 193.589L141.148 193.589L141.148 193.589L141.148 193.589L141.148 193.589L141.148 193.589L141.148 193.589L141.148 193.589L141.148 193.589L141.148 193.589L141.148 193.589L141.148 193.589L141.148 193.589L141.148 193.589L141.148 193.589L141.148 193.589L141.148 193.589L141.148 193.589L141.149 193.589L141.149 193.589L141.149 193.589L141.149 193.589L141.149 193.589L141.149 193.589L141.149 193.589L141.149 193.589L141.149 193.589L141.149 193.589L141.149 193.589L141.149 193.589L141.149 193.589L141.149 193.589L141.149 193.589L141.149 193.589L141.149 193.589L141.149 193.589L141.149 193.589L141.149 193.589L141.149 193.589L141.149 193.589L141.149 193.589L141.149 193.589L141.149 193.589L141.149 193.589L141.149 193.589L141.149 193.589L141.149 193.589L141.149 193.589L141.149 193.589L141.149 193.589L141.149 193.589L141.149 193.589L141.149 193.589L141.149 193.589L141.149 193.589L141.149 193.589L141.149 193.589L141.149 193.589L141.149 193.589L141.149 193.589L141.149 193.589L141.149 193.589L141.149 193.589L141.149 193.589L141.15 193.589L141.15 193.589L141.15 193.589L141.15 193.589L141.15 193.589L141.15 193.589L141.15 193.589L141.15 193.589L141.15 193.589L141.15 193.589L141.15 193.589L141.15 193.589L141.15 193.589L141.15 193.589L141.15 193.589L141.15 193.589L141.15 193.589L141.15 193.589L141.15 193.589L141.15 193.589L141.15 193.589L141.15 193.589L141.15 193.589L141.15 193.589L141.15 193.589L141.15 193.589L141.15 193.589L141.15 193.589L141.15 193.589L141.15 193.589L141.15 193.589L141.15 193.589L141.15 193.589L141.15 193.589L141.15 193.589L141.15 193.589L141.15 193.589L141.15 193.589L141.15 193.589L141.15 193.589L141.15 193.589L141.15 193.589L141.15 193.589L141.15 193.589L141.15 193.589L141.151 193.589L141.151 193.589L141.151 193.589L141.151 193.589L141.151 193.589L141.151 193.589L141.151 193.589L141.151 193.589L141.151 193.589L141.151 193.589L141.151 193.589L141.151 193.589L141.151 193.589L141.151 193.589L141.151 193.589L141.151 193.589L141.151 193.589L141.151 193.589L141.151 193.589L141.151 193.589L141.151 193.589L141.151 193.589L141.151 193.589L141.151 193.589L141.151 193.589L141.151 193.589L141.151 193.589L141.151 193.589L141.151 193.589L141.151 193.589L141.151 193.589L141.151 193.589L141.151 193.589L141.151 193.589L141.151 193.589L141.151 193.589L141.151 193.589L141.151 193.589L141.151 193.589L141.151 193.589L141.151 193.589L141.151 193.589L141.151 193.589L141.151 193.589L141.152 193.589L141.152 193.589L141.152 193.589L141.152 193.589L141.152 193.589L141.152 193.589L141.152 193.589L141.152 193.589L141.152 193.589L141.152 193.589L141.152 193.589L141.152 193.589L141.152 193.589L141.152 193.589L141.152 193.589L141.152 193.589L141.152 193.589L141.152 193.589L141.152 193.589L141.152 193.589L141.152 193.589L141.152 193.589L141.152 193.589L141.152 193.589L141.152 193.589L141.152 193.589L141.152 193.59L141.152 193.59L141.152 193.59L141.152 193.59L141.152 193.59L141.152 193.59L141.152 193.59L141.152 193.59L141.152 193.59L141.152 193.59L141.152 193.59L141.152 193.59L141.152 193.59L141.152 193.59L141.152 193.59L141.152 193.59L141.152 193.59L141.152 193.59L141.153 193.59L141.153 193.59L141.153 193.59L141.153 193.59L141.153 193.59L141.153 193.59L141.153 193.59L141.153 193.59L141.153 193.59L141.153 193.59L141.153 193.59L141.153 193.59L141.153 193.59L141.153 193.59L141.153 193.59L141.153 193.59L141.153 193.59L141.153 193.59L141.153 193.59L141.153 193.59L141.153 193.59L141.153 193.59L141.153 193.59L141.153 193.59L141.153 193.59L141.153 193.59L141.153 193.59L141.153 193.59L141.153 193.59L141.153 193.59L141.153 193.59L141.153 193.59L141.153 193.59L141.153 193.59L141.153 193.59L141.153 193.59L141.153 193.59L141.153 193.59L141.153 193.59L141.153 193.59L141.153 193.59L141.153 193.59L141.153 193.59L141.154 193.59L141.154 193.59L141.154 193.59L141.154 193.59L141.154 193.59L141.154 193.59L141.154 193.59L141.154 193.59L141.154 193.59L141.154 193.59L141.154 193.59L141.154 193.59L141.154 193.59L141.154 193.59L141.154 193.59L141.154 193.59L141.154 193.59L141.154 193.59L141.154 193.59L141.154 193.59L141.154 193.59L141.154 193.59L141.154 193.59L141.154 193.59L141.154 193.59L141.154 193.59L141.154 193.59L141.154 193.59L141.154 193.59L141.154 193.59L141.154 193.59L141.154 193.59L141.154 193.59L141.154 193.59L141.154 193.59L141.154 193.59L141.154 193.59L141.154 193.59L141.154 193.59L141.154 193.59L141.154 193.59L141.154 193.59L141.155 193.59L141.155 193.59L141.155 193.59L141.155 193.59L141.155 193.59L141.155 193.59L141.155 193.59L141.155 193.59L141.155 193.59L141.155 193.59L141.155 193.59L141.155 193.59L141.155 193.59L141.155 193.59L141.155 193.59L141.155 193.59L141.155 193.59L141.155 193.59L141.155 193.59L141.155 193.59L141.155 193.59L141.155 193.59L141.155 193.59L141.155 193.59L141.155 193.59L141.155 193.59L141.155 193.59L141.155 193.59L141.155 193.59L141.155 193.59L141.155 193.59L141.155 193.59L141.155 193.59L141.155 193.59L141.155 193.59L141.155 193.59L141.155 193.59L141.155 193.59L141.155 193.59L141.155 193.59L141.155 193.59L141.155 193.59L141.156 193.59L141.156 193.59L141.156 193.59L141.156 193.59L141.156 193.59L141.156 193.59L141.156 193.59L141.156 193.59L141.156 193.59L141.156 193.59L141.156 193.59L141.156 193.59L141.156 193.59L141.156 193.59L141.156 193.59L141.156 193.59L141.156 193.59L141.156 193.59L141.156 193.59L141.156 193.59L141.156 193.59L141.156 193.59L141.156 193.59L141.156 193.59L141.156 193.59L141.156 193.59L141.156 193.59L141.156 193.59L141.156 193.59L141.156 193.59L141.156 193.59L141.156 193.59L141.156 193.59L141.156 193.59L141.156 193.59L141.156 193.59L141.156 193.59L141.156 193.59L141.156 193.59L141.156 193.59L141.156 193.59L141.157 193.59L141.157 193.59L141.157 193.59L141.157 193.59L141.157 193.59L141.157 193.59L141.157 193.59L141.157 193.59L141.157 193.59L141.157 193.59L141.157 193.59L141.157 193.59L141.157 193.59L141.157 193.59L141.157 193.59L141.157 193.59L141.157 193.59L141.157 193.59L141.157 193.59L141.157 193.59L141.157 193.59L141.157 193.59L141.157 193.59L141.157 193.59L141.157 193.59L141.157 193.59L141.157 193.59L141.157 193.59L141.157 193.59L141.157 193.59L141.157 193.59L141.157 193.59L141.157 193.59L141.157 193.59L141.157 193.59L141.157 193.59L141.157 193.59L141.157 193.59L141.157 193.59L141.157 193.59L141.157 193.59L141.157 193.59L141.158 193.59L141.158 193.59L141.158 193.59L141.158 193.59L141.158 193.59L141.158 193.59L141.158 193.59L141.158 193.59L141.158 193.59L141.158 193.59L141.158 193.59L141.158 193.59L141.158 193.59L141.158 193.59L141.158 193.59L141.158 193.59L141.158 193.59L141.158 193.59L141.158 193.59L141.158 193.59L141.158 193.59L141.158 193.59L141.158 193.59L141.158 193.59L141.158 193.59L141.158 193.59L141.158 193.59L141.158 193.59L141.158 193.59L141.158 193.59L141.158 193.59L141.158 193.59L141.158 193.59L141.158 193.59L141.158 193.59L141.158 193.59L141.158 193.59L141.158 193.59L141.158 193.59L141.158 193.59L141.158 193.59L141.159 193.59L141.159 193.59L141.159 193.59L141.159 193.59L141.159 193.59L141.159 193.59L141.159 193.59L141.159 193.59L141.159 193.59L141.159 193.59L141.159 193.59L141.159 193.59L141.159 193.59L141.159 193.59L141.159 193.59L141.159 193.59L141.159 193.59L141.159 193.59L141.159 193.59L141.159 193.59L141.159 193.59L141.159 193.59L141.159 193.59L141.159 193.59L141.159 193.59L141.159 193.59L141.159 193.59L141.159 193.59L141.159 193.59L141.159 193.59L141.159 193.59L141.159 193.59L141.159 193.59L141.159 193.59L141.159 193.59L141.159 193.59L141.159 193.591L141.159 193.591L141.159 193.591L141.159 193.591L141.159 193.591L141.16 193.591L141.16 193.591L141.16 193.591L141.16 193.591L141.16 193.591L141.16 193.591L141.16 193.591L141.16 193.591L141.16 193.591L141.16 193.591L141.16 193.591L141.16 193.591L141.16 193.591L141.16 193.591L141.16 193.591L141.16 193.591L141.16 193.591L141.16 193.591L141.164 193.591C141.387 193.613 141.588 193.449 141.609 193.225C141.863 190.649 143.136 187.269 144.358 184.514C145.579 181.763 146.742 179.648 146.764 179.607L146.764 179.607C146.872 179.41 146.802 179.162 146.605 179.053L146.605 179.053L146.604 179.052C146.406 178.945 146.16 179.015 146.05 179.212L146.05 179.212C145.953 179.388 144.772 181.536 143.55 184.306C142.328 187.072 141.06 190.472 140.797 193.145ZM146.556 179.14C146.705 179.222 146.758 179.41 146.677 179.559L146.138 179.26C146.22 179.112 146.406 179.058 146.556 179.14Z" fill="black" stroke="black" stroke-width="0.2"/>
<path d="M137.639 142.229C137.692 142.011 137.558 141.79 137.34 141.737C137.124 141.682 136.9 141.818 136.847 142.037L136.847 142.037C136.836 142.083 136.362 144.129 136.836 146.483C137.312 148.843 138.742 151.515 142.535 152.786L142.535 152.786C143.019 152.948 143.489 153.058 143.949 153.121C147.329 153.585 150.001 151.52 151.821 149.354C153.644 147.185 154.635 144.891 154.657 144.839L154.657 144.838C154.745 144.631 154.648 144.392 154.44 144.304L154.44 144.304C154.236 144.219 153.994 144.313 153.907 144.522L153.999 144.56M137.639 142.229C137.639 142.229 137.639 142.229 137.639 142.229L137.542 142.206M137.639 142.229C137.639 142.229 137.639 142.229 137.639 142.229L137.542 142.206M137.639 142.229C137.603 142.378 137.171 144.253 137.611 146.376C138.049 148.494 139.352 150.859 142.794 152.013L142.794 152.013C146.22 153.163 148.979 151.338 150.902 149.182C152.825 147.027 153.887 144.567 153.907 144.521L153.999 144.56M137.542 142.206C137.467 142.513 135.799 149.774 142.762 152.108C149.729 154.447 153.957 144.659 153.999 144.56M137.542 142.206L154.565 144.799C154.631 144.643 154.558 144.463 154.401 144.397C154.248 144.332 154.065 144.404 153.999 144.56M136.944 142.06C136.985 141.894 137.154 141.793 137.316 141.834L136.944 142.06Z" fill="black" stroke="black" stroke-width="0.2"/>
<path d="M174.796 173.561L174.875 173.547C178.458 172.946 181.131 174.495 182.328 176.559C182.923 177.584 183.156 178.748 182.926 179.824C182.692 180.913 181.991 181.87 180.804 182.464M174.796 173.561L170.166 184.406C170.443 184.81 170.807 185.067 171.242 185.143C171.66 185.217 172.076 185.112 172.45 184.938C172.61 184.863 172.771 184.771 172.931 184.666C172.845 185.117 172.843 185.578 173.006 185.998C173.122 186.295 173.293 186.569 173.565 186.734C173.854 186.908 174.165 186.907 174.44 186.834C174.704 186.764 174.967 186.62 175.219 186.454C175.476 186.285 175.752 186.071 176.044 185.835C176.23 185.685 176.424 185.524 176.628 185.355C177.718 184.452 179.077 183.327 180.804 182.464M174.796 173.561L174.725 173.598L174.958 174.04M174.796 173.561L173.472 185.817C173.914 186.955 174.809 186.213 176.3 184.977C177.39 184.074 178.798 182.908 180.58 182.016M180.804 182.464L180.58 182.016M180.804 182.464L180.58 182.016M180.58 182.016C184.803 179.906 181.738 172.902 174.958 174.04M174.958 174.04C174.725 173.598 174.724 173.598 174.724 173.598L174.724 173.598L174.723 173.599L174.719 173.601L174.704 173.609L174.651 173.638C174.605 173.663 174.539 173.7 174.455 173.747C174.288 173.843 174.05 173.984 173.765 174.164C173.194 174.524 172.428 175.047 171.649 175.697C170.122 176.97 168.419 178.834 168.237 180.995L168.237 180.995M174.958 174.04L168.237 180.995M168.237 180.995C168.202 181.419 168.235 181.809 168.401 182.118M168.237 180.995L168.401 182.118M168.401 182.118C168.588 182.466 168.905 182.641 169.257 182.669M168.401 182.118L169.257 182.669M169.257 182.669C169.457 182.685 169.664 182.655 169.866 182.598M169.257 182.669L169.866 182.598M169.866 182.598C169.718 183.199 169.765 183.822 170.166 184.406L169.866 182.598Z" fill="white" stroke="black"/>
<path d="M169.115 184L169.115 184C169.168 184.048 169.23 184.076 169.295 184.084C169.413 184.101 169.536 184.052 169.618 183.947C170.081 183.347 171.142 182.417 172.096 181.63C173.031 180.859 173.857 180.231 173.903 180.195L173.905 180.194C174.065 180.072 174.106 179.837 173.998 179.666L173.998 179.666C173.888 179.494 173.665 179.454 173.502 179.576L173.502 179.576C173.432 179.629 172.574 180.281 171.61 181.079C170.647 181.877 169.573 182.825 169.075 183.469C168.95 183.629 168.966 183.867 169.115 184ZM173.532 179.616C173.672 179.512 173.862 179.546 173.956 179.693L169.114 183.499C170.103 182.221 173.393 179.722 173.532 179.616Z" fill="black" stroke="black" stroke-width="0.1"/>
<path d="M172.115 185.007L172.115 185.007C172.168 185.054 172.23 185.082 172.295 185.091C172.413 185.108 172.536 185.059 172.618 184.953C173.081 184.354 174.142 183.423 175.096 182.636C176.031 181.866 176.857 181.237 176.903 181.202L176.905 181.201C177.065 181.079 177.106 180.843 176.998 180.673L176.998 180.673C176.888 180.501 176.665 180.461 176.502 180.582L176.502 180.583C176.432 180.636 175.574 181.288 174.61 182.086C173.647 182.884 172.573 183.831 172.075 184.475C171.95 184.636 171.966 184.873 172.115 185.007ZM176.532 180.622C176.672 180.518 176.862 180.552 176.956 180.7L172.114 184.506C173.103 183.228 176.393 180.728 176.532 180.622Z" fill="black" stroke="black" stroke-width="0.1"/>
<path d="M97.6825 141.593L97.3386 141.956C97.6825 141.593 97.6826 141.593 97.6827 141.593L97.683 141.593L97.684 141.594L97.6874 141.597L97.6992 141.609L97.7425 141.651C97.7798 141.687 97.8336 141.74 97.9012 141.809C98.0366 141.946 98.2278 142.146 98.4543 142.397C98.9066 142.897 99.5034 143.607 100.078 144.443C101.205 146.08 102.343 148.335 101.935 150.465C101.855 150.883 101.718 151.25 101.475 151.502C101.201 151.786 100.848 151.869 100.502 151.802C100.305 151.764 100.114 151.678 99.935 151.569C99.9155 152.188 99.7018 152.775 99.1585 153.229L97.6825 141.593ZM97.6825 141.593L97.6241 141.537M97.6825 141.593L97.6241 141.537M96.4254 152.734C96.5515 152.879 96.6817 153.01 96.8158 153.125C97.1292 153.395 97.5012 153.608 97.9238 153.649C98.3635 153.693 98.7827 153.544 99.1584 153.229L96.4254 152.734ZM96.4254 152.734C96.387 153.191 96.2647 153.636 95.9941 153.997L96.4254 152.734ZM97.6241 141.537L97.5513 141.503M97.6241 141.537L97.5513 141.503M97.5513 141.503C94.2634 139.958 91.2713 140.729 89.5622 142.394C88.713 143.221 88.1741 144.279 88.1061 145.377C88.0374 146.488 88.4545 147.599 89.438 148.491L97.5513 141.503ZM92.6797 152.401C91.8731 151.237 90.868 149.788 89.4381 148.491L92.6797 152.401ZM92.6797 152.401C92.8306 152.619 92.9745 152.826 93.1129 153.021M92.6797 152.401L93.1129 153.021M93.1129 153.021C93.3301 153.326 93.5389 153.607 93.7405 153.839M93.1129 153.021L93.7405 153.839M93.7405 153.839C93.9385 154.067 94.1532 154.276 94.3879 154.415M93.7405 153.839L94.3879 154.415M94.3879 154.415C94.633 154.559 94.9326 154.644 95.2573 154.554M94.3879 154.415L95.2573 154.554M95.2573 154.554C95.5642 154.469 95.8029 154.252 95.9941 153.997L95.2573 154.554Z" fill="white" stroke="black"/>
<path d="M99.9175 151.804L99.9175 151.804C99.0801 150.077 96.8552 146.771 96.7118 146.558C96.7078 146.552 96.7054 146.548 96.7047 146.547L96.7464 146.52M99.9175 151.804L100.561 151.492C99.6769 149.669 97.3942 146.29 97.2973 146.147C97.1868 145.982 96.9634 145.939 96.8006 146.051C96.6374 146.162 96.594 146.384 96.705 146.548L96.7464 146.52M99.9175 151.804C99.9719 151.916 100.076 151.987 100.191 152.003C100.258 152.012 100.33 152.002 100.395 151.971L100.395 151.97C100.573 151.884 100.647 151.67 100.561 151.493L100.516 151.514C100.59 151.667 100.526 151.851 100.373 151.925C100.317 151.953 100.256 151.961 100.197 151.953C100.099 151.94 100.009 151.879 99.9625 151.783C99.1228 150.05 96.8935 146.738 96.7531 146.53C96.7493 146.524 96.747 146.52 96.7464 146.52M99.9175 151.804L96.8287 146.092C96.6882 146.188 96.6509 146.379 96.7464 146.52" fill="black" stroke="black" stroke-width="0.1"/>
<path d="M92.5171 146.605L92.4758 146.633C92.4766 146.634 92.4794 146.638 92.4842 146.645C92.6548 146.893 95.3113 150.755 96.3129 152.773L96.3129 152.773C96.3766 152.901 96.4984 152.982 96.6307 153C96.7092 153.011 96.7919 153 96.8678 152.964L96.868 152.964C97.0744 152.866 97.1611 152.621 97.0596 152.418C96.003 150.29 93.2785 146.343 93.1629 146.176C93.034 145.988 92.7746 145.939 92.586 146.066C92.3962 146.191 92.346 146.446 92.4761 146.633L92.5171 146.605ZM92.5171 146.605C92.4032 146.44 92.4469 146.218 92.6137 146.107L97.0148 152.44C97.1036 152.618 97.0281 152.833 96.8465 152.919C96.7797 152.95 96.7068 152.96 96.6375 152.95C96.5207 152.934 96.4135 152.863 96.3577 152.751C95.3538 150.728 92.6928 146.86 92.5252 146.616C92.5206 146.61 92.5179 146.606 92.5171 146.605Z" fill="black" stroke="black" stroke-width="0.1"/>
<path d="M131.96 204.336C131.956 204.335 131.951 204.334 131.947 204.333C131.779 204.303 131.669 204.142 131.7 203.975C132.333 200.535 137.275 197.961 137.485 197.854C137.638 197.776 137.822 197.836 137.9 197.987C137.977 198.138 137.918 198.323 137.767 198.401C137.718 198.426 132.883 200.944 132.305 204.086C132.275 204.249 132.122 204.358 131.96 204.336Z" fill="black"/>
<path d="M183.93 181.622L183.93 181.622C184.138 181.535 184.376 181.633 184.463 181.838L184.463 181.839L184.463 181.839C184.463 181.839 184.463 181.839 184.463 181.839C184.464 181.839 184.465 181.843 184.469 181.852C184.473 181.86 184.479 181.872 184.486 181.888C184.501 181.919 184.524 181.965 184.554 182.022C184.615 182.138 184.708 182.302 184.837 182.5C185.095 182.897 185.498 183.432 186.077 183.99C187.236 185.105 189.104 186.316 191.953 186.707C192.059 186.722 192.166 186.735 192.275 186.747L192.283 186.748L192.291 186.75C192.478 186.802 192.661 186.962 192.634 187.198M183.93 181.622L192.183 187.557L192.194 187.458L192.183 187.557M183.93 181.622L183.929 181.622M183.93 181.622L183.929 181.622M192.634 187.198L192.535 187.187L192.634 187.198C192.634 187.198 192.634 187.198 192.634 187.198ZM192.634 187.198C192.609 187.422 192.407 187.582 192.183 187.557M192.183 187.557C192.064 187.544 191.946 187.529 191.83 187.513M192.183 187.557L191.83 187.513M183.929 181.622C183.723 181.71 183.625 181.948 183.712 182.155M183.929 181.622L183.712 182.155M183.712 182.155C183.796 182.355 185.685 186.669 191.83 187.513M183.712 182.155C183.713 182.156 183.713 182.156 183.713 182.156L183.805 182.117L191.83 187.513" fill="black" stroke="black" stroke-width="0.2"/>
<path d="M134.039 210.676C133.941 210.663 133.851 210.602 133.804 210.506C133.73 210.353 133.794 210.169 133.947 210.095C136.739 208.741 137.004 206.089 137.014 205.977C137.029 205.808 137.178 205.683 137.347 205.697C137.514 205.722 137.641 205.86 137.627 206.029C137.616 206.156 137.331 209.138 134.215 210.648C134.159 210.675 134.097 210.684 134.039 210.676Z" fill="black"/>
<path d="M134.03 213.004C133.907 212.987 133.8 212.894 133.772 212.765C133.735 212.599 133.841 212.435 134.006 212.399C136.836 211.776 137.861 208.845 137.871 208.815C137.926 208.654 138.103 208.565 138.261 208.623C138.422 208.677 138.509 208.851 138.454 209.012C138.409 209.146 137.313 212.301 134.138 212.999C134.102 213.007 134.066 213.008 134.03 213.004Z" fill="black"/>
<path d="M101.875 167.911C101.822 167.904 101.77 167.883 101.725 167.846C100.39 166.774 96.2928 165.595 96.252 165.583C96.0885 165.537 95.9937 165.366 96.0405 165.203C96.0873 165.039 96.2587 164.948 96.4205 164.992C96.5937 165.041 100.68 166.218 102.11 167.367C102.242 167.473 102.264 167.667 102.157 167.799C102.087 167.886 101.978 167.925 101.875 167.911Z" fill="black"/>
<path d="M100.883 169.483C100.832 169.476 100.783 169.456 100.74 169.424C99.5413 168.525 95.4614 167.654 95.4199 167.645C95.2538 167.609 95.1477 167.446 95.1826 167.28C95.2182 167.114 95.3867 167.009 95.5476 167.043C95.7208 167.08 99.8031 167.952 101.109 168.932C101.245 169.034 101.273 169.226 101.171 169.363C101.101 169.455 100.989 169.497 100.883 169.483Z" fill="black"/>
<path d="M100.417 171.748C100.404 171.746 100.392 171.744 100.379 171.74C97.9794 171.099 95.1409 169.653 95.0213 169.591C94.8699 169.514 94.81 169.329 94.8876 169.178C94.9655 169.026 95.1502 168.966 95.3014 169.044C95.3302 169.058 98.2017 170.522 100.538 171.145C100.702 171.189 100.8 171.358 100.756 171.522C100.715 171.674 100.568 171.768 100.417 171.748Z" fill="black"/>
<path d="M73.6454 176.764C73.5084 176.746 73.3968 176.636 73.3814 176.493C73.1562 174.424 76.0677 172.746 76.1922 172.676C76.3408 172.592 76.5284 172.643 76.6112 172.791C76.6953 172.939 76.644 173.127 76.4959 173.211C76.469 173.226 73.812 174.759 73.9936 176.427C74.0117 176.595 73.8903 176.747 73.7209 176.766C73.6952 176.768 73.6698 176.768 73.6454 176.764Z" fill="black"/>
<path d="M76.1999 178.513C76.0695 178.495 75.9601 178.394 75.9384 178.258C75.5663 175.981 78.938 174.512 79.0824 174.45C79.2385 174.382 79.4192 174.457 79.4858 174.612C79.5523 174.768 79.4803 174.949 79.3241 175.016C79.2931 175.029 76.251 176.356 76.5451 178.158C76.5728 178.326 76.459 178.484 76.2916 178.511C76.2598 178.517 76.2295 178.517 76.1999 178.513Z" fill="black"/>
<path d="M82.3003 174.713C82.185 174.639 82.0698 174.562 81.9543 174.482C81.8156 174.384 81.7814 174.192 81.8786 174.053C81.9766 173.914 82.1599 173.893 82.3076 173.977C86.1571 176.68 90.5583 175.414 90.602 175.401C90.7652 175.352 90.936 175.444 90.9853 175.607C91.0343 175.769 90.9423 175.941 90.7795 175.99C90.5948 176.046 86.3224 177.291 82.3003 174.713Z" fill="black" stroke="black" stroke-width="0.3"/>
<path d="M130.687 155.254L130.688 155.255C130.745 155.296 130.81 155.322 130.877 155.331C131.018 155.351 131.166 155.295 131.258 155.173L131.258 155.172C131.393 154.992 131.357 154.737 131.177 154.601L131.176 154.601L131.176 154.6L131.174 154.6L131.171 154.597L131.158 154.587L131.112 154.553C131.073 154.523 131.017 154.48 130.946 154.426C130.804 154.317 130.603 154.163 130.36 153.973C129.875 153.595 129.226 153.078 128.554 152.517C127.882 151.955 127.188 151.349 126.614 150.792C126.037 150.232 125.592 149.73 125.405 149.375L125.405 149.375C125.358 149.285 125.345 149.145 125.378 148.947C125.411 148.752 125.487 148.516 125.602 148.245C125.832 147.703 126.208 147.038 126.671 146.319C127.595 144.883 128.857 143.246 129.951 141.975L129.951 141.975C130.098 141.805 130.08 141.547 129.908 141.4L129.908 141.4C129.74 141.256 129.482 141.272 129.334 141.443L129.333 141.443C128.869 141.983 127.488 143.621 126.332 145.333C125.754 146.188 125.23 147.067 124.905 147.838C124.743 148.223 124.628 148.586 124.583 148.908C124.538 149.23 124.561 149.521 124.683 149.754L124.683 149.754C124.902 150.171 125.378 150.713 125.962 151.288C126.548 151.866 127.251 152.486 127.933 153.06C129.285 154.198 130.559 155.157 130.684 155.251L130.687 155.254Z" fill="black" stroke="black" stroke-width="0.2"/>
<path d="M150.525 120.314C151.073 119.692 151.744 119.248 152.492 119.014C153.239 118.781 154.044 118.762 154.852 118.961C155.659 119.159 156.448 119.569 157.165 120.163C157.881 120.756 158.507 121.518 159 122.396" stroke="black" stroke-width="0.99" stroke-linecap="round" stroke-linejoin="round"/>
<path d="M138.869 116.282C139.494 115.839 140.199 115.563 140.936 115.471C141.673 115.379 142.423 115.475 143.135 115.752C143.847 116.029 144.503 116.479 145.057 117.073C145.612 117.666 146.051 118.388 146.345 119.188" stroke="black" stroke-width="0.99" stroke-linecap="round" stroke-linejoin="round"/>
<path d="M152.367 110.868L147.352 123.974C146.942 124.476 146.507 124.945 146.05 125.38C146.05 125.38 145.545 125.872 144.356 126.872C144.813 127.286 145.327 127.608 145.883 127.829C146.498 128.072 147.158 128.187 147.838 128.17" stroke="black" stroke-linecap="round" stroke-linejoin="round"/>
<path d="M78.1299 197.856C98.9422 198.03 124.012 200.664 124.012 200.664" stroke="black" stroke-width="0.56"/>
</g>
<path d="M142.363 203.893L157.68 207.551L172.998 211.209L185.17 215.283" stroke="black"/>
</g>
<path d="M198.71 52.4436L105.478 35.3896" stroke="#231F20" stroke-width="1.5" stroke-miterlimit="10" stroke-linecap="round" stroke-linejoin="round"/>
<path d="M35.4742 159.121L51.6875 70.4834" stroke="#231F20" stroke-width="1.5" stroke-miterlimit="10" stroke-linecap="round" stroke-linejoin="round"/>
<path d="M166.678 228.021L73.2881 210.938" stroke="#231F20" stroke-width="1.5" stroke-miterlimit="10" stroke-linecap="round" stroke-linejoin="round"/>
<path d="M220.377 192.943L236.591 104.306" stroke="#231F20" stroke-width="1.5" stroke-miterlimit="10" stroke-linecap="round" stroke-linejoin="round"/>
<path d="M211.532 69.9732L87.2734 47.2441" stroke="#231F20" stroke-width="1.5" stroke-miterlimit="10" stroke-linecap="round" stroke-linejoin="round"/>
<path d="M184.88 216.129L60.5039 193.379" stroke="#231F20" stroke-width="1.5" stroke-miterlimit="10" stroke-linecap="round" stroke-linejoin="round"/>
<path d="M202.166 204.838L223.761 86.7793" stroke="#231F20" stroke-width="1.5" stroke-miterlimit="10" stroke-linecap="round" stroke-linejoin="round"/>
<path d="M48.2575 176.686L69.8525 58.627" stroke="#231F20" stroke-width="1.5" stroke-miterlimit="10" stroke-linecap="round" stroke-linejoin="round"/>
<path d="M261.115 102.67L209.066 31.3398L191.641 42.7214L243.69 114.052L261.115 102.67Z" stroke="#231F20" stroke-width="1.5" stroke-miterlimit="10" stroke-linecap="round" stroke-linejoin="round"/>
<path d="M41.5945 77.0856L115.523 28.7988L103.255 11.9857L29.3262 60.2724L41.5945 77.0856Z" stroke="#231F20" stroke-width="1.5" stroke-miterlimit="10" stroke-linecap="round" stroke-linejoin="round"/>
<path d="M230.456 186.377L156.527 234.664L168.796 251.477L242.725 203.19L230.456 186.377Z" stroke="#231F20" stroke-width="1.5" stroke-miterlimit="10" stroke-linecap="round" stroke-linejoin="round"/>
<path d="M10.9444 160.79L62.9932 232.12L80.4188 220.739L28.37 149.408L10.9444 160.79Z" stroke="#231F20" stroke-width="1.5" stroke-miterlimit="10" stroke-linecap="round" stroke-linejoin="round"/>
<defs>
<clipPath id="clip0_244_22236">
<rect x="68.3018" y="66.8672" width="156.1" height="130.2" rx="3.5" transform="rotate(7.82023 68.3018 66.8672)" fill="white"/>
</clipPath>
<clipPath id="clip1_244_22236">
<rect width="143.36" height="143.36" fill="white" transform="translate(70.7285 72.1006) rotate(7.82023)"/>
</clipPath>
</defs>
</svg>
