<svg width="24" height="27" viewBox="0 0 24 27" fill="none" xmlns="http://www.w3.org/2000/svg">
<path d="M22 2.39062H19V1.39062C19 1.12541 18.8946 0.871055 18.7071 0.683518C18.5196 0.495982 18.2652 0.390625 18 0.390625C17.7348 0.390625 17.4804 0.495982 17.2929 0.683518C17.1054 0.871055 17 1.12541 17 1.39062V2.39062H7V1.39062C7 1.12541 6.89464 0.871055 6.70711 0.683518C6.51957 0.495982 6.26522 0.390625 6 0.390625C5.73478 0.390625 5.48043 0.495982 5.29289 0.683518C5.10536 0.871055 5 1.12541 5 1.39062V2.39062H2C1.46957 2.39062 0.960859 2.60134 0.585786 2.97641C0.210714 3.35148 0 3.86019 0 4.39062V24.3906C0 24.9211 0.210714 25.4298 0.585786 25.8048C0.960859 26.1799 1.46957 26.3906 2 26.3906H22C22.5304 26.3906 23.0391 26.1799 23.4142 25.8048C23.7893 25.4298 24 24.9211 24 24.3906V4.39062C24 3.86019 23.7893 3.35148 23.4142 2.97641C23.0391 2.60134 22.5304 2.39062 22 2.39062ZM5 4.39062V5.39062C5 5.65584 5.10536 5.9102 5.29289 6.09773C5.48043 6.28527 5.73478 6.39062 6 6.39062C6.26522 6.39062 6.51957 6.28527 6.70711 6.09773C6.89464 5.9102 7 5.65584 7 5.39062V4.39062H17V5.39062C17 5.65584 17.1054 5.9102 17.2929 6.09773C17.4804 6.28527 17.7348 6.39062 18 6.39062C18.2652 6.39062 18.5196 6.28527 18.7071 6.09773C18.8946 5.9102 19 5.65584 19 5.39062V4.39062H22V8.39062H2V4.39062H5ZM22 24.3906H2V10.3906H22V24.3906Z" fill="#3A343C"/>
</svg>
