<svg width="27" height="27" viewBox="0 0 27 27" fill="none" xmlns="http://www.w3.org/2000/svg">
<path d="M13.3359 0.695312C10.7648 0.695313 8.25137 1.45775 6.11353 2.88621C3.97569 4.31467 2.30945 6.34499 1.32551 8.72043C0.34157 11.0959 0.0841268 13.7097 0.585735 16.2315C1.08734 18.7532 2.32547 21.0696 4.14356 22.8877C5.96164 24.7058 8.27802 25.9439 10.7998 26.4455C13.3215 26.9471 15.9354 26.6897 18.3108 25.7057C20.6863 24.7218 22.7166 23.0556 24.145 20.9177C25.5735 18.7799 26.3359 16.2665 26.3359 13.6953C26.3323 10.2486 24.9615 6.94413 22.5243 4.50694C20.0871 2.06976 16.7826 0.698952 13.3359 0.695312ZM13.3359 24.6953C11.1603 24.6953 9.03361 24.0502 7.22467 22.8415C5.41573 21.6328 4.00583 19.9148 3.17327 17.9048C2.3407 15.8948 2.12287 13.6831 2.54731 11.5493C2.97174 9.41553 4.01939 7.45552 5.55777 5.91714C7.09615 4.37876 9.05616 3.33111 11.1899 2.90667C13.3237 2.48224 15.5355 2.70007 17.5455 3.53264C19.5554 4.3652 21.2734 5.7751 22.4821 7.58404C23.6908 9.39298 24.3359 11.5197 24.3359 13.6953C24.3326 16.6117 23.1726 19.4076 21.1105 21.4698C19.0483 23.532 16.2523 24.692 13.3359 24.6953ZM21.3359 13.6953C21.3359 13.9605 21.2306 14.2149 21.0431 14.4024C20.8555 14.59 20.6012 14.6953 20.3359 14.6953H13.3359C13.0707 14.6953 12.8164 14.59 12.6288 14.4024C12.4413 14.2149 12.3359 13.9605 12.3359 13.6953V6.69531C12.3359 6.4301 12.4413 6.17574 12.6288 5.98821C12.8164 5.80067 13.0707 5.69531 13.3359 5.69531C13.6012 5.69531 13.8555 5.80067 14.0431 5.98821C14.2306 6.17574 14.3359 6.4301 14.3359 6.69531V12.6953H20.3359C20.6012 12.6953 20.8555 12.8007 21.0431 12.9882C21.2306 13.1757 21.3359 13.4301 21.3359 13.6953Z" fill="#3A343C"/>
</svg>
