<svg width="80" height="80" viewBox="0 0 80 80" fill="none" xmlns="http://www.w3.org/2000/svg">
<circle cx="40" cy="40" r="39.5" stroke="#1D1A1E"/>
<path d="M51 28H35C34.7348 28 34.4804 28.1054 34.2929 28.2929C34.1054 28.4804 34 28.7348 34 29V34H29C28.7348 34 28.4804 34.1054 28.2929 34.2929C28.1054 34.4804 28 34.7348 28 35V51C28 51.2652 28.1054 51.5196 28.2929 51.7071C28.4804 51.8946 28.7348 52 29 52H45C45.2652 52 45.5196 51.8946 45.7071 51.7071C45.8946 51.5196 46 51.2652 46 51V46H51C51.2652 46 51.5196 45.8946 51.7071 45.7071C51.8946 45.5196 52 45.2652 52 45V29C52 28.7348 51.8946 28.4804 51.7071 28.2929C51.5196 28.1054 51.2652 28 51 28ZM44 50H30V36H44V50ZM50 44H46V35C46 34.7348 45.8946 34.4804 45.7071 34.2929C45.5196 34.1054 45.2652 34 45 34H36V30H50V44Z" fill="#3A343C"/>
</svg>
