<svg width="80" height="80" viewBox="0 0 80 80" fill="none" xmlns="http://www.w3.org/2000/svg">
<circle cx="40" cy="40" r="39.5" stroke="#1D1A1E"/>
<path d="M52 30H28C27.7348 30 27.4804 30.1054 27.2929 30.2929C27.1054 30.4804 27 30.7348 27 31V48C27 48.5304 27.2107 49.0391 27.5858 49.4142C27.9609 49.7893 28.4696 50 29 50H51C51.5304 50 52.0391 49.7893 52.4142 49.4142C52.7893 49.0391 53 48.5304 53 48V31C53 30.7348 52.8946 30.4804 52.7071 30.2929C52.5196 30.1054 52.2652 30 52 30ZM40 40.6437L30.5712 32H49.4287L40 40.6437ZM36.3387 40L29 46.7262V33.2738L36.3387 40ZM37.8188 41.3563L39.3188 42.7375C39.5032 42.9069 39.7446 43.0008 39.995 43.0008C40.2454 43.0008 40.4868 42.9069 40.6712 42.7375L42.1712 41.3563L49.4212 48H30.5712L37.8188 41.3563ZM43.6612 40L51 33.2725V46.7275L43.6612 40Z" fill="#3A343C"/>
</svg>
