<svg width="32" height="33" viewBox="0 0 32 33" fill="none" xmlns="http://www.w3.org/2000/svg">
<path d="M29.25 10.7103C28.9684 10.3912 28.6222 10.1357 28.2342 9.96069C27.8463 9.78569 27.4256 9.69523 27 9.69531H20V7.69531C20 6.36923 19.4732 5.09746 18.5355 4.15978C17.5979 3.2221 16.3261 2.69531 15 2.69531C14.8142 2.69518 14.6321 2.7468 14.474 2.84439C14.3159 2.94198 14.1881 3.08167 14.105 3.24781L9.3825 12.6953H4C3.46957 12.6953 2.96086 12.906 2.58579 13.2811C2.21071 13.6562 2 14.1649 2 14.6953V25.6953C2 26.2257 2.21071 26.7345 2.58579 27.1095C2.96086 27.4846 3.46957 27.6953 4 27.6953H25.5C26.2309 27.6956 26.9367 27.429 27.485 26.9457C28.0332 26.4623 28.3861 25.7955 28.4775 25.0703L29.9775 13.0703C30.0307 12.6478 29.9933 12.2189 29.8679 11.812C29.7424 11.4051 29.5318 11.0295 29.25 10.7103ZM4 14.6953H9V25.6953H4V14.6953ZM27.9925 12.8203L26.4925 24.8203C26.462 25.062 26.3444 25.2843 26.1617 25.4454C25.9789 25.6065 25.7436 25.6954 25.5 25.6953H11V13.9316L15.5887 4.75281C16.2689 4.88893 16.8808 5.25651 17.3204 5.79299C17.76 6.32947 18.0002 7.00171 18 7.69531V10.6953C18 10.9605 18.1054 11.2149 18.2929 11.4024C18.4804 11.59 18.7348 11.6953 19 11.6953H27C27.1419 11.6953 27.2822 11.7254 27.4115 11.7838C27.5409 11.8421 27.6563 11.9273 27.7502 12.0337C27.8441 12.1402 27.9143 12.2653 27.956 12.4009C27.9978 12.5366 28.0102 12.6795 27.9925 12.8203Z" fill="#3A343C"/>
</svg>
