<svg width="24" height="25" viewBox="0 0 24 25" fill="none" xmlns="http://www.w3.org/2000/svg">
<path d="M4.50071 6.5C4.50071 6.30109 4.57973 6.11032 4.72038 5.96967C4.86103 5.82902 5.0518 5.75 5.25071 5.75H6.75071V4.25C6.75071 4.05109 6.82973 3.86032 6.97038 3.71967C7.11103 3.57902 7.3018 3.5 7.50071 3.5C7.69962 3.5 7.89039 3.57902 8.03104 3.71967C8.17169 3.86032 8.25071 4.05109 8.25071 4.25V5.75H9.75071C9.94962 5.75 10.1404 5.82902 10.281 5.96967C10.4217 6.11032 10.5007 6.30109 10.5007 6.5C10.5007 6.69891 10.4217 6.88968 10.281 7.03033C10.1404 7.17098 9.94962 7.25 9.75071 7.25H8.25071V8.75C8.25071 8.94891 8.17169 9.13968 8.03104 9.28033C7.89039 9.42098 7.69962 9.5 7.50071 9.5C7.3018 9.5 7.11103 9.42098 6.97038 9.28033C6.82973 9.13968 6.75071 8.94891 6.75071 8.75V7.25H5.25071C5.0518 7.25 4.86103 7.17098 4.72038 7.03033C4.57973 6.88968 4.50071 6.69891 4.50071 6.5ZM17.2507 18.5H16.5007V17.75C16.5007 17.5511 16.4217 17.3603 16.281 17.2197C16.1404 17.079 15.9496 17 15.7507 17C15.5518 17 15.361 17.079 15.2204 17.2197C15.0797 17.3603 15.0007 17.5511 15.0007 17.75V18.5H14.2507C14.0518 18.5 13.861 18.579 13.7204 18.7197C13.5797 18.8603 13.5007 19.0511 13.5007 19.25C13.5007 19.4489 13.5797 19.6397 13.7204 19.7803C13.861 19.921 14.0518 20 14.2507 20H15.0007V20.75C15.0007 20.9489 15.0797 21.1397 15.2204 21.2803C15.361 21.421 15.5518 21.5 15.7507 21.5C15.9496 21.5 16.1404 21.421 16.281 21.2803C16.4217 21.1397 16.5007 20.9489 16.5007 20.75V20H17.2507C17.4496 20 17.6404 19.921 17.781 19.7803C17.9217 19.6397 18.0007 19.4489 18.0007 19.25C18.0007 19.0511 17.9217 18.8603 17.781 18.7197C17.6404 18.579 17.4496 18.5 17.2507 18.5ZM22.5007 14H21.0007V12.5C21.0007 12.3011 20.9217 12.1103 20.781 11.9697C20.6404 11.829 20.4496 11.75 20.2507 11.75C20.0518 11.75 19.861 11.829 19.7204 11.9697C19.5797 12.1103 19.5007 12.3011 19.5007 12.5V14H18.0007C17.8018 14 17.611 14.079 17.4704 14.2197C17.3297 14.3603 17.2507 14.5511 17.2507 14.75C17.2507 14.9489 17.3297 15.1397 17.4704 15.2803C17.611 15.421 17.8018 15.5 18.0007 15.5H19.5007V17C19.5007 17.1989 19.5797 17.3897 19.7204 17.5303C19.861 17.671 20.0518 17.75 20.2507 17.75C20.4496 17.75 20.6404 17.671 20.781 17.5303C20.9217 17.3897 21.0007 17.1989 21.0007 17V15.5H22.5007C22.6996 15.5 22.8904 15.421 23.031 15.2803C23.1717 15.1397 23.2507 14.9489 23.2507 14.75C23.2507 14.5511 23.1717 14.3603 23.031 14.2197C22.8904 14.079 22.6996 14 22.5007 14ZM20.561 8L7.50071 21.0603C7.21943 21.3414 6.83805 21.4993 6.4404 21.4993C6.04274 21.4993 5.66136 21.3414 5.38009 21.0603L3.43946 19.1216C3.30014 18.9823 3.18962 18.8169 3.11421 18.6349C3.03881 18.4529 3 18.2578 3 18.0608C3 17.8638 3.03881 17.6687 3.11421 17.4867C3.18962 17.3047 3.30014 17.1393 3.43946 17L16.5007 3.93969C16.64 3.80036 16.8054 3.68984 16.9874 3.61444C17.1694 3.53904 17.3645 3.50023 17.5615 3.50023C17.7585 3.50023 17.9536 3.53904 18.1356 3.61444C18.3176 3.68984 18.483 3.80036 18.6223 3.93969L20.561 5.87844C20.7003 6.01773 20.8109 6.1831 20.8863 6.36511C20.9617 6.54713 21.0005 6.74221 21.0005 6.93922C21.0005 7.13623 20.9617 7.33131 20.8863 7.51332C20.8109 7.69533 20.7003 7.86071 20.561 8ZM15.4395 11L13.5007 9.06031L4.50071 18.0603L6.43946 20L15.4395 11ZM19.5007 6.93969L17.561 5L14.561 8L16.5007 9.93969L19.5007 6.93969Z" fill="white"/>
</svg>
