<svg width="25" height="24" viewBox="0 0 25 24" fill="none" xmlns="http://www.w3.org/2000/svg">
<path d="M12.3594 16.5C13.5525 16.4988 14.6963 16.0243 15.54 15.1806C16.3836 14.337 16.8581 13.1931 16.8594 12V6C16.8594 4.80653 16.3853 3.66193 15.5414 2.81802C14.6974 1.97411 13.5528 1.5 12.3594 1.5C11.1659 1.5 10.0213 1.97411 9.17739 2.81802C8.33348 3.66193 7.85938 4.80653 7.85938 6V12C7.86062 13.1931 8.33512 14.337 9.17877 15.1806C10.0224 16.0243 11.1663 16.4988 12.3594 16.5ZM9.35938 6C9.35938 5.20435 9.67545 4.44129 10.2381 3.87868C10.8007 3.31607 11.5637 3 12.3594 3C13.155 3 13.9181 3.31607 14.4807 3.87868C15.0433 4.44129 15.3594 5.20435 15.3594 6V12C15.3594 12.7956 15.0433 13.5587 14.4807 14.1213C13.9181 14.6839 13.155 15 12.3594 15C11.5637 15 10.8007 14.6839 10.2381 14.1213C9.67545 13.5587 9.35938 12.7956 9.35938 12V6ZM13.1094 19.4625V21.75C13.1094 21.9489 13.0304 22.1397 12.8897 22.2803C12.7491 22.421 12.5583 22.5 12.3594 22.5C12.1605 22.5 11.9697 22.421 11.829 22.2803C11.6884 22.1397 11.6094 21.9489 11.6094 21.75V19.4625C9.76029 19.2743 8.04665 18.4072 6.79985 17.0288C5.55305 15.6504 4.86166 13.8586 4.85938 12C4.85938 11.8011 4.93839 11.6103 5.07905 11.4697C5.2197 11.329 5.41046 11.25 5.60938 11.25C5.80829 11.25 5.99905 11.329 6.1397 11.4697C6.28036 11.6103 6.35938 11.8011 6.35938 12C6.35938 13.5913 6.99152 15.1174 8.11673 16.2426C9.24195 17.3679 10.7681 18 12.3594 18C13.9507 18 15.4768 17.3679 16.602 16.2426C17.7272 15.1174 18.3594 13.5913 18.3594 12C18.3594 11.8011 18.4384 11.6103 18.579 11.4697C18.7197 11.329 18.9105 11.25 19.1094 11.25C19.3083 11.25 19.4991 11.329 19.6397 11.4697C19.7804 11.6103 19.8594 11.8011 19.8594 12C19.8571 13.8586 19.1657 15.6504 17.9189 17.0288C16.6721 18.4072 14.9585 19.2743 13.1094 19.4625Z" fill="#1D1A1E"/>
</svg>
