<svg width="25" height="24" viewBox="0 0 25 24" fill="none" xmlns="http://www.w3.org/2000/svg">
<path d="M18.8008 10H14.8008V6C14.8008 5.46957 14.5901 4.96086 14.215 4.58579C13.8399 4.21071 13.3312 4 12.8008 4C12.2703 4 11.7616 4.21071 11.3866 4.58579C11.0115 4.96086 10.8008 5.46957 10.8008 6L10.8718 10H6.80078C6.27035 10 5.76164 10.2107 5.38657 10.5858C5.01149 10.9609 4.80078 11.4696 4.80078 12C4.80078 12.5304 5.01149 13.0391 5.38657 13.4142C5.76164 13.7893 6.27035 14 6.80078 14L10.8718 13.929L10.8008 18C10.8008 18.5304 11.0115 19.0391 11.3866 19.4142C11.7616 19.7893 12.2703 20 12.8008 20C13.3312 20 13.8399 19.7893 14.215 19.4142C14.5901 19.0391 14.8008 18.5304 14.8008 18V13.929L18.8008 14C19.3312 14 19.8399 13.7893 20.215 13.4142C20.5901 13.0391 20.8008 12.5304 20.8008 12C20.8008 11.4696 20.5901 10.9609 20.215 10.5858C19.8399 10.2107 19.3312 10 18.8008 10Z" fill="black"/>
</svg>
