<svg width="21" height="22" viewBox="0 0 21 22" fill="none" xmlns="http://www.w3.org/2000/svg">
<path d="M18.3471 9.89993L5.11705 2.34859C4.89404 2.22349 4.63825 2.16921 4.38365 2.19294C4.12906 2.21668 3.88771 2.31731 3.69166 2.48148C3.49562 2.64564 3.35417 2.86557 3.28609 3.11204C3.21801 3.35851 3.22654 3.61987 3.31053 3.86138L5.75178 10.9859C5.75146 10.9885 5.75146 10.9911 5.75178 10.9938C5.75134 10.9964 5.75134 10.999 5.75178 11.0016L3.31053 18.1419C3.24326 18.3319 3.22255 18.5352 3.25014 18.7349C3.27772 18.9345 3.35279 19.1246 3.46905 19.2893C3.58531 19.4539 3.73936 19.5882 3.91827 19.681C4.09719 19.7738 4.29575 19.8223 4.49729 19.8224C4.71595 19.8219 4.93078 19.7649 5.12099 19.6571L18.3439 12.0931C18.539 11.9839 18.7014 11.8247 18.8146 11.6319C18.9278 11.4391 18.9877 11.2197 18.9881 10.9961C18.9885 10.7725 18.9294 10.5529 18.8169 10.3597C18.7044 10.1665 18.5425 10.0067 18.3478 9.89678L18.3471 9.89993ZM4.49729 18.5624V18.5553L6.87082 11.6324H11.4273C11.5944 11.6324 11.7546 11.5661 11.8728 11.4479C11.9909 11.3298 12.0573 11.1695 12.0573 11.0024C12.0573 10.8353 11.9909 10.6751 11.8728 10.557C11.7546 10.4388 11.5944 10.3724 11.4273 10.3724H6.87712L4.50202 3.45188L4.49729 3.44243L17.7273 10.989L4.49729 18.5624Z" fill="#D3CED5"/>
</svg>
