<svg width="32" height="33" viewBox="0 0 32 33" fill="none" xmlns="http://www.w3.org/2000/svg">
<path d="M27.9841 14.8084L6.98413 2.82211C6.63015 2.62354 6.22413 2.53737 5.82 2.57504C5.41588 2.61272 5.03279 2.77246 4.72161 3.03304C4.41043 3.29362 4.1859 3.64271 4.07784 4.03393C3.96978 4.42516 3.98331 4.84 4.11663 5.22336L7.99163 16.5321C7.99113 16.5363 7.99113 16.5405 7.99163 16.5446C7.99093 16.5487 7.99093 16.553 7.99163 16.5571L4.11663 27.8909C4.00986 28.1924 3.97699 28.5152 4.02077 28.8321C4.06456 29.149 4.18372 29.4507 4.36825 29.7121C4.55279 29.9734 4.79731 30.1866 5.08131 30.3339C5.3653 30.4811 5.68048 30.5581 6.00038 30.5584C6.34747 30.5575 6.68845 30.4671 6.99038 30.2959L27.9791 18.2896C28.2887 18.1162 28.5466 17.8635 28.7263 17.5575C28.906 17.2515 29.0011 16.9032 29.0017 16.5483C29.0023 16.1934 28.9085 15.8448 28.7299 15.5381C28.5513 15.2315 28.2944 14.9779 27.9854 14.8034L27.9841 14.8084ZM6.00038 28.5584V28.5471L9.76788 17.5584H17.0004C17.2656 17.5584 17.52 17.453 17.7075 17.2655C17.895 17.0779 18.0004 16.8236 18.0004 16.5584C18.0004 16.2931 17.895 16.0388 17.7075 15.8512C17.52 15.6637 17.2656 15.5584 17.0004 15.5584H9.77788L6.00788 4.57336L6.00038 4.55836L27.0004 16.5371L6.00038 28.5584Z" fill="#D3CED5"/>
</svg>
