<svg width="25" height="24" viewBox="0 0 25 24" fill="none" xmlns="http://www.w3.org/2000/svg">
<path d="M19.8545 11.4697C19.9242 11.5393 19.9796 11.622 20.0173 11.7131C20.055 11.8041 20.0745 11.9017 20.0745 12.0003C20.0745 12.0989 20.055 12.1964 20.0173 12.2875C19.9796 12.3785 19.9242 12.4613 19.8545 12.5309L12.1623 20.2184C11.1776 21.203 9.84203 21.7561 8.44949 21.756C7.05694 21.756 5.72147 21.2027 4.73685 20.2179C3.75223 19.2332 3.19913 17.8977 3.19922 16.5051C3.19931 15.1126 3.75258 13.7771 4.73732 12.7925L14.0429 3.34998C14.746 2.6462 15.6998 2.25053 16.6945 2.25C17.6893 2.24947 18.6435 2.64414 19.3473 3.34717C20.0511 4.0502 20.4468 5.00401 20.4473 5.99877C20.4478 6.99353 20.0532 7.94776 19.3501 8.65154L10.0426 18.094C9.61994 18.5167 9.04665 18.7542 8.44888 18.7542C7.85111 18.7542 7.27782 18.5167 6.85513 18.094C6.43244 17.6714 6.19498 17.0981 6.19498 16.5003C6.19498 15.9025 6.43244 15.3292 6.85513 14.9065L14.6645 6.97342C14.7329 6.90044 14.8152 6.84188 14.9066 6.8012C14.998 6.76051 15.0966 6.73851 15.1966 6.7365C15.2966 6.73448 15.396 6.7525 15.4889 6.78947C15.5819 6.82645 15.6665 6.88165 15.7378 6.95181C15.8091 7.02198 15.8656 7.10569 15.9041 7.19804C15.9425 7.29038 15.9621 7.38948 15.9617 7.4895C15.9613 7.58953 15.9408 7.68846 15.9016 7.78048C15.8624 7.87249 15.8051 7.95573 15.7333 8.02529L7.92294 15.9669C7.85301 16.0362 7.79743 16.1187 7.75938 16.2096C7.72132 16.3004 7.70153 16.3979 7.70114 16.4964C7.70075 16.5949 7.71976 16.6925 7.75709 16.7836C7.79443 16.8748 7.84935 16.9577 7.91872 17.0276C7.9881 17.0976 8.07057 17.1531 8.16142 17.1912C8.25228 17.2293 8.34974 17.249 8.44824 17.2494C8.54674 17.2498 8.64436 17.2308 8.73551 17.1935C8.82667 17.1562 8.90958 17.1012 8.97951 17.0319L18.2861 7.59404C18.7088 7.17222 18.9466 6.59977 18.9472 6.00261C18.9478 5.40545 18.7112 4.83251 18.2893 4.40982C17.8675 3.98713 17.2951 3.74932 16.6979 3.74871C16.1008 3.74809 15.5278 3.98472 15.1051 4.40654L5.80138 13.8453C5.45284 14.1933 5.17626 14.6065 4.98742 15.0614C4.79858 15.5162 4.70119 16.0039 4.7008 16.4964C4.7004 16.9889 4.79702 17.4767 4.98514 17.9318C5.17325 18.387 5.44918 18.8007 5.79716 19.1492C6.14514 19.4977 6.55837 19.7743 7.01324 19.9632C7.46811 20.152 7.95573 20.2494 8.44824 20.2498C8.94075 20.2502 9.42852 20.1536 9.88369 19.9654C10.3389 19.7773 10.7525 19.5014 11.1011 19.1534L18.7942 11.4659C18.9353 11.3259 19.1263 11.2476 19.3251 11.2483C19.524 11.249 19.7144 11.3286 19.8545 11.4697Z" fill="#1D1A1E"/>
</svg>
