<svg width="80" height="80" viewBox="0 0 80 80" fill="none" xmlns="http://www.w3.org/2000/svg">
<circle cx="40" cy="40" r="39.5" stroke="#1D1A1E"/>
<path d="M52 43C52 43.2652 51.8946 43.5196 51.7071 43.7071C51.5196 43.8946 51.2652 44 51 44H48V46H50C50.2652 46 50.5196 46.1054 50.7071 46.2929C50.8946 46.4804 51 46.7348 51 47C51 47.2652 50.8946 47.5196 50.7071 47.7071C50.5196 47.8946 50.2652 48 50 48H48V50C48 50.2652 47.8946 50.5196 47.7071 50.7071C47.5196 50.8946 47.2652 51 47 51C46.7348 51 46.4804 50.8946 46.2929 50.7071C46.1054 50.5196 46 50.2652 46 50V43C46 42.7348 46.1054 42.4804 46.2929 42.2929C46.4804 42.1054 46.7348 42 47 42H51C51.2652 42 51.5196 42.1054 51.7071 42.2929C51.8946 42.4804 52 42.7348 52 43ZM35.5 45.5C35.5 46.4283 35.1313 47.3185 34.4749 47.9749C33.8185 48.6313 32.9283 49 32 49H31V50C31 50.2652 30.8946 50.5196 30.7071 50.7071C30.5196 50.8946 30.2652 51 30 51C29.7348 51 29.4804 50.8946 29.2929 50.7071C29.1054 50.5196 29 50.2652 29 50V43C29 42.7348 29.1054 42.4804 29.2929 42.2929C29.4804 42.1054 29.7348 42 30 42H32C32.9283 42 33.8185 42.3687 34.4749 43.0251C35.1313 43.6815 35.5 44.5717 35.5 45.5ZM33.5 45.5C33.5 45.1022 33.342 44.7206 33.0607 44.4393C32.7794 44.158 32.3978 44 32 44H31V47H32C32.3978 47 32.7794 46.842 33.0607 46.5607C33.342 46.2794 33.5 45.8978 33.5 45.5ZM44.5 46.5C44.5 47.6935 44.0259 48.8381 43.182 49.682C42.3381 50.5259 41.1935 51 40 51H38C37.7348 51 37.4804 50.8946 37.2929 50.7071C37.1054 50.5196 37 50.2652 37 50V43C37 42.7348 37.1054 42.4804 37.2929 42.2929C37.4804 42.1054 37.7348 42 38 42H40C41.1935 42 42.3381 42.4741 43.182 43.318C44.0259 44.1619 44.5 45.3065 44.5 46.5ZM42.5 46.5C42.5 45.837 42.2366 45.2011 41.7678 44.7322C41.2989 44.2634 40.663 44 40 44H39V49H40C40.663 49 41.2989 48.7366 41.7678 48.2678C42.2366 47.7989 42.5 47.163 42.5 46.5ZM29 38V29C29 28.4696 29.2107 27.9609 29.5858 27.5858C29.9609 27.2107 30.4696 27 31 27H43C43.1314 26.9999 43.2615 27.0257 43.3829 27.0759C43.5042 27.1261 43.6146 27.1997 43.7075 27.2925L50.7075 34.2925C50.8003 34.3854 50.8739 34.4958 50.9241 34.6172C50.9743 34.7385 51.0001 34.8686 51 35V38C51 38.2652 50.8946 38.5196 50.7071 38.7071C50.5196 38.8946 50.2652 39 50 39C49.7348 39 49.4804 38.8946 49.2929 38.7071C49.1054 38.5196 49 38.2652 49 38V36H43C42.7348 36 42.4804 35.8946 42.2929 35.7071C42.1054 35.5196 42 35.2652 42 35V29H31V38C31 38.2652 30.8946 38.5196 30.7071 38.7071C30.5196 38.8946 30.2652 39 30 39C29.7348 39 29.4804 38.8946 29.2929 38.7071C29.1054 38.5196 29 38.2652 29 38ZM44 34H47.5863L44 30.4138V34Z" fill="#3A343C"/>
</svg>
