<svg width="80" height="80" viewBox="0 0 80 80" fill="none" xmlns="http://www.w3.org/2000/svg">
<circle cx="40" cy="40" r="39.5" stroke="#1D1A1E"/>
<path d="M37 29H31C30.4696 29 29.9609 29.2107 29.5858 29.5858C29.2107 29.9609 29 30.4696 29 31V37C29 37.5304 29.2107 38.0391 29.5858 38.4142C29.9609 38.7893 30.4696 39 31 39H37C37.5304 39 38.0391 38.7893 38.4142 38.4142C38.7893 38.0391 39 37.5304 39 37V31C39 30.4696 38.7893 29.9609 38.4142 29.5858C38.0391 29.2107 37.5304 29 37 29ZM37 37H31V31H37V37ZM37 41H31C30.4696 41 29.9609 41.2107 29.5858 41.5858C29.2107 41.9609 29 42.4696 29 43V49C29 49.5304 29.2107 50.0391 29.5858 50.4142C29.9609 50.7893 30.4696 51 31 51H37C37.5304 51 38.0391 50.7893 38.4142 50.4142C38.7893 50.0391 39 49.5304 39 49V43C39 42.4696 38.7893 41.9609 38.4142 41.5858C38.0391 41.2107 37.5304 41 37 41ZM37 49H31V43H37V49ZM49 29H43C42.4696 29 41.9609 29.2107 41.5858 29.5858C41.2107 29.9609 41 30.4696 41 31V37C41 37.5304 41.2107 38.0391 41.5858 38.4142C41.9609 38.7893 42.4696 39 43 39H49C49.5304 39 50.0391 38.7893 50.4142 38.4142C50.7893 38.0391 51 37.5304 51 37V31C51 30.4696 50.7893 29.9609 50.4142 29.5858C50.0391 29.2107 49.5304 29 49 29ZM49 37H43V31H49V37ZM41 46V42C41 41.7348 41.1054 41.4804 41.2929 41.2929C41.4804 41.1054 41.7348 41 42 41C42.2652 41 42.5196 41.1054 42.7071 41.2929C42.8946 41.4804 43 41.7348 43 42V46C43 46.2652 42.8946 46.5196 42.7071 46.7071C42.5196 46.8946 42.2652 47 42 47C41.7348 47 41.4804 46.8946 41.2929 46.7071C41.1054 46.5196 41 46.2652 41 46ZM51 44C51 44.2652 50.8946 44.5196 50.7071 44.7071C50.5196 44.8946 50.2652 45 50 45H47V50C47 50.2652 46.8946 50.5196 46.7071 50.7071C46.5196 50.8946 46.2652 51 46 51H42C41.7348 51 41.4804 50.8946 41.2929 50.7071C41.1054 50.5196 41 50.2652 41 50C41 49.7348 41.1054 49.4804 41.2929 49.2929C41.4804 49.1054 41.7348 49 42 49H45V42C45 41.7348 45.1054 41.4804 45.2929 41.2929C45.4804 41.1054 45.7348 41 46 41C46.2652 41 46.5196 41.1054 46.7071 41.2929C46.8946 41.4804 47 41.7348 47 42V43H50C50.2652 43 50.5196 43.1054 50.7071 43.2929C50.8946 43.4804 51 43.7348 51 44ZM51 48V50C51 50.2652 50.8946 50.5196 50.7071 50.7071C50.5196 50.8946 50.2652 51 50 51C49.7348 51 49.4804 50.8946 49.2929 50.7071C49.1054 50.5196 49 50.2652 49 50V48C49 47.7348 49.1054 47.4804 49.2929 47.2929C49.4804 47.1054 49.7348 47 50 47C50.2652 47 50.5196 47.1054 50.7071 47.2929C50.8946 47.4804 51 47.7348 51 48Z" fill="#3A343C"/>
</svg>
