<svg width="27" height="27" viewBox="0 0 27 27" fill="none" xmlns="http://www.w3.org/2000/svg">
<path d="M13.332 0.695312C10.7609 0.695313 8.24746 1.45775 6.10962 2.88621C3.97178 4.31467 2.30554 6.34499 1.3216 8.72043C0.337664 11.0959 0.0802206 13.7097 0.581828 16.2315C1.08344 18.7532 2.32157 21.0696 4.13965 22.8877C5.95773 24.7058 8.27411 25.9439 10.7959 26.4455C13.3176 26.9471 15.9315 26.6897 18.3069 25.7057C20.6824 24.7218 22.7127 23.0556 24.1411 20.9177C25.5696 18.7799 26.332 16.2665 26.332 13.6953C26.3284 10.2486 24.9576 6.94413 22.5204 4.50694C20.0832 2.06976 16.7787 0.698952 13.332 0.695312ZM13.332 24.6953C11.1564 24.6953 9.02971 24.0502 7.22076 22.8415C5.41182 21.6328 4.00193 19.9148 3.16936 17.9048C2.3368 15.8948 2.11896 13.6831 2.5434 11.5493C2.96784 9.41553 4.01548 7.45552 5.55386 5.91714C7.09224 4.37876 9.05225 3.33111 11.186 2.90667C13.3198 2.48224 15.5316 2.70007 17.5416 3.53264C19.5515 4.3652 21.2695 5.7751 22.4782 7.58404C23.6869 9.39298 24.332 11.5197 24.332 13.6953C24.3287 16.6117 23.1687 19.4076 21.1066 21.4698C19.0444 23.532 16.2484 24.692 13.332 24.6953ZM7.33204 11.1953C7.33204 10.8986 7.42001 10.6086 7.58483 10.362C7.74965 10.1153 7.98392 9.92302 8.25801 9.80949C8.5321 9.69596 8.8337 9.66626 9.12467 9.72413C9.41564 9.78201 9.68292 9.92487 9.8927 10.1347C10.1025 10.3444 10.2453 10.6117 10.3032 10.9027C10.3611 11.1936 10.3314 11.4952 10.2179 11.7693C10.1043 12.0434 9.91207 12.2777 9.66539 12.4425C9.41872 12.6073 9.12871 12.6953 8.83204 12.6953C8.43421 12.6953 8.05268 12.5373 7.77138 12.256C7.49007 11.9747 7.33204 11.5931 7.33204 11.1953ZM19.332 11.1953C19.332 11.492 19.2441 11.782 19.0792 12.0287C18.9144 12.2753 18.6802 12.4676 18.4061 12.5811C18.132 12.6947 17.8304 12.7244 17.5394 12.6665C17.2484 12.6086 16.9812 12.4658 16.7714 12.256C16.5616 12.0462 16.4187 11.7789 16.3609 11.4879C16.303 11.197 16.3327 10.8954 16.4462 10.6213C16.5597 10.3472 16.752 10.1129 16.9987 9.94811C17.2454 9.78329 17.5354 9.69531 17.832 9.69531C18.2299 9.69531 18.6114 9.85335 18.8927 10.1347C19.174 10.416 19.332 10.7975 19.332 11.1953ZM19.1983 17.1953C17.912 19.4191 15.7733 20.6953 13.332 20.6953C10.8908 20.6953 8.75329 19.4203 7.46704 17.1953C7.39468 17.0815 7.3461 16.9542 7.32421 16.8211C7.30232 16.6881 7.30758 16.5519 7.33967 16.4209C7.37175 16.2899 7.43001 16.1668 7.51092 16.0589C7.59184 15.951 7.69374 15.8606 7.81051 15.7931C7.92727 15.7256 8.05648 15.6824 8.19037 15.6661C8.32425 15.6499 8.46005 15.6609 8.58957 15.6984C8.7191 15.736 8.83969 15.7994 8.94409 15.8848C9.04848 15.9702 9.13452 16.0758 9.19704 16.1953C10.1308 17.8091 11.5983 18.6953 13.332 18.6953C15.0658 18.6953 16.5333 17.8078 17.4658 16.1953C17.5984 15.9656 17.8168 15.7979 18.0731 15.7292C18.3293 15.6605 18.6023 15.6965 18.832 15.8291C19.0618 15.9617 19.2294 16.1801 19.2981 16.4363C19.3668 16.6926 19.3309 16.9656 19.1983 17.1953Z" fill="#3A343C"/>
</svg>
