<svg width="19" height="24" viewBox="0 0 19 24" fill="none" xmlns="http://www.w3.org/2000/svg">
<path d="M18.0896 11.0167C18.0593 10.8884 17.9978 10.7696 17.9105 10.6708C17.8233 10.5721 17.713 10.4964 17.5894 10.4505L11.8265 8.28876L13.293 0.953311C13.3262 0.782875 13.3031 0.606263 13.2271 0.450125C13.1511 0.293987 13.0264 0.166795 12.8718 0.0877434C12.7172 0.00869176 12.5411 -0.0179306 12.37 0.0118936C12.199 0.0417179 12.0423 0.12637 11.9235 0.253077L0.719794 12.2571C0.628798 12.353 0.562971 12.4699 0.528193 12.5974C0.493416 12.725 0.49077 12.8591 0.520494 12.9879C0.550218 13.1167 0.611384 13.2362 0.69853 13.3356C0.785675 13.4349 0.896085 13.5112 1.01989 13.5575L6.78482 15.7192L5.32233 23.0467C5.28912 23.2171 5.31225 23.3937 5.38823 23.5499C5.4642 23.706 5.5889 23.8332 5.7435 23.9123C5.8981 23.9913 6.07422 24.0179 6.24528 23.9881C6.41634 23.9583 6.57306 23.8736 6.69179 23.7469L17.8955 11.7429C17.9849 11.647 18.0493 11.5306 18.0831 11.404C18.117 11.2774 18.1192 11.1444 18.0896 11.0167ZM7.44404 20.6029L8.49139 15.3631C8.52887 15.1773 8.49917 14.9842 8.40757 14.8182C8.31598 14.6522 8.16843 14.5242 7.99122 14.4568L2.70546 12.4712L11.1703 3.40213L10.1239 8.64188C10.0865 8.82771 10.1162 9.02081 10.2078 9.18679C10.2993 9.35277 10.4469 9.48083 10.6241 9.54818L15.9059 11.5288L7.44404 20.6029Z" fill="#908395"/>
</svg>
