<svg width="28" height="29" viewBox="0 0 28 29" fill="none" xmlns="http://www.w3.org/2000/svg">
<path d="M26.2325 11.2431C25.7612 10.7506 25.2738 10.2431 25.09 9.79688C24.92 9.38813 24.91 8.71062 24.9 8.05437C24.8813 6.83437 24.8612 5.45187 23.9 4.49062C22.9387 3.52937 21.5562 3.50937 20.3363 3.49062C19.68 3.48062 19.0025 3.47062 18.5938 3.30062C18.1488 3.11687 17.64 2.62937 17.1475 2.15812C16.285 1.32937 15.305 0.390625 14 0.390625C12.695 0.390625 11.7162 1.32937 10.8525 2.15812C10.36 2.62937 9.8525 3.11687 9.40625 3.30062C9 3.47062 8.32 3.48062 7.66375 3.49062C6.44375 3.50937 5.06125 3.52937 4.1 4.49062C3.13875 5.45187 3.125 6.83437 3.1 8.05437C3.09 8.71062 3.08 9.38813 2.91 9.79688C2.72625 10.2419 2.23875 10.7506 1.7675 11.2431C0.93875 12.1056 0 13.0856 0 14.3906C0 15.6956 0.93875 16.6744 1.7675 17.5381C2.23875 18.0306 2.72625 18.5381 2.91 18.9844C3.08 19.3931 3.09 20.0706 3.1 20.7269C3.11875 21.9469 3.13875 23.3294 4.1 24.2906C5.06125 25.2519 6.44375 25.2719 7.66375 25.2906C8.32 25.3006 8.9975 25.3106 9.40625 25.4806C9.85125 25.6644 10.36 26.1519 10.8525 26.6231C11.715 27.4519 12.695 28.3906 14 28.3906C15.305 28.3906 16.2837 27.4519 17.1475 26.6231C17.64 26.1519 18.1475 25.6644 18.5938 25.4806C19.0025 25.3106 19.68 25.3006 20.3363 25.2906C21.5562 25.2719 22.9387 25.2519 23.9 24.2906C24.8612 23.3294 24.8813 21.9469 24.9 20.7269C24.91 20.0706 24.92 19.3931 25.09 18.9844C25.2738 18.5394 25.7612 18.0306 26.2325 17.5381C27.0613 16.6756 28 15.6956 28 14.3906C28 13.0856 27.0613 12.1069 26.2325 11.2431ZM24.7887 16.1544C24.19 16.7794 23.57 17.4256 23.2412 18.2194C22.9262 18.9819 22.9125 19.8531 22.9 20.6969C22.8875 21.5719 22.8738 22.4881 22.485 22.8756C22.0963 23.2631 21.1862 23.2781 20.3062 23.2906C19.4625 23.3031 18.5913 23.3169 17.8288 23.6319C17.035 23.9606 16.3888 24.5806 15.7638 25.1794C15.1388 25.7781 14.5 26.3906 14 26.3906C13.5 26.3906 12.8562 25.7756 12.2362 25.1794C11.6163 24.5831 10.965 23.9606 10.1713 23.6319C9.40875 23.3169 8.5375 23.3031 7.69375 23.2906C6.81875 23.2781 5.9025 23.2644 5.515 22.8756C5.1275 22.4869 5.1125 21.5769 5.1 20.6969C5.0875 19.8531 5.07375 18.9819 4.75875 18.2194C4.43 17.4256 3.81 16.7794 3.21125 16.1544C2.6125 15.5294 2 14.8906 2 14.3906C2 13.8906 2.615 13.2469 3.21125 12.6269C3.8075 12.0069 4.43 11.3556 4.75875 10.5619C5.07375 9.79938 5.0875 8.92813 5.1 8.08438C5.1125 7.20938 5.12625 6.29312 5.515 5.90562C5.90375 5.51813 6.81375 5.50312 7.69375 5.49062C8.5375 5.47813 9.40875 5.46438 10.1713 5.14937C10.965 4.82062 11.6112 4.20062 12.2362 3.60187C12.8612 3.00312 13.5 2.39062 14 2.39062C14.5 2.39062 15.1438 3.00562 15.7638 3.60187C16.3838 4.19812 17.035 4.82062 17.8288 5.14937C18.5913 5.46438 19.4625 5.47813 20.3062 5.49062C21.1812 5.50312 22.0975 5.51687 22.485 5.90562C22.8725 6.29437 22.8875 7.20438 22.9 8.08438C22.9125 8.92813 22.9262 9.79938 23.2412 10.5619C23.57 11.3556 24.19 12.0019 24.7887 12.6269C25.3875 13.2519 26 13.8906 26 14.3906C26 14.8906 25.385 15.5344 24.7887 16.1544ZM19.7075 10.6831C19.8005 10.776 19.8742 10.8863 19.9246 11.0077C19.9749 11.1291 20.0008 11.2592 20.0008 11.3906C20.0008 11.522 19.9749 11.6522 19.9246 11.7736C19.8742 11.895 19.8005 12.0053 19.7075 12.0981L12.7075 19.0981C12.6146 19.1911 12.5043 19.2649 12.3829 19.3152C12.2615 19.3655 12.1314 19.3914 12 19.3914C11.8686 19.3914 11.7385 19.3655 11.6171 19.3152C11.4957 19.2649 11.3854 19.1911 11.2925 19.0981L8.2925 16.0981C8.10486 15.9105 7.99944 15.656 7.99944 15.3906C7.99944 15.1253 8.10486 14.8708 8.2925 14.6831C8.48014 14.4955 8.73464 14.3901 9 14.3901C9.26536 14.3901 9.51986 14.4955 9.7075 14.6831L12 16.9769L18.2925 10.6831C18.3854 10.5901 18.4957 10.5164 18.6171 10.4661C18.7385 10.4157 18.8686 10.3898 19 10.3898C19.1314 10.3898 19.2615 10.4157 19.3829 10.4661C19.5043 10.5164 19.6146 10.5901 19.7075 10.6831Z" fill="#3A343C"/>
</svg>
