<svg width="162" height="190" viewBox="0 0 162 190" fill="none" xmlns="http://www.w3.org/2000/svg">
<path d="M147.791 173.421C147.491 180.121 149.491 185.521 137.391 187.121C128.291 188.321 123.191 187.721 99.6909 188.621C19.9909 191.521 22.6909 191.321 19.2909 172.921C17.2909 161.921 17.8909 160.221 17.8909 154.921C17.8909 139.721 15.8909 127.021 18.7909 101.621C19.4909 95.4211 31.0909 96.1211 36.6909 94.8211C42.7909 93.4211 57.2909 93.3211 59.5909 92.9211C61.7909 92.6211 62.5909 93.5211 63.4909 95.3211C67.6909 104.121 65.7909 110.421 70.6909 110.621C112.491 113.021 133.191 106.321 143.491 113.321C148.091 116.521 145.891 129.321 147.591 144.621C147.491 148.721 148.391 159.721 147.791 173.421ZM135.991 127.321C137.391 127.021 138.291 126.021 138.091 124.621C137.091 118.121 137.491 117.521 133.791 118.021C106.791 121.821 99.0909 118.121 98.6909 121.521C98.1909 125.321 97.2909 128.221 101.091 128.321C111.891 128.721 125.691 129.121 135.991 127.321ZM134.491 136.421C135.891 136.521 137.391 134.221 136.491 132.821C135.891 132.021 134.391 131.421 133.491 131.621C132.691 131.821 131.291 133.321 131.191 134.021C130.891 135.721 132.891 136.321 134.491 136.421Z" fill="#E6E780"/>
<path d="M3.79046 80.3212C3.99046 78.7212 4.79046 77.9212 6.29046 77.5212C12.4905 75.8212 40.5905 76.0212 42.3905 76.6212C43.7905 77.1212 44.4905 77.9212 44.5905 79.4212C44.5905 79.9212 44.3905 80.0212 43.9905 80.2212C32.2905 84.6212 28.2905 84.1212 29.0905 87.3212C29.3905 88.7212 29.3905 90.2212 29.9905 91.6212C30.4905 92.8212 17.5905 92.7212 15.9905 99.2212C12.9905 111.721 13.7905 134.421 14.4905 147.221C15.0905 158.021 15.5905 157.221 13.9905 157.021C8.49046 156.421 5.59046 157.121 3.49046 152.621C-3.00954 139.121 1.99046 95.2212 3.79046 80.3212Z" fill="#E6E780"/>
<path d="M122.691 60.3211C121.291 58.4211 121.491 58.5211 121.291 58.0211C119.991 55.0211 82.6912 78.4211 80.2912 80.2211C78.5912 81.5211 92.9912 100.421 96.6912 105.921C98.6912 108.721 99.4912 107.421 98.3912 109.421C97.9912 110.121 98.9912 110.621 99.3912 110.021C100.691 107.921 103.291 101.921 112.791 86.0211C113.291 85.2211 112.891 85.7211 151.291 93.9211C151.991 94.1211 153.091 93.9211 153.291 94.5211C153.391 94.8211 150.991 101.221 149.391 104.121C148.691 105.421 148.291 106.821 147.691 108.221C147.391 108.721 147.591 109.121 148.191 109.321C149.891 110.021 159.591 112.921 160.291 112.621C160.391 112.521 147.791 144.321 147.591 145.321C147.491 145.921 148.391 146.221 148.691 145.621C151.891 138.921 152.391 136.121 161.091 114.621C161.691 113.221 161.991 112.021 161.391 110.621C155.691 94.6211 155.891 93.6211 152.591 92.9211C112.091 84.3211 112.291 83.8211 111.591 85.3211C110.991 86.6211 110.191 87.8211 109.491 89.0211C99.0912 107.521 99.7912 107.721 98.6912 106.321C97.6912 105.121 91.1912 96.1211 81.2912 81.4211C80.9912 80.9211 80.9912 80.7211 81.4912 80.4211C84.7912 78.7211 119.591 57.3211 120.691 59.4211C120.691 59.4211 134.991 84.7211 137.091 86.9211C137.691 87.5211 138.291 87.0211 137.891 86.3211C131.491 76.2211 126.091 65.0211 122.691 60.3211ZM149.291 107.121C150.691 102.921 150.291 106.021 154.291 94.2211C156.491 100.021 157.891 105.821 160.291 111.321C148.891 108.021 148.391 109.721 149.291 107.121Z" fill="#1D1A1E"/>
<path d="M97.5911 108.621C97.2911 108.821 91.9911 108.821 86.4911 109.021C80.7911 109.321 80.9911 109.321 80.6911 108.521C80.1911 106.921 79.4911 105.321 78.8911 103.621C78.2911 101.721 77.6911 99.8211 77.0911 98.0211C76.6911 96.9211 76.6911 97.3211 85.4911 97.0211C87.1911 97.0211 87.6911 96.3211 89.2911 98.5211C94.6911 106.021 97.5911 108.121 97.5911 108.621Z" fill="#E6E780"/>
<path d="M79.8905 111.021H78.3905C66.6905 72.021 68.3905 74.821 67.3905 75.221C63.2905 77.021 39.6905 84.321 31.9905 86.621C31.0905 86.921 31.3905 86.721 33.5905 95.221C33.1905 95.221 32.7905 95.421 32.3905 95.321C31.4905 92.521 30.9905 89.621 30.3905 86.721C30.0905 85.321 67.5905 74.021 67.5905 74.021C69.0905 73.521 68.9905 73.521 79.8905 111.021Z" fill="#1D1A1E"/>
<path d="M76.0902 93.1202C75.2902 93.2202 75.6902 93.3202 72.7902 84.5202C72.4902 83.5202 72.5902 83.8202 79.4902 83.7202C80.3902 83.7202 79.4902 83.8202 84.6902 91.9202C85.1902 92.8202 84.9902 92.6202 78.6902 92.9202C77.7902 92.9202 76.9902 92.9202 76.0902 93.1202Z" fill="#E6E780"/>
<path d="M95.8906 78.5212C95.8906 77.9212 95.7906 78.4212 116.591 67.6212C118.391 66.7212 118.791 66.7212 118.891 67.1212C119.191 67.7212 96.8906 79.0212 95.8906 78.5212Z" fill="#1D1A1E"/>
<path d="M90.7909 87.1211C90.1909 87.1211 89.9909 86.9211 87.0909 83.2211C85.7909 81.5211 88.6909 80.6211 90.0909 79.3211C91.2909 78.2211 94.4908 82.1211 95.0908 82.7211C95.3909 83.0211 95.5909 83.6211 95.1909 83.9211C93.7909 84.9211 92.5909 86.8211 90.7909 87.1211ZM94.3909 83.6211C94.5909 83.5211 94.5909 83.3211 94.3909 83.1211C94.3909 83.1211 91.0909 79.1211 90.3909 79.9211C89.6909 80.6211 88.5909 81.0211 87.8909 81.8211C87.1909 82.6211 87.3909 82.5211 90.2909 85.9211C91.2909 87.2211 92.8909 84.6211 94.3909 83.6211Z" fill="#1D1A1E"/>
<path d="M59.3896 82.221C60.5896 80.121 60.5896 82.721 63.9896 84.621C65.2896 85.421 66.3896 86.421 67.6896 87.321C68.6896 88.021 67.7896 88.821 66.4896 87.621C64.6896 86.021 62.3896 85.021 60.6896 83.321C60.4896 83.021 60.2896 83.021 60.0896 83.421C58.3896 86.721 56.0896 89.821 54.4896 93.221C52.0896 94.521 56.2896 87.821 59.3896 82.221Z" fill="#1D1A1E"/>
<path d="M65.5898 100.921C69.3898 99.5211 69.0898 99.6211 69.6898 99.5211C70.6898 99.3211 70.7898 100.221 69.9898 100.521L65.7898 102.021C65.5898 101.721 65.5898 101.321 65.5898 100.921Z" fill="#1D1A1E"/>
<path d="M66.4902 104.621C68.1902 103.821 69.8902 102.721 71.9902 102.921C71.4902 104.121 70.7902 104.121 66.7902 105.421L66.4902 104.621Z" fill="#1D1A1E"/>
<path d="M137.791 99.221C111.391 92.121 108.191 89.221 122.391 93.421C133.291 96.721 136.991 97.621 138.591 98.321C140.291 99.121 139.691 99.721 137.791 99.221Z" fill="#1D1A1E"/>
<path d="M135.891 103.321C133.691 102.821 129.091 101.521 113.091 96.6211C112.791 96.5211 112.391 96.5211 112.391 96.2211C112.591 94.9211 135.691 102.221 136.291 102.421C136.491 102.421 141.491 104.521 135.891 103.321Z" fill="#1D1A1E"/>
<path d="M111.89 101.321C125.79 105.221 132.49 106.821 131.99 107.621C131.59 108.321 118.49 104.621 111.89 102.221C111.39 102.021 110.89 101.821 111.09 101.421C111.19 101.221 111.39 101.221 111.89 101.321Z" fill="#1D1A1E"/>
<path d="M54.6913 39.5202C58.9913 39.5202 58.8913 39.7202 58.9913 38.9202C59.3913 34.2202 59.8913 34.8202 71.7913 34.5202C77.2913 34.4202 86.9913 35.9202 94.0913 36.2202C99.3913 36.4202 98.5913 39.5202 97.0913 58.0202C96.7913 61.2202 95.9913 62.0212 92.7913 62.1212C90.0913 62.2212 87.3903 62.8212 84.6903 62.6212C83.7903 62.5212 84.4913 63.3212 83.2913 67.1212C82.6913 69.0212 82.0913 69.4212 79.9913 69.4212C75.0913 69.4212 70.2913 69.3212 65.4913 68.9212C45.0913 67.1212 45.2913 69.0212 45.0913 64.1212C44.8913 58.3212 45.5913 47.6212 46.2913 43.6212C46.6913 41.3212 45.1913 39.5212 54.6913 39.5212V39.5202ZM84.7913 52.3202C84.1913 64.5202 82.4913 61.2202 92.7913 60.9202C95.4913 60.8202 95.5903 60.9202 95.8903 58.0202C95.8903 58.0202 96.9903 43.4202 96.8903 40.8202C96.6903 36.2202 97.5903 38.4202 81.1903 36.3202C75.1903 35.5202 69.1903 35.9202 63.1903 35.8202C60.4903 35.8202 60.0903 36.2202 59.5903 38.8202C59.3903 40.0202 58.4903 39.2202 76.6903 40.9202C86.4903 42.0202 84.6913 41.3202 84.7913 52.3202ZM82.5913 43.2202C82.0913 42.7202 55.1913 39.6202 48.5913 41.2202C47.0913 41.6202 48.3913 41.9202 51.8913 45.3202C65.6913 58.7202 64.5913 58.8202 67.1913 56.8202C80.3913 46.3202 75.7913 49.6202 82.5913 43.2202ZM80.4913 68.2202C70.7913 54.5202 71.9913 54.2212 70.9913 55.1212C67.0913 58.2212 65.9913 59.5212 63.9913 58.4212C62.2913 57.4212 60.8913 55.2212 60.3913 55.7212C59.0913 57.0212 57.4913 57.9212 56.1913 59.2212C51.7913 63.3212 50.2913 64.1212 46.8913 66.4212C48.4913 66.8212 77.8913 68.5212 80.4913 68.2212V68.2202ZM46.1913 66.2202C55.1913 58.5202 56.1913 57.8202 59.0913 55.2202C60.0913 54.3202 59.8913 54.6212 53.3913 48.1212C47.1913 41.9212 47.3913 42.1212 47.0913 42.0212C46.4913 50.0212 45.6913 58.0212 46.1913 66.2212V66.2202ZM83.4913 43.9202C79.6913 47.5202 76.2913 51.0202 72.2913 53.9202C71.8913 54.2202 72.0913 54.4212 72.1913 54.6212C73.9913 57.3212 81.3913 67.8212 81.4913 67.8212C83.5913 67.7212 83.7913 46.7212 83.4913 43.9212V43.9202Z" fill="#1D1A1E"/>
<path d="M26.2909 20.5211C29.8909 20.3211 34.4898 31.8211 35.6898 35.2211C36.1898 36.5211 35.7899 37.6211 34.7899 38.5211C32.7899 40.3211 26.8899 43.5211 23.8899 44.5211C21.2899 45.4211 20.1898 44.3211 18.4898 41.0211C13.1898 30.6211 11.1899 28.1211 14.0899 26.1211C16.4899 24.6211 23.6899 20.6211 26.2899 20.5211H26.2909ZM33.9898 37.7211C35.1898 36.8211 35.3899 36.3211 32.7899 30.8211C32.6899 30.7211 32.6898 30.4211 32.3899 30.6211C31.6898 31.1211 30.9899 30.7211 30.3899 30.5211C28.4899 30.0211 25.9899 29.9211 26.2899 31.9211C26.2899 32.1211 25.6898 40.2211 25.1898 42.6211C24.4899 43.4211 30.7898 40.2211 33.9898 37.7211ZM32.3899 30.1211C32.4899 30.0211 30.2899 25.5211 28.0899 22.6211C27.2899 21.5211 26.4899 21.2211 25.2899 21.8211C10.5899 28.1211 12.6899 27.5211 17.8899 37.1211C19.7899 30.9211 19.3899 31.1211 22.3899 32.2211C24.5899 33.0211 23.5899 33.7211 21.0899 32.8211C19.8899 32.4211 20.4899 33.8211 19.2899 35.6211C18.1899 37.4211 18.5898 38.9211 19.6898 40.5211C21.3898 43.0211 21.2898 44.0211 23.9898 43.3211C25.3898 42.9211 24.2899 43.0211 25.5899 31.0211C25.6899 30.3211 25.9899 29.8211 26.6898 29.6211C29.4898 28.5211 32.1898 30.3211 32.3899 30.1211Z" fill="#1D1A1E"/>
<path d="M24.49 25.6221C24.59 22.0221 28.79 23.9221 28.79 25.7221C28.69 27.8221 24.39 28.8221 24.49 25.6221ZM26.19 26.6221C28.89 26.0221 26.69 24.5221 25.99 24.6221C24.89 24.7221 24.89 26.6221 26.19 26.6221Z" fill="#1D1A1E"/>
<path d="M105.191 28.1201C100.391 28.1201 94.691 26.2201 92.591 22.4201C92.391 22.0201 92.091 21.9201 91.591 21.9201C84.991 22.2201 82.391 19.9201 81.791 20.2201C79.691 21.3201 77.391 21.9201 75.491 23.3201C74.891 23.7201 74.091 23.2201 74.691 22.3201C75.691 20.6201 76.291 18.8201 76.991 17.0201C77.091 16.6201 77.191 16.4201 76.891 16.1201C72.091 9.52007 77.991 2.92007 85.89 0.820066C94.39 -1.37993 106.291 1.22007 107.491 9.62007C107.691 10.8201 112.091 9.02007 117.291 13.6201C120.391 16.4201 120.691 19.9201 118.191 23.2201C117.191 24.5201 119.391 29.8201 118.691 30.2201C118.091 30.6201 115.091 28.0201 113.991 27.3201C112.291 26.0201 112.291 28.1201 105.191 28.1201ZM77.091 21.4201C78.691 20.5201 80.591 20.1201 82.291 19.5201C83.591 19.0201 85.491 21.0201 92.191 20.6201C99.091 20.2201 107.59 16.0201 106.39 9.32007C105.19 2.62007 95.191 0.320065 87.991 1.62007C79.791 3.02007 72.991 9.42007 77.891 16.1201C78.991 17.6201 74.891 22.6201 77.091 21.4201ZM117.791 28.8201C116.991 24.5201 116.691 23.4201 117.591 22.3201C119.691 19.7201 119.391 15.9201 114.691 13.2201C112.591 12.0201 110.291 11.5201 107.991 10.9201C107.491 10.8201 107.491 11.1201 107.491 11.4201C106.791 17.6201 99.49 21.2201 92.89 22.0201C93.79 23.4201 94.99 24.4201 96.39 25.1201C105.79 29.9201 112.591 25.2201 113.591 26.0201C113.591 25.8201 117.491 28.7201 117.791 28.8201Z" fill="#1D1A1E"/>
<path d="M85.5915 13.82C82.4915 13.62 82.0905 10.82 83.8905 9.82004C87.5905 7.82004 90.6915 13.02 85.5915 13.82Z" fill="#1D1A1E"/>
<path d="M95.9902 11.2201C95.9902 14.1201 91.2902 14.4201 91.3902 11.4201C91.3902 8.42013 95.9902 8.22012 95.9902 11.2201Z" fill="#1D1A1E"/>
<path d="M100.79 12.9202C97.6897 12.9202 97.8897 8.92015 100.79 9.02015C103.49 9.02015 103.69 12.9202 100.79 12.9202Z" fill="#1D1A1E"/>
<path d="M111.59 17.3201C114.49 17.3201 114.389 21.4201 111.389 21.4201C108.589 21.4201 108.19 17.3201 111.59 17.3201ZM111.59 20.4201C113.49 20.3201 112.989 18.0201 111.389 18.1201C109.889 18.1201 109.69 20.4201 111.59 20.4201Z" fill="#1D1A1E"/>
<path d="M107.99 19.22C107.99 22.02 104.09 22.32 103.99 19.72C103.89 16.62 107.99 16.42 107.99 19.22ZM106.19 18.12C104.29 18.02 104.29 20.62 105.79 20.72C107.19 20.72 107.49 18.32 106.19 18.12Z" fill="#1D1A1E"/>
<path d="M29.8907 59.621C29.7907 60.721 27.8907 60.221 27.5907 61.021C27.3907 61.621 27.6907 62.021 27.7907 64.021C27.8907 64.921 26.9907 65.221 26.6907 64.321C25.8907 62.021 26.7907 60.821 25.4907 61.021C22.3907 61.421 23.0907 60.021 25.4907 59.721C26.8907 59.621 25.2907 56.721 26.2907 56.521C26.7907 56.421 26.7907 56.821 26.8907 57.121C27.3907 58.921 26.9907 59.521 28.1907 59.121C28.8907 58.921 29.8907 58.921 29.8907 59.621Z" fill="#1D1A1E"/>
<path d="M145.19 73.62C145.19 74.12 144.39 74.32 144.09 74.32C142.39 74.22 142.99 75.52 142.89 76.02C142.79 76.32 142.79 76.72 142.39 76.72C141.99 76.72 141.89 76.32 141.79 76.02C141.59 75.62 141.89 74.92 141.39 74.72C140.69 74.42 138.79 75.42 138.69 74.42C138.59 73.42 141.79 74.22 141.19 72.52C141.09 72.12 141.09 71.62 141.59 71.52C142.09 71.42 142.19 71.92 142.19 72.32C142.59 74.22 145.09 72.32 145.19 73.62Z" fill="#1D1A1E"/>
<path d="M47.7898 16.6211C51.5898 16.2211 50.7898 17.5211 50.0898 17.6211C48.9898 17.7211 45.0898 18.3211 45.0898 17.2211C45.0898 16.5211 45.5898 16.6211 47.7898 16.6211Z" fill="#1D1A1E"/>
<path d="M49.2902 19.2201C47.9902 19.9201 45.4902 19.7201 45.4902 19.1201C45.4902 18.9201 45.6902 18.8201 45.8902 18.8201C46.9902 18.7201 48.0902 18.5201 49.2902 19.2201Z" fill="#1D1A1E"/>
<path d="M48.0898 21.1212C47.1898 21.7212 45.7898 21.5212 45.8898 20.8212C45.9898 20.3212 47.2898 20.5212 48.0898 21.1212Z" fill="#1D1A1E"/>
</svg>
