<svg xmlns="http://www.w3.org/2000/svg" width="17" height="16" viewBox="0 0 17 16" fill="none">
<path d="M13.7288 6.35403L8.72878 11.354C8.68235 11.4005 8.6272 11.4374 8.5665 11.4626C8.50581 11.4877 8.44074 11.5007 8.37503 11.5007C8.30933 11.5007 8.24426 11.4877 8.18356 11.4626C8.12286 11.4374 8.06772 11.4005 8.02128 11.354L3.02128 6.35403C2.92746 6.26021 2.87476 6.13296 2.87476 6.00028C2.87476 5.8676 2.92746 5.74035 3.02128 5.64653C3.1151 5.55271 3.24235 5.5 3.37503 5.5C3.50772 5.5 3.63496 5.55271 3.72878 5.64653L8.37503 10.2934L13.0213 5.64653C13.0677 5.60007 13.1229 5.56322 13.1836 5.53808C13.2443 5.51294 13.3093 5.5 13.375 5.5C13.4407 5.5 13.5058 5.51294 13.5665 5.53808C13.6272 5.56322 13.6823 5.60007 13.7288 5.64653C13.7752 5.69298 13.8121 5.74813 13.8372 5.80883C13.8624 5.86953 13.8753 5.93458 13.8753 6.00028C13.8753 6.06598 13.8624 6.13103 13.8372 6.19173C13.8121 6.25242 13.7752 6.30757 13.7288 6.35403Z" fill="#343330"/>
</svg>