<svg width="20" height="22" viewBox="0 0 20 22" fill="none" xmlns="http://www.w3.org/2000/svg">
<path d="M18.1 2.58828H15.7V1.78828C15.7 1.57611 15.6157 1.37262 15.4657 1.2226C15.3157 1.07257 15.1122 0.988281 14.9 0.988281C14.6878 0.988281 14.4843 1.07257 14.3343 1.2226C14.1843 1.37262 14.1 1.57611 14.1 1.78828V2.58828H6.1V1.78828C6.1 1.57611 6.01571 1.37262 5.86569 1.2226C5.71566 1.07257 5.51217 0.988281 5.3 0.988281C5.08783 0.988281 4.88434 1.07257 4.73431 1.2226C4.58429 1.37262 4.5 1.57611 4.5 1.78828V2.58828H2.1C1.67565 2.58828 1.26869 2.75685 0.968629 3.05691C0.668571 3.35697 0.5 3.76394 0.5 4.18828V20.1883C0.5 20.6126 0.668571 21.0196 0.968629 21.3197C1.26869 21.6197 1.67565 21.7883 2.1 21.7883H18.1C18.5243 21.7883 18.9313 21.6197 19.2314 21.3197C19.5314 21.0196 19.7 20.6126 19.7 20.1883V4.18828C19.7 3.76394 19.5314 3.35697 19.2314 3.05691C18.9313 2.75685 18.5243 2.58828 18.1 2.58828ZM4.5 4.18828V4.98828C4.5 5.20045 4.58429 5.40394 4.73431 5.55397C4.88434 5.704 5.08783 5.78828 5.3 5.78828C5.51217 5.78828 5.71566 5.704 5.86569 5.55397C6.01571 5.40394 6.1 5.20045 6.1 4.98828V4.18828H14.1V4.98828C14.1 5.20045 14.1843 5.40394 14.3343 5.55397C14.4843 5.704 14.6878 5.78828 14.9 5.78828C15.1122 5.78828 15.3157 5.704 15.4657 5.55397C15.6157 5.40394 15.7 5.20045 15.7 4.98828V4.18828H18.1V7.38828H2.1V4.18828H4.5ZM18.1 20.1883H2.1V8.98828H18.1V20.1883Z" fill="#3A343C"/>
</svg>
