<svg width="24" height="25" viewBox="0 0 24 25" fill="none" xmlns="http://www.w3.org/2000/svg">
<path d="M20.031 10.3221L12.531 17.8221C12.4614 17.8918 12.3787 17.9471 12.2876 17.9849C12.1966 18.0226 12.099 18.042 12.0004 18.042C11.9019 18.042 11.8043 18.0226 11.7132 17.9849C11.6222 17.9471 11.5394 17.8918 11.4698 17.8221L3.96979 10.3221C3.82906 10.1813 3.75 9.99046 3.75 9.79143C3.75 9.59241 3.82906 9.40154 3.96979 9.26081C4.11052 9.12008 4.30139 9.04102 4.50042 9.04102C4.69944 9.04102 4.89031 9.12008 5.03104 9.26081L12.0004 16.2311L18.9698 9.26081C19.0395 9.19112 19.1222 9.13585 19.2132 9.09814C19.3043 9.06043 19.4019 9.04102 19.5004 9.04102C19.599 9.04102 19.6965 9.06043 19.7876 9.09814C19.8786 9.13585 19.9614 9.19112 20.031 9.26081C20.1007 9.33049 20.156 9.41322 20.1937 9.50426C20.2314 9.59531 20.2508 9.69289 20.2508 9.79143C20.2508 9.88998 20.2314 9.98756 20.1937 10.0786C20.156 10.1696 20.1007 10.2524 20.031 10.3221Z" fill="#3A343C"/>
</svg>
