<svg width="26" height="27" viewBox="0 0 26 27" fill="none" xmlns="http://www.w3.org/2000/svg">
<path d="M12.9313 3.18945C10.8743 3.18945 8.8636 3.7994 7.15332 4.94217C5.44305 6.08494 4.11006 7.70919 3.32291 9.60955C2.53576 11.5099 2.3298 13.601 2.73109 15.6184C3.13237 17.6358 4.12288 19.4889 5.57734 20.9434C7.03181 22.3978 8.88491 23.3883 10.9023 23.7896C12.9197 24.1909 15.0108 23.985 16.9112 23.1978C18.8115 22.4106 20.4358 21.0777 21.5785 19.3674C22.7213 17.6571 23.3313 15.6464 23.3313 13.5895C23.3283 10.8321 22.2317 8.18851 20.2819 6.23876C18.3322 4.28901 15.6886 3.19236 12.9313 3.18945ZM12.9313 22.3895C11.1908 22.3895 9.48939 21.8733 8.04224 20.9064C6.59508 19.9394 5.46717 18.5651 4.80111 16.9571C4.13506 15.3491 3.96079 13.5797 4.30034 11.8727C4.63989 10.1656 5.47801 8.59762 6.70872 7.36691C7.93942 6.13621 9.50743 5.29809 11.2145 4.95854C12.9215 4.61899 14.6909 4.79326 16.2989 5.45931C17.9069 6.12536 19.2812 7.25328 20.2482 8.70043C21.2151 10.1476 21.7313 11.849 21.7313 13.5895C21.7286 15.9225 20.8006 18.1593 19.1509 19.8091C17.5011 21.4588 15.2643 22.3868 12.9313 22.3895ZM19.3313 13.5895C19.3313 13.8016 19.247 14.0051 19.0969 14.1551C18.9469 14.3052 18.7434 14.3895 18.5313 14.3895H12.9313C12.7191 14.3895 12.5156 14.3052 12.3656 14.1551C12.2155 14.0051 12.1313 13.8016 12.1313 13.5895V7.98945C12.1313 7.77728 12.2155 7.5738 12.3656 7.42377C12.5156 7.27374 12.7191 7.18945 12.9313 7.18945C13.1434 7.18945 13.3469 7.27374 13.4969 7.42377C13.647 7.5738 13.7313 7.77728 13.7313 7.98945V12.7895H18.5313C18.7434 12.7895 18.9469 12.8737 19.0969 13.0238C19.247 13.1738 19.3313 13.3773 19.3313 13.5895Z" fill="#3A343C"/>
</svg>
