<svg width="23" height="21" viewBox="0 0 23 21" fill="none" xmlns="http://www.w3.org/2000/svg">
<path d="M21.8977 7.40028C21.6724 7.14501 21.3954 6.94058 21.085 6.80058C20.7747 6.66058 20.4381 6.58821 20.0977 6.58828H14.4977V4.98828C14.4977 3.92742 14.0762 2.91 13.3261 2.15985C12.5759 1.40971 11.5585 0.988281 10.4977 0.988281C10.349 0.988175 10.2033 1.02947 10.0769 1.10754C9.95038 1.18561 9.84816 1.29737 9.78166 1.43028L6.00366 8.98828H1.69766C1.27331 8.98828 0.866344 9.15685 0.566285 9.45691C0.266227 9.75697 0.0976563 10.1639 0.0976562 10.5883V19.3883C0.0976563 19.8126 0.266227 20.2196 0.566285 20.5197C0.866344 20.8197 1.27331 20.9883 1.69766 20.9883H18.8977C19.4824 20.9885 20.047 20.7752 20.4856 20.3886C20.9242 20.0019 21.2066 19.4684 21.2797 18.8883L22.4797 9.28828C22.5222 8.9503 22.4923 8.60714 22.3919 8.28162C22.2916 7.95609 22.1231 7.65565 21.8977 7.40028ZM1.69766 10.5883H5.69766V19.3883H1.69766V10.5883ZM20.8917 9.08828L19.6917 18.6883C19.6673 18.8817 19.5732 19.0595 19.427 19.1884C19.2808 19.3173 19.0926 19.3883 18.8977 19.3883H7.29766V9.97728L10.9687 2.63428C11.5127 2.74318 12.0023 3.03724 12.354 3.46642C12.7057 3.89561 12.8978 4.4334 12.8977 4.98828V7.38828C12.8977 7.60045 12.9819 7.80394 13.132 7.95397C13.282 8.104 13.4855 8.18828 13.6977 8.18828H20.0977C20.2112 8.18824 20.3234 8.21237 20.4269 8.25905C20.5304 8.30573 20.6227 8.3739 20.6978 8.45903C20.7729 8.54416 20.8291 8.6443 20.8625 8.75279C20.8959 8.86128 20.9058 8.97565 20.8917 9.08828Z" fill="#3A343C"/>
</svg>
