<svg width="16" height="16" viewBox="0 0 16 16" fill="none" xmlns="http://www.w3.org/2000/svg">
<path d="M11.354 8.35403L6.35403 13.354C6.30757 13.4005 6.25242 13.4373 6.19173 13.4625C6.13103 13.4876 6.06598 13.5006 6.00028 13.5006C5.93458 13.5006 5.86953 13.4876 5.80883 13.4625C5.74813 13.4373 5.69298 13.4005 5.64653 13.354C5.60007 13.3076 5.56322 13.2524 5.53808 13.1917C5.51294 13.131 5.5 13.066 5.5 13.0003C5.5 12.9346 5.51294 12.8695 5.53808 12.8088C5.56322 12.7481 5.60007 12.693 5.64653 12.6465L10.2934 8.00028L5.64653 3.35403C5.55271 3.26021 5.5 3.13296 5.5 3.00028C5.5 2.8676 5.55271 2.74035 5.64653 2.64653C5.74035 2.55271 5.8676 2.5 6.00028 2.5C6.13296 2.5 6.26021 2.55271 6.35403 2.64653L11.354 7.64653C11.4005 7.69296 11.4374 7.74811 11.4626 7.80881C11.4877 7.86951 11.5007 7.93457 11.5007 8.00028C11.5007 8.06599 11.4877 8.13105 11.4626 8.19175C11.4374 8.25245 11.4005 8.30759 11.354 8.35403Z" fill="#006987"/>
</svg>
