<svg width="27" height="26" viewBox="0 0 27 26" fill="none" xmlns="http://www.w3.org/2000/svg">
<path d="M23.5625 25.404L15.3958 17.2373C14.6667 17.8206 13.8281 18.2824 12.8802 18.6227C11.9323 18.963 10.9236 19.1331 9.85417 19.1331C7.20486 19.1331 4.96292 18.2158 3.12833 16.3813C1.29278 14.5457 0.375 12.3033 0.375 9.65397C0.375 7.00467 1.29278 4.76224 3.12833 2.92668C4.96292 1.0921 7.20486 0.174805 9.85417 0.174805C12.5035 0.174805 14.7459 1.0921 16.5815 2.92668C18.416 4.76224 19.3333 7.00467 19.3333 9.65397C19.3333 10.7234 19.1632 11.7321 18.8229 12.68C18.4826 13.6279 18.0208 14.4665 17.4375 15.1956L25.6406 23.3988C25.908 23.6661 26.0417 23.9942 26.0417 24.3831C26.0417 24.772 25.8958 25.1123 25.6042 25.404C25.3368 25.6713 24.9965 25.805 24.5833 25.805C24.1701 25.805 23.8299 25.6713 23.5625 25.404ZM9.85417 16.2165C11.6771 16.2165 13.2268 15.5787 14.5033 14.3031C15.7789 13.0266 16.4167 11.4769 16.4167 9.65397C16.4167 7.83105 15.7789 6.28133 14.5033 5.0048C13.2268 3.72925 11.6771 3.09147 9.85417 3.09147C8.03125 3.09147 6.48153 3.72925 5.205 5.0048C3.92944 6.28133 3.29167 7.83105 3.29167 9.65397C3.29167 11.4769 3.92944 13.0266 5.205 14.3031C6.48153 15.5787 8.03125 16.2165 9.85417 16.2165Z" fill="black"/>
</svg>
