<svg width="27" height="26" viewBox="0 0 27 26" fill="none" xmlns="http://www.w3.org/2000/svg">
<path d="M13.5016 2.78906C11.4446 2.78906 9.43391 3.39901 7.72364 4.54178C6.01337 5.68455 4.68037 7.3088 3.89322 9.20915C3.10607 11.1095 2.90011 13.2006 3.3014 15.218C3.70269 17.2354 4.69319 19.0885 6.14766 20.543C7.60212 21.9974 9.45523 22.9879 11.4726 23.3892C13.49 23.7905 15.5811 23.5846 17.4815 22.7974C19.3818 22.0103 21.0061 20.6773 22.1489 18.967C23.2916 17.2567 23.9016 15.246 23.9016 13.1891C23.8987 10.4317 22.802 7.78812 20.8523 5.83837C18.9025 3.88862 16.2589 2.79197 13.5016 2.78906ZM13.5016 21.9891C11.7611 21.9891 10.0597 21.473 8.61255 20.506C7.1654 19.539 6.03748 18.1647 5.37143 16.5567C4.70538 14.9487 4.53111 13.1793 4.87066 11.4723C5.21021 9.76524 6.04833 8.19723 7.27903 6.96652C8.50973 5.73582 10.0777 4.8977 11.7848 4.55815C13.4918 4.2186 15.2612 4.39287 16.8692 5.05892C18.4772 5.72497 19.8515 6.85289 20.8185 8.30004C21.7855 9.7472 22.3016 11.4486 22.3016 13.1891C22.2989 15.5222 21.3709 17.7589 19.7212 19.4087C18.0714 21.0584 15.8347 21.9864 13.5016 21.9891ZM8.70157 11.1891C8.70157 10.9517 8.77195 10.7197 8.9038 10.5224C9.03566 10.325 9.22308 10.1712 9.44235 10.0804C9.66162 9.98958 9.9029 9.96582 10.1357 10.0121C10.3685 10.0584 10.5823 10.1727 10.7501 10.3405C10.9179 10.5084 11.0322 10.7222 11.0785 10.955C11.1248 11.1877 11.101 11.429 11.0102 11.6483C10.9194 11.8676 10.7656 12.055 10.5683 12.1868C10.3709 12.3187 10.1389 12.3891 9.90157 12.3891C9.58331 12.3891 9.27808 12.2626 9.05304 12.0376C8.828 11.8125 8.70157 11.5073 8.70157 11.1891ZM18.3016 11.1891C18.3016 11.4264 18.2312 11.6584 18.0993 11.8557C17.9675 12.0531 17.7801 12.2069 17.5608 12.2977C17.3415 12.3885 17.1002 12.4123 16.8675 12.366C16.6347 12.3197 16.4209 12.2054 16.253 12.0376C16.0852 11.8698 15.9709 11.6559 15.9246 11.4232C15.8783 11.1904 15.9021 10.9491 15.9929 10.7298C16.0837 10.5106 16.2375 10.3232 16.4349 10.1913C16.6322 10.0594 16.8642 9.98906 17.1016 9.98906C17.4198 9.98906 17.7251 10.1155 17.9501 10.3405C18.1751 10.5656 18.3016 10.8708 18.3016 11.1891ZM18.1946 15.9891C17.1656 17.7681 15.4546 18.7891 13.5016 18.7891C11.5486 18.7891 9.83857 17.7691 8.80957 15.9891C8.75168 15.898 8.71282 15.7962 8.69531 15.6897C8.6778 15.5833 8.682 15.4743 8.70767 15.3696C8.73334 15.2648 8.77994 15.1662 8.84467 15.0799C8.90941 14.9936 8.99093 14.9213 9.08434 14.8673C9.17776 14.8133 9.28113 14.7787 9.38823 14.7657C9.49534 14.7527 9.60397 14.7615 9.7076 14.7916C9.81122 14.8216 9.90769 14.8723 9.99121 14.9406C10.0747 15.009 10.1436 15.0935 10.1936 15.1891C10.9406 16.4801 12.1146 17.1891 13.5016 17.1891C14.8886 17.1891 16.0626 16.4791 16.8086 15.1891C16.9147 15.0053 17.0894 14.8711 17.2944 14.8162C17.4994 14.7612 17.7178 14.79 17.9016 14.8961C18.0854 15.0022 18.2195 15.1769 18.2744 15.3819C18.3294 15.5869 18.3007 15.8053 18.1946 15.9891Z" fill="#3A343C"/>
</svg>
