<svg width="17" height="17" viewBox="0 0 17 17" fill="none" xmlns="http://www.w3.org/2000/svg">
<path d="M8.54935 2.22223C7.26822 2.22223 6.01586 2.60213 4.95064 3.31389C3.88542 4.02564 3.05518 5.03729 2.56491 6.2209C2.07464 7.40451 1.94637 8.70692 2.1963 9.96344C2.44624 11.22 3.06316 12.3741 3.96906 13.28C4.87496 14.1859 6.02914 14.8028 7.28565 15.0528C8.54216 15.3027 9.84458 15.1744 11.0282 14.6842C12.2118 14.1939 13.2234 13.3637 13.9352 12.2984C14.647 11.2332 15.0269 9.98087 15.0269 8.69974C15.025 6.98235 14.342 5.33583 13.1276 4.12145C11.9133 2.90707 10.2667 2.22404 8.54935 2.22223ZM11.3932 7.55745L7.90534 11.0453C7.85906 11.0917 7.80411 11.1284 7.74362 11.1535C7.68313 11.1786 7.61829 11.1915 7.55281 11.1915C7.48733 11.1915 7.42249 11.1786 7.362 11.1535C7.30151 11.1284 7.24656 11.0917 7.20028 11.0453L5.70547 9.55053C5.61198 9.45704 5.55945 9.33023 5.55945 9.19801C5.55945 9.06578 5.61198 8.93898 5.70547 8.84548C5.79897 8.75199 5.92578 8.69946 6.058 8.69946C6.19022 8.69946 6.31703 8.75199 6.41053 8.84548L7.55281 9.98839L10.6882 6.8524C10.7345 6.80611 10.7894 6.76938 10.8499 6.74433C10.9104 6.71928 10.9752 6.70638 11.0407 6.70638C11.1062 6.70638 11.171 6.71928 11.2315 6.74433C11.292 6.76938 11.3469 6.80611 11.3932 6.8524C11.4395 6.8987 11.4762 6.95366 11.5013 7.01414C11.5264 7.07463 11.5392 7.13946 11.5392 7.20493C11.5392 7.2704 11.5264 7.33523 11.5013 7.39571C11.4762 7.4562 11.4395 7.51116 11.3932 7.55745Z" fill="#006886"/>
</svg>
