<svg width="56" height="57" viewBox="0 0 56 57" fill="none" xmlns="http://www.w3.org/2000/svg">
<path d="M45.5 18.2H38.5V12.95C38.5 10.1652 37.3938 7.49446 35.4246 5.52533C33.4555 3.5562 30.7848 2.44995 28 2.44995C25.2152 2.44995 22.5445 3.5562 20.5754 5.52533C18.6062 7.49446 17.5 10.1652 17.5 12.95V18.2H10.5C9.57174 18.2 8.6815 18.5687 8.02513 19.2251C7.36875 19.8815 7 20.7717 7 21.7V46.2C7 47.1282 7.36875 48.0184 8.02513 48.6748C8.6815 49.3312 9.57174 49.7 10.5 49.7H45.5C46.4283 49.7 47.3185 49.3312 47.9749 48.6748C48.6312 48.0184 49 47.1282 49 46.2V21.7C49 20.7717 48.6312 19.8815 47.9749 19.2251C47.3185 18.5687 46.4283 18.2 45.5 18.2ZM21 12.95C21 11.0934 21.7375 9.31296 23.0503 8.0002C24.363 6.68745 26.1435 5.94995 28 5.94995C29.8565 5.94995 31.637 6.68745 32.9497 8.0002C34.2625 9.31296 35 11.0934 35 12.95V18.2H21V12.95ZM45.5 46.2H10.5V21.7H45.5V46.2ZM30.625 33.95C30.625 34.4691 30.471 34.9766 30.1826 35.4083C29.8942 35.84 29.4842 36.1765 29.0045 36.3751C28.5249 36.5738 27.9971 36.6258 27.4879 36.5245C26.9787 36.4232 26.511 36.1732 26.1438 35.8061C25.7767 35.439 25.5267 34.9713 25.4254 34.4621C25.3242 33.9529 25.3761 33.4251 25.5748 32.9454C25.7735 32.4658 26.1099 32.0558 26.5416 31.7673C26.9733 31.4789 27.4808 31.325 28 31.325C28.6962 31.325 29.3639 31.6015 29.8562 32.0938C30.3484 32.5861 30.625 33.2538 30.625 33.95Z" fill="#3A343C"/>
</svg>
