<svg width="48" height="49" viewBox="0 0 48 49" fill="none" xmlns="http://www.w3.org/2000/svg">
<path d="M40.5 8.19995H7.5C6.70435 8.19995 5.94129 8.51602 5.37868 9.07863C4.81607 9.64124 4.5 10.4043 4.5 11.2V38.2C4.5 38.9956 4.81607 39.7587 5.37868 40.3213C5.94129 40.8839 6.70435 41.2 7.5 41.2H40.5C41.2957 41.2 42.0587 40.8839 42.6213 40.3213C43.1839 39.7587 43.5 38.9956 43.5 38.2V11.2C43.5 10.4043 43.1839 9.64124 42.6213 9.07863C42.0587 8.51602 41.2957 8.19995 40.5 8.19995ZM7.5 29.2H10.5C10.8978 29.2 11.2794 29.0419 11.5607 28.7606C11.842 28.4793 12 28.0978 12 27.7C12 27.3021 11.842 26.9206 11.5607 26.6393C11.2794 26.358 10.8978 26.2 10.5 26.2H7.5V23.2H10.5C10.8978 23.2 11.2794 23.0419 11.5607 22.7606C11.842 22.4793 12 22.0978 12 21.7C12 21.3021 11.842 20.9206 11.5607 20.6393C11.2794 20.358 10.8978 20.2 10.5 20.2H7.5V17.2H10.5C10.8978 17.2 11.2794 17.0419 11.5607 16.7606C11.842 16.4793 12 16.0978 12 15.7C12 15.3021 11.842 14.9206 11.5607 14.6393C11.2794 14.358 10.8978 14.2 10.5 14.2H7.5V11.2H15V38.2H7.5V29.2ZM40.5 38.2H18V11.2H40.5V38.2Z" fill="#3A343C"/>
</svg>
