<svg width="56" height="57" viewBox="0 0 56 57" fill="none" xmlns="http://www.w3.org/2000/svg">
<path d="M36.75 12.95C36.75 12.4858 36.9344 12.0407 37.2626 11.7125C37.5907 11.3844 38.0359 11.2 38.5 11.2H42V7.69998C42 7.23585 42.1844 6.79073 42.5126 6.46254C42.8407 6.13435 43.2859 5.94998 43.75 5.94998C44.2141 5.94998 44.6592 6.13435 44.9874 6.46254C45.3156 6.79073 45.5 7.23585 45.5 7.69998V11.2H49C49.4641 11.2 49.9092 11.3844 50.2374 11.7125C50.5656 12.0407 50.75 12.4858 50.75 12.95C50.75 13.4141 50.5656 13.8592 50.2374 14.1874C49.9092 14.5156 49.4641 14.7 49 14.7H45.5V18.2C45.5 18.6641 45.3156 19.1092 44.9874 19.4374C44.6592 19.7656 44.2141 19.95 43.75 19.95C43.2859 19.95 42.8407 19.7656 42.5126 19.4374C42.1844 19.1092 42 18.6641 42 18.2V14.7H38.5C38.0359 14.7 37.5907 14.5156 37.2626 14.1874C36.9344 13.8592 36.75 13.4141 36.75 12.95ZM50.435 24.9112C51.2345 29.6637 50.5029 34.5473 48.346 38.8569C46.189 43.1665 42.7183 46.6791 38.4348 48.8876C34.1514 51.096 29.2769 51.886 24.5152 51.1436C19.7535 50.4011 15.3509 48.1645 11.9432 44.7568C8.53547 41.3491 6.2989 36.9465 5.55641 32.1848C4.81393 27.4231 5.60395 22.5486 7.8124 18.2652C10.0209 13.9817 13.5335 10.5109 17.8431 8.35398C22.1527 6.19702 27.0363 5.46548 31.7887 6.26498C32.243 6.34531 32.6472 6.60177 32.9134 6.97856C33.1795 7.35536 33.2861 7.822 33.21 8.277C33.1339 8.73199 32.8812 9.13853 32.5069 9.40817C32.1326 9.67781 31.6669 9.78875 31.2112 9.71685C28.4509 9.2525 25.6225 9.39523 22.923 10.1351C20.2234 10.875 17.7175 12.1942 15.5796 14.0011C13.4418 15.8079 11.7233 18.0589 10.5438 20.5974C9.36436 23.1358 8.75221 25.9009 8.75 28.7C8.74585 33.4123 10.4778 37.961 13.615 41.4772C15.5668 38.6489 18.3112 36.4608 21.5031 35.1881C19.7885 33.8376 18.5374 31.9864 17.9237 29.8919C17.3099 27.7974 17.3642 25.5637 18.0788 23.5015C18.7934 21.4392 20.1329 19.6509 21.911 18.3852C23.6891 17.1196 25.8174 16.4394 28 16.4394C30.1826 16.4394 32.3109 17.1196 34.089 18.3852C35.8671 19.6509 37.2066 21.4392 37.9212 23.5015C38.6358 25.5637 38.6901 27.7974 38.0763 29.8919C37.4626 31.9864 36.2115 33.8376 34.4969 35.1881C37.6888 36.4608 40.4332 38.6489 42.385 41.4772C45.5222 37.961 47.2541 33.4123 47.25 28.7C47.2501 27.624 47.1608 26.5499 46.9831 25.4887C46.9429 25.2611 46.9481 25.0277 46.9986 24.8021C47.049 24.5765 47.1436 24.3631 47.277 24.1743C47.4104 23.9855 47.5799 23.825 47.7756 23.702C47.9714 23.5791 48.1896 23.4961 48.4176 23.458C48.6456 23.4198 48.8789 23.4272 49.1041 23.4798C49.3292 23.5323 49.5417 23.6289 49.7293 23.764C49.9168 23.8992 50.0758 24.0701 50.1969 24.267C50.318 24.4639 50.399 24.6829 50.435 24.9112ZM28 33.95C29.3845 33.95 30.7378 33.5394 31.889 32.7703C33.0401 32.0011 33.9373 30.9078 34.4672 29.6288C34.997 28.3497 35.1356 26.9422 34.8655 25.5843C34.5954 24.2265 33.9287 22.9792 32.9497 22.0002C31.9708 21.0213 30.7235 20.3546 29.3656 20.0845C28.0078 19.8144 26.6003 19.953 25.3212 20.4828C24.0421 21.0126 22.9489 21.9098 22.1797 23.061C21.4105 24.2121 21 25.5655 21 26.95C21 28.8065 21.7375 30.587 23.0502 31.8997C24.363 33.2125 26.1435 33.95 28 33.95ZM28 47.95C32.273 47.9543 36.4247 46.5298 39.795 43.9031C38.529 41.9232 36.785 40.2938 34.7237 39.1651C32.6624 38.0364 30.3501 37.4448 28 37.4448C25.6499 37.4448 23.3376 38.0364 21.2763 39.1651C19.215 40.2938 17.471 41.9232 16.205 43.9031C19.5753 46.5298 23.727 47.9543 28 47.95Z" fill="#3A343C"/>
</svg>
