<svg width="24" height="25" viewBox="0 0 24 25" fill="none" xmlns="http://www.w3.org/2000/svg">
<g id="CheckCircle">
<path id="Vector" d="M12 2.34961C10.0716 2.34961 8.18657 2.92144 6.58319 3.99278C4.97982 5.06412 3.73013 6.58687 2.99218 8.36845C2.25422 10.15 2.06114 12.1104 2.43735 14.0017C2.81355 15.8931 3.74215 17.6303 5.10571 18.9939C6.46928 20.3575 8.20656 21.2861 10.0979 21.6623C11.9892 22.0385 13.9496 21.8454 15.7312 21.1074C17.5127 20.3695 19.0355 19.1198 20.1068 17.5164C21.1782 15.913 21.75 14.028 21.75 12.0996C21.7473 9.51459 20.7192 7.03622 18.8913 5.20833C17.0634 3.38044 14.585 2.35234 12 2.34961ZM16.2806 10.3802L11.0306 15.6302C10.961 15.7 10.8783 15.7553 10.7872 15.793C10.6962 15.8308 10.5986 15.8502 10.5 15.8502C10.4014 15.8502 10.3038 15.8308 10.2128 15.793C10.1218 15.7553 10.039 15.7 9.96938 15.6302L7.71938 13.3802C7.57865 13.2395 7.49959 13.0486 7.49959 12.8496C7.49959 12.6506 7.57865 12.4597 7.71938 12.319C7.86011 12.1783 8.05098 12.0992 8.25 12.0992C8.44903 12.0992 8.6399 12.1783 8.78063 12.319L10.5 14.0393L15.2194 9.31898C15.2891 9.2493 15.3718 9.19403 15.4628 9.15631C15.5539 9.1186 15.6515 9.09919 15.75 9.09919C15.8486 9.09919 15.9461 9.1186 16.0372 9.15631C16.1282 9.19403 16.2109 9.2493 16.2806 9.31898C16.3503 9.38867 16.4056 9.47139 16.4433 9.56244C16.481 9.65348 16.5004 9.75106 16.5004 9.84961C16.5004 9.94816 16.481 10.0457 16.4433 10.1368C16.4056 10.2278 16.3503 10.3106 16.2806 10.3802Z" fill="#AE79C3"/>
</g>
</svg>
