<svg width="48" height="49" viewBox="0 0 48 49" fill="none" xmlns="http://www.w3.org/2000/svg">
<circle cx="24" cy="31.5" r="16" fill="#FFD9C8"/>
<path d="M42 29V39.5C42 40.2956 41.6839 41.0587 41.1213 41.6213C40.5587 42.1839 39.7957 42.5 39 42.5H9C8.20435 42.5 7.44129 42.1839 6.87868 41.6213C6.31607 41.0587 6 40.2956 6 39.5V29C6 28.6021 6.15804 28.2206 6.43934 27.9393C6.72064 27.658 7.10218 27.5 7.5 27.5C7.89782 27.5 8.27936 27.658 8.56066 27.9393C8.84196 28.2206 9 28.6021 9 29V39.5H39V29C39 28.6021 39.158 28.2206 39.4393 27.9393C39.7206 27.658 40.1022 27.5 40.5 27.5C40.8978 27.5 41.2794 27.658 41.5607 27.9393C41.842 28.2206 42 28.6021 42 29ZM17.5613 16.5612L22.5 11.6206V29C22.5 29.3978 22.658 29.7793 22.9393 30.0606C23.2206 30.3419 23.6022 30.5 24 30.5C24.3978 30.5 24.7794 30.3419 25.0607 30.0606C25.342 29.7793 25.5 29.3978 25.5 29V11.6206L30.4387 16.5612C30.7202 16.8427 31.102 17.0008 31.5 17.0008C31.898 17.0008 32.2798 16.8427 32.5613 16.5612C32.8427 16.2797 33.0008 15.898 33.0008 15.5C33.0008 15.1019 32.8427 14.7202 32.5613 14.4387L25.0613 6.93871C24.9219 6.79924 24.7565 6.68861 24.5744 6.61312C24.3923 6.53763 24.1971 6.49878 24 6.49878C23.8029 6.49878 23.6077 6.53763 23.4256 6.61312C23.2435 6.68861 23.0781 6.79924 22.9387 6.93871L15.4387 14.4387C15.1573 14.7202 14.9992 15.1019 14.9992 15.5C14.9992 15.898 15.1573 16.2797 15.4387 16.5612C15.7202 16.8427 16.102 17.0008 16.5 17.0008C16.898 17.0008 17.2798 16.8427 17.5613 16.5612Z" fill="#1D1A1E"/>
</svg>
