<svg width="48" height="49" viewBox="0 0 48 49" fill="none" xmlns="http://www.w3.org/2000/svg">
<circle cx="17.6777" cy="21.0898" r="16" fill="#FFD9C8"/>
<path d="M47.5611 25.6609L43.0611 30.1609C42.9218 30.3003 42.7564 30.411 42.5743 30.4865C42.3922 30.5619 42.197 30.6008 41.9999 30.6008C41.8027 30.6008 41.6075 30.5619 41.4254 30.4865C41.2434 30.411 41.0779 30.3003 40.9386 30.1609L36.4386 25.6609C36.1571 25.3794 35.999 24.9977 35.999 24.5996C35.999 24.2016 36.1571 23.8198 36.4386 23.5384C36.7201 23.2569 37.1018 23.0988 37.4999 23.0988C37.8979 23.0988 38.2796 23.2569 38.5611 23.5384L40.4999 25.479V24.5996C40.5016 21.1058 39.3942 17.7016 37.3373 14.8775C35.2804 12.0533 32.3801 9.95495 29.0543 8.8847C25.7284 7.81445 22.1487 7.82753 18.8307 8.92208C15.5128 10.0166 12.6279 12.1361 10.5917 14.9752C10.3595 15.2985 10.0084 15.5162 9.61561 15.5806C9.22284 15.6449 8.82059 15.5506 8.49736 15.3184C8.17412 15.0861 7.95638 14.735 7.89204 14.3422C7.82769 13.9495 7.922 13.5472 8.15423 13.224C10.5608 9.86871 13.9703 7.36394 17.8915 6.07052C21.8128 4.77709 26.0434 4.76178 29.974 6.02678C33.9045 7.29178 37.332 9.77179 39.7628 13.1096C42.1936 16.4473 43.5021 20.4705 43.4999 24.5996V25.479L45.4386 23.5384C45.7201 23.2569 46.1018 23.0988 46.4999 23.0988C46.8979 23.0988 47.2796 23.2569 47.5611 23.5384C47.8426 23.8198 48.0007 24.2016 48.0007 24.5996C48.0007 24.9977 47.8426 25.3794 47.5611 25.6609ZM39.8399 35.9734C37.4326 39.3261 34.0236 41.8286 30.1036 43.1205C26.1836 44.4124 21.9548 44.4272 18.0258 43.1627C14.0968 41.8982 10.6704 39.4197 8.2398 36.0839C5.80917 32.7481 4.49969 28.727 4.49986 24.5996V23.7202L2.56111 25.6609C2.27965 25.9423 1.8979 26.1004 1.49986 26.1004C1.10181 26.1004 0.720069 25.9423 0.438608 25.6609C0.157147 25.3794 -0.000976562 24.9977 -0.000976562 24.5996C-0.000976563 24.2016 0.157147 23.8198 0.438608 23.5384L4.93861 19.0384C5.07792 18.8989 5.24335 18.7883 5.42545 18.7128C5.60754 18.6373 5.80273 18.5984 5.99986 18.5984C6.19698 18.5984 6.39217 18.6373 6.57427 18.7128C6.75636 18.7883 6.9218 18.8989 7.06111 19.0384L11.5611 23.5384C11.8426 23.8198 12.0007 24.2016 12.0007 24.5996C12.0007 24.9977 11.8426 25.3794 11.5611 25.6609C11.2796 25.9423 10.8979 26.1004 10.4999 26.1004C10.1018 26.1004 9.72007 25.9423 9.43861 25.6609L7.49986 23.7202V24.5996C7.4963 28.6387 8.98082 32.5376 11.6699 35.5515C13.3428 33.1273 15.6951 31.2518 18.4311 30.1609C16.9615 29.0033 15.889 27.4166 15.363 25.6213C14.8369 23.826 14.8834 21.9114 15.496 20.1438C16.1085 18.3761 17.2566 16.8433 18.7807 15.7584C20.3048 14.6735 22.1291 14.0906 23.9999 14.0906C25.8706 14.0906 27.6949 14.6735 29.219 15.7584C30.7431 16.8433 31.8912 18.3761 32.5038 20.1438C33.1163 21.9114 33.1628 23.826 32.6367 25.6213C32.1107 27.4166 31.0383 29.0033 29.5686 30.1609C32.3071 31.252 34.6611 33.1297 36.3336 35.5571C36.7129 35.1312 37.0702 34.6862 37.4042 34.224C37.6365 33.9008 37.9876 33.683 38.3804 33.6187C38.7731 33.5543 39.1754 33.6486 39.4986 33.8809C39.8218 34.1131 40.0396 34.4642 40.1039 34.857C40.1683 35.2498 40.074 35.652 39.8417 35.9752L39.8399 35.9734ZM23.9999 29.0996C25.1865 29.0996 26.3466 28.7477 27.3333 28.0884C28.32 27.4291 29.089 26.4921 29.5431 25.3957C29.9973 24.2994 30.1161 23.093 29.8846 21.9291C29.6531 20.7652 29.0816 19.6961 28.2425 18.857C27.4034 18.0179 26.3343 17.4464 25.1704 17.2149C24.0065 16.9834 22.8001 17.1022 21.7038 17.5563C20.6074 18.0105 19.6703 18.7795 19.011 19.7662C18.3518 20.7529 17.9999 21.9129 17.9999 23.0996C17.9999 24.6909 18.632 26.217 19.7572 27.3423C20.8824 28.4675 22.4086 29.0996 23.9999 29.0996ZM23.9999 41.0996C27.6607 41.0948 31.2165 39.8755 34.1099 37.6327C33.0247 35.9356 31.5299 34.539 29.763 33.5716C27.9962 32.6042 26.0142 32.0971 23.9999 32.0971C21.9855 32.0971 20.0036 32.6042 18.2367 33.5716C16.4699 34.539 14.975 35.9356 13.8899 37.6327C16.7789 39.8835 20.3375 41.1038 23.9999 41.0996Z" fill="#1D1A1E"/>
</svg>
