<svg width="48" height="49" viewBox="0 0 48 49" fill="none" xmlns="http://www.w3.org/2000/svg">
<circle cx="32" cy="16.3884" r="16" fill="#FFD9C8"/>
<path d="M9.00045 12.3884C9.00045 11.9906 9.15848 11.6091 9.43979 11.3278C9.72109 11.0465 10.1026 10.8884 10.5004 10.8884H13.5004V7.88843C13.5004 7.4906 13.6585 7.10907 13.9398 6.82777C14.2211 6.54646 14.6026 6.38843 15.0004 6.38843C15.3983 6.38843 15.7798 6.54646 16.0611 6.82777C16.3424 7.10907 16.5004 7.4906 16.5004 7.88843V10.8884H19.5004C19.8983 10.8884 20.2798 11.0465 20.5611 11.3278C20.8424 11.6091 21.0004 11.9906 21.0004 12.3884C21.0004 12.7863 20.8424 13.1678 20.5611 13.4491C20.2798 13.7304 19.8983 13.8884 19.5004 13.8884H16.5004V16.8884C16.5004 17.2863 16.3424 17.6678 16.0611 17.9491C15.7798 18.2304 15.3983 18.3884 15.0004 18.3884C14.6026 18.3884 14.2211 18.2304 13.9398 17.9491C13.6585 17.6678 13.5004 17.2863 13.5004 16.8884V13.8884H10.5004C10.1026 13.8884 9.72109 13.7304 9.43979 13.4491C9.15848 13.1678 9.00045 12.7863 9.00045 12.3884ZM34.5004 36.3884H33.0004V34.8884C33.0004 34.4906 32.8424 34.1091 32.5611 33.8278C32.2798 33.5465 31.8983 33.3884 31.5004 33.3884C31.1026 33.3884 30.7211 33.5465 30.4398 33.8278C30.1585 34.1091 30.0004 34.4906 30.0004 34.8884V36.3884H28.5004C28.1026 36.3884 27.7211 36.5465 27.4398 36.8278C27.1585 37.1091 27.0004 37.4906 27.0004 37.8884C27.0004 38.2863 27.1585 38.6678 27.4398 38.9491C27.7211 39.2304 28.1026 39.3884 28.5004 39.3884H30.0004V40.8884C30.0004 41.2863 30.1585 41.6678 30.4398 41.9491C30.7211 42.2304 31.1026 42.3884 31.5004 42.3884C31.8983 42.3884 32.2798 42.2304 32.5611 41.9491C32.8424 41.6678 33.0004 41.2863 33.0004 40.8884V39.3884H34.5004C34.8983 39.3884 35.2798 39.2304 35.5611 38.9491C35.8424 38.6678 36.0004 38.2863 36.0004 37.8884C36.0004 37.4906 35.8424 37.1091 35.5611 36.8278C35.2798 36.5465 34.8983 36.3884 34.5004 36.3884ZM45.0004 27.3884H42.0004V24.3884C42.0004 23.9906 41.8424 23.6091 41.5611 23.3278C41.2798 23.0465 40.8983 22.8884 40.5004 22.8884C40.1026 22.8884 39.7211 23.0465 39.4398 23.3278C39.1585 23.6091 39.0004 23.9906 39.0004 24.3884V27.3884H36.0004C35.6026 27.3884 35.2211 27.5465 34.9398 27.8278C34.6585 28.1091 34.5004 28.4906 34.5004 28.8884C34.5004 29.2863 34.6585 29.6678 34.9398 29.9491C35.2211 30.2304 35.6026 30.3884 36.0004 30.3884H39.0004V33.3884C39.0004 33.7863 39.1585 34.1678 39.4398 34.4491C39.7211 34.7304 40.1026 34.8884 40.5004 34.8884C40.8983 34.8884 41.2798 34.7304 41.5611 34.4491C41.8424 34.1678 42.0004 33.7863 42.0004 33.3884V30.3884H45.0004C45.3983 30.3884 45.7798 30.2304 46.0611 29.9491C46.3424 29.6678 46.5004 29.2863 46.5004 28.8884C46.5004 28.4906 46.3424 28.1091 46.0611 27.8278C45.7798 27.5465 45.3983 27.3884 45.0004 27.3884ZM41.1211 15.3884L15.0004 41.5091C14.4379 42.0712 13.6751 42.387 12.8798 42.387C12.0845 42.387 11.3217 42.0712 10.7592 41.5091L6.87795 37.6316C6.5993 37.353 6.37826 37.0222 6.22745 36.6582C6.07664 36.2942 5.99902 35.904 5.99902 35.51C5.99902 35.116 6.07664 34.7258 6.22745 34.3618C6.37826 33.9978 6.5993 33.667 6.87795 33.3884L33.0004 7.2678C33.279 6.98915 33.6098 6.76812 33.9738 6.61731C34.3378 6.4665 34.728 6.38888 35.122 6.38888C35.516 6.38888 35.9062 6.4665 36.2702 6.61731C36.6342 6.76812 36.965 6.98915 37.2436 7.2678L41.1211 11.1453C41.3997 11.4239 41.6208 11.7546 41.7716 12.1187C41.9224 12.4827 42 12.8728 42 13.2669C42 13.6609 41.9224 14.0511 41.7716 14.4151C41.6208 14.7791 41.3997 15.1098 41.1211 15.3884ZM30.8779 21.3884L27.0004 17.5091L9.00045 35.5091L12.8779 39.3884L30.8779 21.3884ZM39.0004 13.2678L35.1211 9.38843L29.1211 15.3884L33.0004 19.2678L39.0004 13.2678Z" fill="#1D1A1E"/>
</svg>
