<svg width="48" height="49" viewBox="0 0 48 49" fill="none" xmlns="http://www.w3.org/2000/svg">
<circle cx="32" cy="31.3884" r="16" fill="#FFD9C8"/>
<path d="M43.4609 35.5128C44.5188 33.3624 45.046 30.9898 44.9984 28.5937C44.9508 26.1976 44.3298 23.8478 43.1874 21.7411C42.045 19.6343 40.4144 17.832 38.4323 16.485C36.4501 15.138 34.174 14.2855 31.7946 13.999C31.0055 12.1595 29.8562 10.4965 28.4145 9.10808C26.9727 7.71962 25.2676 6.63376 23.3997 5.91448C21.5318 5.1952 19.5388 4.85705 17.5381 4.91994C15.5375 4.98284 13.5697 5.44552 11.7506 6.28071C9.93155 7.11591 8.29805 8.30672 6.94635 9.78301C5.59464 11.2593 4.55208 12.9912 3.88008 14.8766C3.20808 16.7621 2.92023 18.763 3.03351 20.7614C3.14678 22.7598 3.65887 24.7153 4.53962 26.5128L3.10337 31.5415C2.97521 31.9914 2.9696 32.4674 3.08711 32.9202C3.20463 33.373 3.441 33.7861 3.77177 34.1169C4.10255 34.4477 4.51571 34.684 4.96849 34.8015C5.42127 34.9191 5.89724 34.9134 6.34712 34.7853L11.3759 33.349C12.8933 34.0941 14.5256 34.5777 16.204 34.7797C17.0041 36.6541 18.1777 38.3458 19.6533 39.7516C21.1289 41.1574 22.8754 42.2477 24.7864 42.9561C26.6974 43.6644 28.7327 43.9759 30.768 43.8715C32.8034 43.7672 34.7961 43.2491 36.6246 42.349L41.6534 43.7853C42.1033 43.9134 42.5792 43.9191 43.032 43.8015C43.4848 43.684 43.8979 43.4477 44.2287 43.1169C44.5595 42.7861 44.7959 42.373 44.9134 41.9202C45.0309 41.4674 45.0253 40.9914 44.8971 40.5415L43.4609 35.5128ZM11.5371 30.244C11.3977 30.244 11.2589 30.263 11.1246 30.3003L6.17275 31.7159L7.58837 26.764C7.69446 26.3868 7.6487 25.983 7.46087 25.639C6.08165 23.1069 5.66106 20.1626 6.27617 17.3456C6.89128 14.5285 8.50089 12.0275 10.8101 10.3008C13.1192 8.57403 15.9733 7.73721 18.8493 7.94366C21.7253 8.1501 24.4306 9.38599 26.4694 11.4249C28.5083 13.4637 29.7442 16.169 29.9506 19.045C30.1571 21.921 29.3203 24.775 27.5935 27.0842C25.8668 29.3934 23.3657 31.003 20.5487 31.6181C17.7317 32.2332 14.7874 31.8126 12.2552 30.4334C12.0357 30.3106 11.7887 30.2455 11.5371 30.244ZM40.4121 35.764L41.8278 40.7159L36.8759 39.3003C36.4986 39.1942 36.0948 39.24 35.7509 39.4278C32.9858 40.9321 29.7407 41.2909 26.7138 40.4268C23.6869 39.5628 21.1202 37.5451 19.5659 34.8078C21.6198 34.5939 23.6074 33.9578 25.404 32.9394C27.2005 31.9211 28.7672 30.5424 30.0057 28.89C31.2443 27.2375 32.1279 25.3469 32.6013 23.3368C33.0747 21.3267 33.1275 19.2405 32.7565 17.209C34.5539 17.6326 36.2293 18.4653 37.6523 19.6423C39.0752 20.8193 40.2073 22.3089 40.9605 23.9949C41.7136 25.681 42.0675 27.5182 41.9945 29.3634C41.9215 31.2086 41.4236 33.0121 40.5396 34.6334C40.3503 34.9789 40.3045 35.385 40.4121 35.764Z" fill="#1D1A1E"/>
</svg>
