<svg width="48" height="49" viewBox="0 0 48 49" fill="none" xmlns="http://www.w3.org/2000/svg">
<circle cx="16" cy="32.4443" r="16" fill="#FFD9C8"/>
<path d="M40.0612 15.8831L29.5613 5.38309C29.4218 5.24383 29.2564 5.13341 29.0743 5.05813C28.8922 4.98285 28.697 4.94418 28.5 4.94434H10.5C9.70435 4.94434 8.94129 5.26041 8.37868 5.82302C7.81607 6.38563 7.5 7.14869 7.5 7.94434V40.9443C7.5 41.74 7.81607 42.503 8.37868 43.0657C8.94129 43.6283 9.70435 43.9443 10.5 43.9443H37.5C38.2956 43.9443 39.0587 43.6283 39.6213 43.0657C40.1839 42.503 40.5 41.74 40.5 40.9443V16.9443C40.5002 16.7473 40.4615 16.5522 40.3862 16.3701C40.3109 16.188 40.2005 16.0225 40.0612 15.8831ZM30 10.065L35.3794 15.4443H30V10.065ZM37.5 40.9443H10.5V7.94434H27V16.9443C27 17.3422 27.158 17.7237 27.4393 18.005C27.7206 18.2863 28.1022 18.4443 28.5 18.4443H37.5V40.9443ZM28.9613 31.785C29.8465 30.3783 30.1824 28.6947 29.9049 27.056C29.6273 25.4173 28.7558 23.9383 27.4567 22.9015C26.1576 21.8648 24.5221 21.3431 22.8626 21.436C21.2031 21.5289 19.6361 22.2299 18.4608 23.4052C17.2856 24.5804 16.5845 26.1475 16.4916 27.8069C16.3987 29.4664 16.9205 31.1019 17.9572 32.401C18.9939 33.7001 20.473 34.5717 22.1117 34.8492C23.7504 35.1268 25.4339 34.7908 26.8406 33.9056L28.9387 36.0056C29.0781 36.145 29.2436 36.2555 29.4257 36.3309C29.6077 36.4063 29.8029 36.4452 30 36.4452C30.1971 36.4452 30.3923 36.4063 30.5743 36.3309C30.7564 36.2555 30.9219 36.145 31.0613 36.0056C31.2006 35.8662 31.3112 35.7008 31.3866 35.5187C31.462 35.3366 31.5008 35.1414 31.5008 34.9443C31.5008 34.7472 31.462 34.5521 31.3866 34.37C31.3112 34.1879 31.2006 34.0225 31.0613 33.8831L28.9613 31.785ZM19.5 28.1943C19.5 27.4527 19.7199 26.7276 20.132 26.1109C20.544 25.4943 21.1297 25.0136 21.8149 24.7298C22.5002 24.446 23.2542 24.3717 23.9816 24.5164C24.709 24.6611 25.3772 25.0182 25.9016 25.5427C26.4261 26.0671 26.7833 26.7353 26.9279 27.4627C27.0726 28.1902 26.9984 28.9442 26.7145 29.6294C26.4307 30.3146 25.9501 30.9003 25.3334 31.3123C24.7167 31.7244 23.9917 31.9443 23.25 31.9443C22.2554 31.9443 21.3016 31.5492 20.5983 30.846C19.8951 30.1427 19.5 29.1889 19.5 28.1943Z" fill="#1D1A1E"/>
</svg>
