<svg width="59" height="43" viewBox="0 0 59 43" fill="none" xmlns="http://www.w3.org/2000/svg">
<path id="quotation mark" d="M29.1428 4.77509C27.2963 5.57792 25.1889 6.68182 22.8205 8.08677C20.4923 9.45159 18.6257 10.7763 17.2208 12.0608C15.6151 13.5059 14.1499 15.1316 12.8253 16.938C11.5407 18.7444 10.5372 20.8117 9.81464 23.1399H13.1865C16.6789 23.1399 19.2881 23.8022 21.0142 25.1269C22.7402 26.4516 23.6033 28.2981 23.6033 30.6665C23.6033 33.7172 22.3188 36.5071 19.7497 39.036C17.1806 41.5248 14.1299 42.7692 10.5974 42.7692C6.86422 42.7692 4.15466 41.7656 2.46871 39.7585C0.822904 37.7113 0 35.082 0 31.8707C0 25.5685 2.64935 19.5271 7.94805 13.7467C13.2869 7.96635 19.7898 3.55077 27.4569 0.5L29.1428 4.77509ZM58.8276 4.77509C56.9811 5.57792 54.8736 6.68182 52.5053 8.08677C50.1771 9.45159 48.3105 10.7763 46.9055 12.0608C45.2999 13.5059 43.8347 15.1316 42.51 16.938C41.2255 18.7444 40.2219 20.8117 39.4994 23.1399H42.8713C46.3636 23.1399 48.9728 23.8022 50.6989 25.1269C52.425 26.4516 53.2881 28.2981 53.2881 30.6665C53.2881 33.7172 52.0035 36.5071 49.4345 39.036C46.8654 41.5248 43.8146 42.7692 40.2822 42.7692C36.549 42.7692 33.8394 41.7656 32.1535 39.7585C30.5077 37.7113 29.6848 35.082 29.6848 31.8707C29.6848 25.5685 32.3341 19.5271 37.6328 13.7467C42.9716 7.96635 49.4746 3.55077 57.1417 0.5L58.8276 4.77509Z" fill="#FFD9C8"/>
</svg>
