<svg width="24" height="25" viewBox="0 0 24 25" fill="none" xmlns="http://www.w3.org/2000/svg">
<path d="M4.49973 6.5C4.49973 6.30109 4.57875 6.11032 4.7194 5.96967C4.86006 5.82902 5.05082 5.75 5.24973 5.75H6.74973V4.25C6.74973 4.05109 6.82875 3.86032 6.9694 3.71967C7.11006 3.57902 7.30082 3.5 7.49973 3.5C7.69865 3.5 7.88941 3.57902 8.03006 3.71967C8.17072 3.86032 8.24973 4.05109 8.24973 4.25V5.75H9.74973C9.94865 5.75 10.1394 5.82902 10.2801 5.96967C10.4207 6.11032 10.4997 6.30109 10.4997 6.5C10.4997 6.69891 10.4207 6.88968 10.2801 7.03033C10.1394 7.17098 9.94865 7.25 9.74973 7.25H8.24973V8.75C8.24973 8.94891 8.17072 9.13968 8.03006 9.28033C7.88941 9.42098 7.69865 9.5 7.49973 9.5C7.30082 9.5 7.11006 9.42098 6.9694 9.28033C6.82875 9.13968 6.74973 8.94891 6.74973 8.75V7.25H5.24973C5.05082 7.25 4.86006 7.17098 4.7194 7.03033C4.57875 6.88968 4.49973 6.69891 4.49973 6.5ZM17.2497 18.5H16.4997V17.75C16.4997 17.5511 16.4207 17.3603 16.2801 17.2197C16.1394 17.079 15.9486 17 15.7497 17C15.5508 17 15.3601 17.079 15.2194 17.2197C15.0788 17.3603 14.9997 17.5511 14.9997 17.75V18.5H14.2497C14.0508 18.5 13.8601 18.579 13.7194 18.7197C13.5788 18.8603 13.4997 19.0511 13.4997 19.25C13.4997 19.4489 13.5788 19.6397 13.7194 19.7803C13.8601 19.921 14.0508 20 14.2497 20H14.9997V20.75C14.9997 20.9489 15.0788 21.1397 15.2194 21.2803C15.3601 21.421 15.5508 21.5 15.7497 21.5C15.9486 21.5 16.1394 21.421 16.2801 21.2803C16.4207 21.1397 16.4997 20.9489 16.4997 20.75V20H17.2497C17.4486 20 17.6394 19.921 17.7801 19.7803C17.9207 19.6397 17.9997 19.4489 17.9997 19.25C17.9997 19.0511 17.9207 18.8603 17.7801 18.7197C17.6394 18.579 17.4486 18.5 17.2497 18.5ZM22.4997 14H20.9997V12.5C20.9997 12.3011 20.9207 12.1103 20.7801 11.9697C20.6394 11.829 20.4486 11.75 20.2497 11.75C20.0508 11.75 19.8601 11.829 19.7194 11.9697C19.5788 12.1103 19.4997 12.3011 19.4997 12.5V14H17.9997C17.8008 14 17.6101 14.079 17.4694 14.2197C17.3288 14.3603 17.2497 14.5511 17.2497 14.75C17.2497 14.9489 17.3288 15.1397 17.4694 15.2803C17.6101 15.421 17.8008 15.5 17.9997 15.5H19.4997V17C19.4997 17.1989 19.5788 17.3897 19.7194 17.5303C19.8601 17.671 20.0508 17.75 20.2497 17.75C20.4486 17.75 20.6394 17.671 20.7801 17.5303C20.9207 17.3897 20.9997 17.1989 20.9997 17V15.5H22.4997C22.6986 15.5 22.8894 15.421 23.0301 15.2803C23.1707 15.1397 23.2497 14.9489 23.2497 14.75C23.2497 14.5511 23.1707 14.3603 23.0301 14.2197C22.8894 14.079 22.6986 14 22.4997 14ZM20.56 8L7.49973 21.0603C7.21846 21.3414 6.83708 21.4993 6.43942 21.4993C6.04177 21.4993 5.66039 21.3414 5.37911 21.0603L3.43848 19.1216C3.29916 18.9823 3.18864 18.8169 3.11324 18.6349C3.03783 18.4529 2.99902 18.2578 2.99902 18.0608C2.99902 17.8638 3.03783 17.6687 3.11324 17.4867C3.18864 17.3047 3.29916 17.1393 3.43848 17L16.4997 3.93969C16.639 3.80036 16.8044 3.68984 16.9864 3.61444C17.1684 3.53904 17.3635 3.50023 17.5605 3.50023C17.7575 3.50023 17.9526 3.53904 18.1346 3.61444C18.3166 3.68984 18.482 3.80036 18.6213 3.93969L20.56 5.87844C20.6994 6.01773 20.8099 6.1831 20.8853 6.36511C20.9607 6.54713 20.9995 6.74221 20.9995 6.93922C20.9995 7.13623 20.9607 7.33131 20.8853 7.51332C20.8099 7.69533 20.6994 7.86071 20.56 8ZM15.4385 11L13.4997 9.06031L4.49973 18.0603L6.43848 20L15.4385 11ZM19.4997 6.93969L17.56 5L14.56 8L16.4997 9.93969L19.4997 6.93969Z" fill="#006886"/>
</svg>
