<svg width="48" height="49" viewBox="0 0 48 49" fill="none" xmlns="http://www.w3.org/2000/svg">
<circle cx="32" cy="17.4041" r="16" fill="#FFD9C8"/>
<path d="M42.9995 18.8028L10.0145 6.57588L9.98447 6.56651C9.45353 6.3837 8.88195 6.35357 8.33474 6.47956C7.78752 6.60554 7.28665 6.88258 6.8891 7.27915C6.49156 7.67572 6.21329 8.17591 6.08596 8.72281C5.95863 9.26971 5.98735 9.84137 6.16885 10.3728C6.17113 10.383 6.17426 10.393 6.17822 10.4028L18.4145 43.3878C18.6154 43.9759 18.9966 44.4857 19.5039 44.8449C20.0111 45.204 20.6186 45.3942 21.2401 45.3884H21.2963C21.9301 45.3835 22.5456 45.1752 23.0519 44.7941C23.5583 44.4129 23.9288 43.8792 24.1089 43.2715L28.5264 28.9165L42.8814 24.499C43.4845 24.3134 44.0138 23.9423 44.3939 23.4385C44.774 22.9347 44.9855 22.3239 44.9984 21.6929C45.0113 21.0619 44.8249 20.443 44.4656 19.9241C44.1064 19.4052 43.5927 19.0128 42.9976 18.8028H42.9995ZM42.0001 21.6321L27.6451 26.0496C27.1778 26.1936 26.7528 26.4496 26.4071 26.7953C26.0613 27.1411 25.8053 27.5661 25.6614 28.0334L21.2438 42.3884L21.2326 42.3565L9.0001 9.38838L41.9664 21.6171L41.9963 21.6284L42.0001 21.6321Z" fill="#1D1A1E"/>
</svg>
