<svg width="25" height="25" viewBox="0 0 25 25" fill="none" xmlns="http://www.w3.org/2000/svg">
<g id="GlobeHemisphereEast">
<path id="Vector" d="M12.1211 2.48926C10.1927 2.48926 8.30767 3.06109 6.70429 4.13243C5.10091 5.20377 3.85123 6.72651 3.11327 8.50809C2.37532 10.2897 2.18224 12.2501 2.55844 14.1414C2.93465 16.0327 3.86325 17.77 5.22681 19.1335C6.59037 20.4971 8.32765 21.4257 10.219 21.8019C12.1103 22.1781 14.0707 21.985 15.8523 21.2471C17.6338 20.5091 19.1566 19.2594 20.2279 17.6561C21.2993 16.0527 21.8711 14.1676 21.8711 12.2393C21.8684 9.65423 20.8403 7.17587 19.0124 5.34798C17.1845 3.52009 14.7061 2.49199 12.1211 2.48926ZM12.1211 3.98926C13.7195 3.98756 15.2836 4.45287 16.6211 5.32801V7.17676L14.5427 9.58988L11.5923 9.98926L11.5633 9.96863L9.71922 8.76301C9.55573 8.64784 9.37086 8.56653 9.17548 8.52385C8.9801 8.48118 8.77816 8.47801 8.58154 8.51452C8.38492 8.55103 8.19758 8.62649 8.03055 8.73646C7.86351 8.84644 7.72016 8.9887 7.60891 9.15488L5.64579 12.0893C5.48224 12.3338 5.39422 12.621 5.39266 12.9152L5.3711 16.3118L5.06454 16.5133C4.30667 15.2621 3.89514 13.8318 3.87211 12.3691C3.84908 10.9065 4.21538 9.46395 4.93348 8.18947C5.65157 6.91499 6.69563 5.85436 7.95866 5.11629C9.22168 4.37822 10.6582 3.98926 12.1211 3.98926ZM5.96079 17.7208L6.19704 17.5661C6.40333 17.4301 6.57282 17.2451 6.69041 17.0277C6.80801 16.8104 6.87008 16.5673 6.8711 16.3202L6.89079 12.9236L8.85579 9.98926C8.86541 9.99666 8.87542 10.0035 8.88579 10.0099L10.7298 11.2164C11.0389 11.4346 11.4191 11.5274 11.7939 11.4761L14.7461 11.0758C15.1102 11.0272 15.4437 10.8468 15.6836 10.5686L17.762 8.15363C17.9945 7.8813 18.1218 7.5348 18.1211 7.17676V6.58332C19.1355 7.65656 19.8428 8.98278 20.1689 10.4231C20.4949 11.8635 20.4278 13.365 19.9745 14.7705L18.4614 13.3868C18.2511 13.1937 17.99 13.0646 17.7088 13.0148C17.4277 12.965 17.1381 12.9965 16.8742 13.1055L14.0186 14.2914C13.7798 14.3917 13.5709 14.5517 13.4119 14.7561C13.253 14.9606 13.1494 15.2025 13.1111 15.4586L12.887 16.9764C12.8332 17.3418 12.916 17.7141 13.1196 18.0222C13.3232 18.3303 13.6333 18.5525 13.9905 18.6461L16.0023 19.1768L16.2236 19.3989C14.5807 20.3416 12.6632 20.6893 10.794 20.3837C8.92472 20.078 7.21786 19.1376 5.96079 17.7208ZM17.4648 18.5205L17.0617 18.1164C16.8737 17.9277 16.6388 17.7924 16.3811 17.7246L14.3711 17.1939L14.5952 15.6761L17.4498 14.4893L19.3398 16.2218C18.8581 17.0945 18.223 17.8732 17.4648 18.5205Z" fill="#3A343C"/>
</g>
</svg>
