<svg width="25" height="25" viewBox="0 0 25 25" fill="none" xmlns="http://www.w3.org/2000/svg">
<g id="IdentificationCard">
<path id="Vector" d="M18.8711 10.7393C18.8711 10.9382 18.7921 11.1289 18.6514 11.2696C18.5108 11.4102 18.32 11.4893 18.1211 11.4893H14.3711C14.1722 11.4893 13.9814 11.4102 13.8408 11.2696C13.7001 11.1289 13.6211 10.9382 13.6211 10.7393C13.6211 10.5403 13.7001 10.3496 13.8408 10.2089C13.9814 10.0683 14.1722 9.98926 14.3711 9.98926H18.1211C18.32 9.98926 18.5108 10.0683 18.6514 10.2089C18.7921 10.3496 18.8711 10.5403 18.8711 10.7393ZM18.1211 12.9893H14.3711C14.1722 12.9893 13.9814 13.0683 13.8408 13.2089C13.7001 13.3496 13.6211 13.5403 13.6211 13.7393C13.6211 13.9382 13.7001 14.1289 13.8408 14.2696C13.9814 14.4102 14.1722 14.4893 14.3711 14.4893H18.1211C18.32 14.4893 18.5108 14.4102 18.6514 14.2696C18.7921 14.1289 18.8711 13.9382 18.8711 13.7393C18.8711 13.5403 18.7921 13.3496 18.6514 13.2089C18.5108 13.0683 18.32 12.9893 18.1211 12.9893ZM21.8711 5.48926V18.9893C21.8711 19.3871 21.7131 19.7686 21.4318 20.0499C21.1504 20.3312 20.7689 20.4893 20.3711 20.4893H3.87109C3.47327 20.4893 3.09174 20.3312 2.81043 20.0499C2.52913 19.7686 2.37109 19.3871 2.37109 18.9893V5.48926C2.37109 5.09143 2.52913 4.7099 2.81043 4.4286C3.09174 4.14729 3.47327 3.98926 3.87109 3.98926H20.3711C20.7689 3.98926 21.1504 4.14729 21.4318 4.4286C21.7131 4.7099 21.8711 5.09143 21.8711 5.48926ZM20.3711 18.9893V5.48926H3.87109V18.9893H20.3711ZM12.8467 15.8018C12.8964 15.9945 12.8676 16.199 12.7665 16.3704C12.6654 16.5419 12.5004 16.6661 12.3077 16.7158C12.115 16.7655 11.9104 16.7367 11.739 16.6356C11.5676 16.5345 11.4433 16.3695 11.3936 16.1768C11.147 15.2149 10.1692 14.4893 9.12016 14.4893C8.07109 14.4893 7.09422 15.2149 6.84672 16.1768C6.79699 16.3695 6.67275 16.5345 6.50133 16.6356C6.32991 16.7367 6.12535 16.7655 5.93266 16.7158C5.73996 16.6661 5.57491 16.5419 5.47382 16.3704C5.37272 16.199 5.34387 15.9945 5.39359 15.8018C5.63697 14.8959 6.21227 14.1148 7.00516 13.6136C6.58381 13.1948 6.29632 12.6603 6.17911 12.0778C6.06191 11.4954 6.12028 10.8913 6.34681 10.3421C6.57335 9.79287 6.95786 9.32328 7.45159 8.99284C7.94532 8.66241 8.52605 8.48601 9.12016 8.48601C9.71426 8.48601 10.295 8.66241 10.7887 8.99284C11.2825 9.32328 11.667 9.79287 11.8935 10.3421C12.12 10.8913 12.1784 11.4954 12.0612 12.0778C11.944 12.6603 11.6565 13.1948 11.2352 13.6136C12.0289 14.1141 12.6047 14.8954 12.8477 15.8018H12.8467ZM9.12109 12.9893C9.41777 12.9893 9.70778 12.9013 9.95445 12.7365C10.2011 12.5716 10.3934 12.3374 10.5069 12.0633C10.6204 11.7892 10.6501 11.4876 10.5923 11.1966C10.5344 10.9057 10.3915 10.6384 10.1818 10.4286C9.97197 10.2188 9.7047 10.076 9.41373 10.0181C9.12276 9.9602 8.82116 9.98991 8.54707 10.1034C8.27298 10.217 8.03871 10.4092 7.87389 10.6559C7.70907 10.9026 7.62109 11.1926 7.62109 11.4893C7.62109 11.8871 7.77913 12.2686 8.06043 12.5499C8.34174 12.8312 8.72327 12.9893 9.12109 12.9893Z" fill="#3A343C"/>
</g>
</svg>
