<svg width="25" height="35" viewBox="0 0 25 35" fill="none" xmlns="http://www.w3.org/2000/svg">
<path d="M24.9186 16.2481C24.8757 16.0664 24.7885 15.8981 24.6649 15.7581C24.5413 15.6182 24.385 15.511 24.21 15.446L16.0459 12.3835L18.1234 1.99164C18.1704 1.75019 18.1377 1.49999 18.0301 1.27879C17.9224 1.05759 17.7458 0.877406 17.5268 0.765416C17.3077 0.653427 17.0582 0.615712 16.8159 0.657963C16.5736 0.700214 16.3515 0.820138 16.1833 0.999639L0.311375 18.0053C0.182465 18.1412 0.0892091 18.3068 0.0399406 18.4875C-0.00932803 18.6681 -0.0130756 18.8582 0.029033 19.0407C0.0711415 19.2231 0.157794 19.3923 0.28125 19.5331C0.404706 19.674 0.56112 19.782 0.736517 19.8476L8.90349 22.91L6.83164 33.2906C6.78459 33.532 6.81736 33.7822 6.92499 34.0034C7.03262 34.2246 7.20927 34.4048 7.42829 34.5168C7.64731 34.6288 7.89681 34.6665 8.13915 34.6243C8.38148 34.582 8.6035 34.4621 8.7717 34.2826L24.6437 17.2769C24.7702 17.141 24.8615 16.9762 24.9095 16.7968C24.9574 16.6174 24.9605 16.429 24.9186 16.2481ZM9.83739 29.8285L11.3211 22.4055C11.3742 22.1423 11.3322 21.8687 11.2024 21.6336C11.0726 21.3984 10.8636 21.217 10.6126 21.1216L3.1244 18.3086L15.1162 5.4608L13.6339 12.8838C13.5808 13.147 13.6229 13.4206 13.7526 13.6557C13.8824 13.8909 14.0914 14.0723 14.3425 14.1677L21.825 16.9736L9.83739 29.8285Z" fill="#908395"/>
</svg>
