<svg width="44" height="32" viewBox="0 0 44 32" fill="none" xmlns="http://www.w3.org/2000/svg">
<path d="M21.842 3.3337C20.4856 3.92344 18.9375 4.73432 17.1978 5.76636C15.4876 6.76891 14.1164 7.74197 13.0844 8.68555C11.9049 9.74707 10.8287 10.9413 9.85559 12.2682C8.91202 13.5951 8.17485 15.1137 7.64408 16.8239H10.121C12.6863 16.8239 14.603 17.3104 15.8709 18.2835C17.1388 19.2566 17.7728 20.6129 17.7728 22.3527C17.7728 24.5937 16.8292 26.643 14.9421 28.5007C13.0549 30.3288 10.8139 31.2429 8.21908 31.2429C5.47681 31.2429 3.48645 30.5058 2.24801 29.0314C1.03905 27.5276 0.43457 25.5962 0.43457 23.2373C0.43457 18.6078 2.3807 14.1701 6.27295 9.92399C10.1947 5.6779 14.9715 2.43435 20.6035 0.193359L21.842 3.3337ZM43.6474 3.3337C42.291 3.92344 40.743 4.73432 39.0033 5.76636C37.293 6.76891 35.9219 7.74197 34.8899 8.68555C33.7104 9.74707 32.6341 10.9413 31.6611 12.2682C30.7175 13.5951 29.9803 15.1137 29.4496 16.8239H31.9264C34.4918 16.8239 36.4084 17.3104 37.6764 18.2835C38.9443 19.2566 39.5783 20.6129 39.5783 22.3527C39.5783 24.5937 38.6347 26.643 36.7475 28.5007C34.8604 30.3288 32.6194 31.2429 30.0245 31.2429C27.2823 31.2429 25.2919 30.5058 24.0535 29.0314C22.8445 27.5276 22.24 25.5962 22.24 23.2373C22.24 18.6078 24.1862 14.1701 28.0784 9.92399C32.0002 5.6779 36.777 2.43435 42.409 0.193359L43.6474 3.3337Z" fill="#FFAB85"/>
</svg>
