<svg width="33" height="32" viewBox="0 0 33 32" fill="none" xmlns="http://www.w3.org/2000/svg">
<path d="M11.875 15.25H20.875C21.0739 15.25 21.2647 15.329 21.4053 15.4697C21.546 15.6103 21.625 15.8011 21.625 16C21.625 16.1989 21.546 16.3897 21.4053 16.5303C21.2647 16.671 21.0739 16.75 20.875 16.75H11.875C11.6761 16.75 11.4853 16.671 11.3447 16.5303C11.204 16.3897 11.125 16.1989 11.125 16C11.125 15.8011 11.204 15.6103 11.3447 15.4697C11.4853 15.329 11.6761 15.25 11.875 15.25ZM14.125 19.75H10.375C9.38044 19.75 8.42661 19.3549 7.72335 18.6517C7.02009 17.9484 6.625 16.9946 6.625 16C6.625 15.0054 7.02009 14.0516 7.72335 13.3483C8.42661 12.6451 9.38044 12.25 10.375 12.25H14.125C14.3239 12.25 14.5147 12.171 14.6553 12.0303C14.796 11.8897 14.875 11.6989 14.875 11.5C14.875 11.3011 14.796 11.1103 14.6553 10.9697C14.5147 10.829 14.3239 10.75 14.125 10.75H10.375C8.98261 10.75 7.64726 11.3031 6.66269 12.2877C5.67812 13.2723 5.125 14.6076 5.125 16C5.125 17.3924 5.67812 18.7277 6.66269 19.7123C7.64726 20.6969 8.98261 21.25 10.375 21.25H14.125C14.3239 21.25 14.5147 21.171 14.6553 21.0303C14.796 20.8897 14.875 20.6989 14.875 20.5C14.875 20.3011 14.796 20.1103 14.6553 19.9697C14.5147 19.829 14.3239 19.75 14.125 19.75ZM22.375 10.75H18.625C18.4261 10.75 18.2353 10.829 18.0947 10.9697C17.954 11.1103 17.875 11.3011 17.875 11.5C17.875 11.6989 17.954 11.8897 18.0947 12.0303C18.2353 12.171 18.4261 12.25 18.625 12.25H22.375C23.3696 12.25 24.3234 12.6451 25.0266 13.3483C25.7299 14.0516 26.125 15.0054 26.125 16C26.125 16.9946 25.7299 17.9484 25.0266 18.6517C24.3234 19.3549 23.3696 19.75 22.375 19.75H18.625C18.4261 19.75 18.2353 19.829 18.0947 19.9697C17.954 20.1103 17.875 20.3011 17.875 20.5C17.875 20.6989 17.954 20.8897 18.0947 21.0303C18.2353 21.171 18.4261 21.25 18.625 21.25H22.375C23.7674 21.25 25.1027 20.6969 26.0873 19.7123C27.0719 18.7277 27.625 17.3924 27.625 16C27.625 14.6076 27.0719 13.2723 26.0873 12.2877C25.1027 11.3031 23.7674 10.75 22.375 10.75Z" fill="#3A343C"/>
</svg>
