<svg width="33" height="32" viewBox="0 0 33 32" fill="none" xmlns="http://www.w3.org/2000/svg">
<path d="M26.2502 19.75H10.4871C10.7365 19.2587 10.9868 18.7534 11.2371 18.2397C12.6368 18.3944 14.2952 17.4147 16.1815 15.3128C16.2377 15.4684 16.3005 15.6287 16.369 15.7909C16.9793 17.2206 17.7668 18.0353 18.7127 18.2144C19.6821 18.4019 20.6421 17.9116 21.6265 16.7313C22.2658 17.4878 23.5783 18.25 26.2502 18.25C26.4491 18.25 26.6399 18.171 26.7805 18.0303C26.9212 17.8897 27.0002 17.6989 27.0002 17.5C27.0002 17.3011 26.9212 17.1103 26.7805 16.9697C26.6399 16.829 26.4491 16.75 26.2502 16.75C23.3786 16.75 22.5424 15.7572 22.5002 15.2294C22.4956 15.0549 22.4304 14.8875 22.3156 14.756C22.2009 14.6245 22.0439 14.5371 21.8717 14.5089C21.6994 14.4807 21.5228 14.5134 21.3721 14.6014C21.2214 14.6895 21.1061 14.8274 21.0461 14.9913C19.9052 16.7022 19.2293 16.7856 18.9836 16.7406C18.2027 16.5934 17.4761 14.7784 17.2315 13.5991C17.1994 13.4501 17.1228 13.3144 17.0118 13.2101C16.9008 13.1058 16.7606 13.0378 16.61 13.0151C16.4593 12.9924 16.3053 13.0161 16.1685 13.0831C16.0316 13.15 15.9184 13.2571 15.844 13.39C13.9877 15.6981 12.7427 16.4838 11.9618 16.6844C12.7577 14.9144 13.3521 13.3609 13.7327 12.0531C14.3721 9.85563 14.419 8.31906 13.8743 7.35625C13.593 6.85375 13.0033 6.25469 11.8202 6.25H11.7968C10.2968 6.26031 9.11552 7.68437 8.55115 10.1594C8.21459 11.6322 8.15927 13.2709 8.39834 14.6594C8.6374 16.0478 9.13521 17.0509 9.85615 17.6491C9.5074 18.3737 9.15021 19.0816 8.80334 19.7519H6.75021C6.5513 19.7519 6.36053 19.8309 6.21988 19.9715C6.07923 20.1122 6.00021 20.303 6.00021 20.5019C6.00021 20.7008 6.07923 20.8916 6.21988 21.0322C6.36053 21.1729 6.5513 21.2519 6.75021 21.2519H8.0074C6.94615 23.2206 6.12115 24.5931 6.10802 24.6156C6.05455 24.7001 6.0185 24.7944 6.002 24.893C5.98549 24.9915 5.98886 25.0924 6.0119 25.1897C6.03494 25.287 6.07719 25.3786 6.13617 25.4594C6.19515 25.5401 6.26967 25.6082 6.35534 25.6596C6.44102 25.7111 6.53612 25.745 6.63507 25.7592C6.73401 25.7734 6.8348 25.7677 6.9315 25.7424C7.02821 25.7171 7.11888 25.6727 7.19819 25.6119C7.2775 25.5511 7.34385 25.475 7.39334 25.3881C7.4074 25.3638 8.4499 23.6266 9.70896 21.2519H26.2502C26.4491 21.2519 26.6399 21.1729 26.7805 21.0322C26.9212 20.8916 27.0002 20.7008 27.0002 20.5019C27.0002 20.303 26.9212 20.1122 26.7805 19.9715C26.6399 19.8309 26.4491 19.7519 26.2502 19.7519V19.75ZM22.5002 15.25V15.2303C22.5008 15.2369 22.5008 15.2435 22.5002 15.25ZM10.0118 10.4931C10.3858 8.85438 11.1077 7.75 11.8127 7.75C12.3049 7.75 12.469 7.92437 12.5627 8.09406C12.844 8.59375 13.174 10.3619 10.533 16.1912C9.76521 15.1328 9.50365 12.7188 10.0118 10.4931Z" fill="#3A343C"/>
</svg>
