<svg width="32" height="32" viewBox="0 0 32 32" fill="none" xmlns="http://www.w3.org/2000/svg">
<path d="M23.6558 15.4697C23.7255 15.5393 23.7808 15.622 23.8186 15.7131C23.8563 15.8041 23.8757 15.9017 23.8757 16.0003C23.8757 16.0989 23.8563 16.1964 23.8186 16.2875C23.7808 16.3785 23.7255 16.4613 23.6558 16.5309L15.9636 24.2184C14.9788 25.203 13.6433 25.7561 12.2508 25.756C10.8582 25.756 9.52274 25.2027 8.53812 24.2179C7.5535 23.2332 7.0004 21.8977 7.00049 20.5051C7.00058 19.1126 7.55385 17.7771 8.53859 16.7925L17.8442 7.34998C18.5472 6.6462 19.5011 6.25053 20.4958 6.25C21.4906 6.24947 22.4448 6.64414 23.1486 7.34717C23.8524 8.0502 24.248 9.00401 24.2486 9.99877C24.2491 10.9935 23.8544 11.9478 23.1514 12.6515L13.8439 22.094C13.4212 22.5167 12.8479 22.7542 12.2501 22.7542C11.6524 22.7542 11.0791 22.5167 10.6564 22.094C10.2337 21.6714 9.99625 21.0981 9.99625 20.5003C9.99625 19.9025 10.2337 19.3292 10.6564 18.9065L18.4658 10.9734C18.5342 10.9004 18.6165 10.8419 18.7079 10.8012C18.7993 10.7605 18.8979 10.7385 18.9979 10.7365C19.0979 10.7345 19.1973 10.7525 19.2902 10.7895C19.3832 10.8265 19.4678 10.8816 19.539 10.9518C19.6103 11.022 19.6669 11.1057 19.7053 11.198C19.7438 11.2904 19.7634 11.3895 19.7629 11.4895C19.7625 11.5895 19.7421 11.6885 19.7029 11.7805C19.6636 11.8725 19.6064 11.9557 19.5345 12.0253L11.7242 19.9669C11.6543 20.0362 11.5987 20.1187 11.5606 20.2096C11.5226 20.3004 11.5028 20.3979 11.5024 20.4964C11.502 20.5949 11.521 20.6925 11.5584 20.7836C11.5957 20.8748 11.6506 20.9577 11.72 21.0276C11.7894 21.0976 11.8718 21.1531 11.9627 21.1912C12.0535 21.2293 12.151 21.2491 12.2495 21.2494C12.348 21.2498 12.4456 21.2308 12.5368 21.1935C12.6279 21.1562 12.7108 21.1012 12.7808 21.0319L22.0873 11.594C22.51 11.1722 22.7478 10.5998 22.7485 10.0026C22.7491 9.40545 22.5124 8.83251 22.0906 8.40982C21.6688 7.98713 21.0963 7.74932 20.4992 7.74871C19.902 7.74809 19.3291 7.98472 18.9064 8.40654L9.60265 17.8453C9.25411 18.1933 8.97753 18.6065 8.78869 19.0614C8.59985 19.5162 8.50246 20.0039 8.50207 20.4964C8.50167 20.9889 8.59829 21.4767 8.78641 21.9318C8.97452 22.387 9.25045 22.8007 9.59843 23.1492C9.94641 23.4977 10.3596 23.7743 10.8145 23.9632C11.2694 24.152 11.757 24.2494 12.2495 24.2498C12.742 24.2502 13.2298 24.1536 13.685 23.9654C14.1401 23.7773 14.5538 23.5014 14.9023 23.1534L22.5955 15.4659C22.7366 15.3259 22.9276 15.2476 23.1264 15.2483C23.3252 15.249 23.5156 15.3286 23.6558 15.4697Z" fill="#3A343C"/>
</svg>
