<svg width="33" height="32" viewBox="0 0 33 32" fill="none" xmlns="http://www.w3.org/2000/svg">
<path d="M24.125 7H9.125C8.72718 7 8.34564 7.15804 8.06434 7.43934C7.78304 7.72064 7.625 8.10218 7.625 8.5V23.5C7.625 23.8978 7.78304 24.2794 8.06434 24.5607C8.34564 24.842 8.72718 25 9.125 25H24.125C24.5228 25 24.9044 24.842 25.1857 24.5607C25.467 24.2794 25.625 23.8978 25.625 23.5V8.5C25.625 8.10218 25.467 7.72064 25.1857 7.43934C24.9044 7.15804 24.5228 7 24.125 7ZM9.125 8.5H24.125V15.7544L21.8103 13.4388C21.529 13.1577 21.1477 12.9998 20.75 12.9998C20.3523 12.9998 19.971 13.1577 19.6897 13.4388L9.62844 23.5H9.125V8.5ZM24.125 23.5H11.75L20.75 14.5L24.125 17.875V23.5ZM13.625 15.25C14.07 15.25 14.505 15.118 14.875 14.8708C15.245 14.6236 15.5334 14.2722 15.7037 13.861C15.874 13.4499 15.9186 12.9975 15.8318 12.561C15.745 12.1246 15.5307 11.7237 15.216 11.409C14.9013 11.0943 14.5004 10.88 14.064 10.7932C13.6275 10.7064 13.1751 10.751 12.764 10.9213C12.3528 11.0916 12.0014 11.38 11.7542 11.75C11.507 12.12 11.375 12.555 11.375 13C11.375 13.5967 11.6121 14.169 12.034 14.591C12.456 15.0129 13.0283 15.25 13.625 15.25ZM13.625 12.25C13.7733 12.25 13.9183 12.294 14.0417 12.3764C14.165 12.4588 14.2611 12.5759 14.3179 12.713C14.3747 12.85 14.3895 13.0008 14.3606 13.1463C14.3317 13.2918 14.2602 13.4254 14.1553 13.5303C14.0504 13.6352 13.9168 13.7067 13.7713 13.7356C13.6258 13.7645 13.475 13.7497 13.338 13.6929C13.2009 13.6361 13.0838 13.54 13.0014 13.4167C12.919 13.2933 12.875 13.1483 12.875 13C12.875 12.8011 12.954 12.6103 13.0947 12.4697C13.2353 12.329 13.4261 12.25 13.625 12.25Z" fill="#3A343C"/>
</svg>
