<svg width="33" height="32" viewBox="0 0 33 32" fill="none" xmlns="http://www.w3.org/2000/svg">
<path d="M7.875 10C7.875 9.80109 7.95402 9.61032 8.09467 9.46967C8.23532 9.32902 8.42609 9.25 8.625 9.25H25.125C25.3239 9.25 25.5147 9.32902 25.6553 9.46967C25.796 9.61032 25.875 9.80109 25.875 10C25.875 10.1989 25.796 10.3897 25.6553 10.5303C25.5147 10.671 25.3239 10.75 25.125 10.75H8.625C8.42609 10.75 8.23532 10.671 8.09467 10.5303C7.95402 10.3897 7.875 10.1989 7.875 10ZM25.125 13H13.125C12.9261 13 12.7353 13.079 12.5947 13.2197C12.454 13.3603 12.375 13.5511 12.375 13.75C12.375 13.9489 12.454 14.1397 12.5947 14.2803C12.7353 14.421 12.9261 14.5 13.125 14.5H25.125C25.3239 14.5 25.5147 14.421 25.6553 14.2803C25.796 14.1397 25.875 13.9489 25.875 13.75C25.875 13.5511 25.796 13.3603 25.6553 13.2197C25.5147 13.079 25.3239 13 25.125 13ZM25.125 16.75H8.625C8.42609 16.75 8.23532 16.829 8.09467 16.9697C7.95402 17.1103 7.875 17.3011 7.875 17.5C7.875 17.6989 7.95402 17.8897 8.09467 18.0303C8.23532 18.171 8.42609 18.25 8.625 18.25H25.125C25.3239 18.25 25.5147 18.171 25.6553 18.0303C25.796 17.8897 25.875 17.6989 25.875 17.5C25.875 17.3011 25.796 17.1103 25.6553 16.9697C25.5147 16.829 25.3239 16.75 25.125 16.75ZM25.125 20.5H13.125C12.9261 20.5 12.7353 20.579 12.5947 20.7197C12.454 20.8603 12.375 21.0511 12.375 21.25C12.375 21.4489 12.454 21.6397 12.5947 21.7803C12.7353 21.921 12.9261 22 13.125 22H25.125C25.3239 22 25.5147 21.921 25.6553 21.7803C25.796 21.6397 25.875 21.4489 25.875 21.25C25.875 21.0511 25.796 20.8603 25.6553 20.7197C25.5147 20.579 25.3239 20.5 25.125 20.5Z" fill="#3A343C"/>
</svg>
