<svg width="33" height="32" viewBox="0 0 33 32" fill="none" xmlns="http://www.w3.org/2000/svg">
<path d="M7.25 10C7.25 9.80109 7.32902 9.61032 7.46967 9.46967C7.61032 9.32902 7.80109 9.25 8 9.25H24.5C24.6989 9.25 24.8897 9.32902 25.0303 9.46967C25.171 9.61032 25.25 9.80109 25.25 10C25.25 10.1989 25.171 10.3897 25.0303 10.5303C24.8897 10.671 24.6989 10.75 24.5 10.75H8C7.80109 10.75 7.61032 10.671 7.46967 10.5303C7.32902 10.3897 7.25 10.1989 7.25 10ZM10.25 13C10.0511 13 9.86032 13.079 9.71967 13.2197C9.57902 13.3603 9.5 13.5511 9.5 13.75C9.5 13.9489 9.57902 14.1397 9.71967 14.2803C9.86032 14.421 10.0511 14.5 10.25 14.5H22.25C22.4489 14.5 22.6397 14.421 22.7803 14.2803C22.921 14.1397 23 13.9489 23 13.75C23 13.5511 22.921 13.3603 22.7803 13.2197C22.6397 13.079 22.4489 13 22.25 13H10.25ZM24.5 16.75H8C7.80109 16.75 7.61032 16.829 7.46967 16.9697C7.32902 17.1103 7.25 17.3011 7.25 17.5C7.25 17.6989 7.32902 17.8897 7.46967 18.0303C7.61032 18.171 7.80109 18.25 8 18.25H24.5C24.6989 18.25 24.8897 18.171 25.0303 18.0303C25.171 17.8897 25.25 17.6989 25.25 17.5C25.25 17.3011 25.171 17.1103 25.0303 16.9697C24.8897 16.829 24.6989 16.75 24.5 16.75ZM22.25 20.5H10.25C10.0511 20.5 9.86032 20.579 9.71967 20.7197C9.57902 20.8603 9.5 21.0511 9.5 21.25C9.5 21.4489 9.57902 21.6397 9.71967 21.7803C9.86032 21.921 10.0511 22 10.25 22H22.25C22.4489 22 22.6397 21.921 22.7803 21.7803C22.921 21.6397 23 21.4489 23 21.25C23 21.0511 22.921 20.8603 22.7803 20.7197C22.6397 20.579 22.4489 20.5 22.25 20.5Z" fill="#3A343C"/>
</svg>
