<svg width="33" height="32" viewBox="0 0 33 32" fill="none" xmlns="http://www.w3.org/2000/svg">
<path d="M7.625 10C7.625 9.80109 7.70402 9.61032 7.84467 9.46967C7.98532 9.32902 8.17609 9.25 8.375 9.25H24.875C25.0739 9.25 25.2647 9.32902 25.4053 9.46967C25.546 9.61032 25.625 9.80109 25.625 10C25.625 10.1989 25.546 10.3897 25.4053 10.5303C25.2647 10.671 25.0739 10.75 24.875 10.75H8.375C8.17609 10.75 7.98532 10.671 7.84467 10.5303C7.70402 10.3897 7.625 10.1989 7.625 10ZM8.375 14.5H20.375C20.5739 14.5 20.7647 14.421 20.9053 14.2803C21.046 14.1397 21.125 13.9489 21.125 13.75C21.125 13.5511 21.046 13.3603 20.9053 13.2197C20.7647 13.079 20.5739 13 20.375 13H8.375C8.17609 13 7.98532 13.079 7.84467 13.2197C7.70402 13.3603 7.625 13.5511 7.625 13.75C7.625 13.9489 7.70402 14.1397 7.84467 14.2803C7.98532 14.421 8.17609 14.5 8.375 14.5ZM24.875 16.75H8.375C8.17609 16.75 7.98532 16.829 7.84467 16.9697C7.70402 17.1103 7.625 17.3011 7.625 17.5C7.625 17.6989 7.70402 17.8897 7.84467 18.0303C7.98532 18.171 8.17609 18.25 8.375 18.25H24.875C25.0739 18.25 25.2647 18.171 25.4053 18.0303C25.546 17.8897 25.625 17.6989 25.625 17.5C25.625 17.3011 25.546 17.1103 25.4053 16.9697C25.2647 16.829 25.0739 16.75 24.875 16.75ZM20.375 20.5H8.375C8.17609 20.5 7.98532 20.579 7.84467 20.7197C7.70402 20.8603 7.625 21.0511 7.625 21.25C7.625 21.4489 7.70402 21.6397 7.84467 21.7803C7.98532 21.921 8.17609 22 8.375 22H20.375C20.5739 22 20.7647 21.921 20.9053 21.7803C21.046 21.6397 21.125 21.4489 21.125 21.25C21.125 21.0511 21.046 20.8603 20.9053 20.7197C20.7647 20.579 20.5739 20.5 20.375 20.5Z" fill="#3A343C"/>
</svg>
