<svg width="33" height="32" viewBox="0 0 33 32" fill="none" xmlns="http://www.w3.org/2000/svg">
<path d="M20.5944 16.2198L23.8147 13.0004H12.875C11.6815 13.0004 10.5369 13.4745 9.69302 14.3184C8.84911 15.1624 8.375 16.3069 8.375 17.5004C8.375 18.6939 8.84911 19.8385 9.69302 20.6824C10.5369 21.5263 11.6815 22.0004 12.875 22.0004H21.125C21.3239 22.0004 21.5147 22.0794 21.6553 22.2201C21.796 22.3607 21.875 22.5515 21.875 22.7504C21.875 22.9493 21.796 23.1401 21.6553 23.2807C21.5147 23.4214 21.3239 23.5004 21.125 23.5004H12.875C11.2837 23.5004 9.75758 22.8683 8.63236 21.7431C7.50714 20.6178 6.875 19.0917 6.875 17.5004C6.875 15.9091 7.50714 14.383 8.63236 13.2578C9.75758 12.1326 11.2837 11.5004 12.875 11.5004H23.8147L20.5944 8.28104C20.5247 8.21136 20.4694 8.12863 20.4317 8.03759C20.394 7.94654 20.3746 7.84896 20.3746 7.75042C20.3746 7.65187 20.394 7.55429 20.4317 7.46324C20.4694 7.3722 20.5247 7.28947 20.5944 7.21979C20.6641 7.15011 20.7468 7.09483 20.8378 7.05712C20.9289 7.01941 21.0265 7 21.125 7C21.2235 7 21.3211 7.01941 21.4122 7.05712C21.5032 7.09483 21.5859 7.15011 21.6556 7.21979L26.1556 11.7198C26.2254 11.7894 26.2807 11.8722 26.3184 11.9632C26.3562 12.0543 26.3756 12.1519 26.3756 12.2504C26.3756 12.349 26.3562 12.4466 26.3184 12.5376C26.2807 12.6287 26.2254 12.7114 26.1556 12.781L21.6556 17.281C21.5149 17.4218 21.324 17.5008 21.125 17.5008C20.926 17.5008 20.7351 17.4218 20.5944 17.281C20.4536 17.1403 20.3746 16.9494 20.3746 16.7504C20.3746 16.5514 20.4536 16.3605 20.5944 16.2198Z" fill="#3A343C"/>
</svg>
