<svg width="32" height="32" viewBox="0 0 32 32" fill="none" xmlns="http://www.w3.org/2000/svg">
<path d="M25.7501 17.5004C25.7484 19.0912 25.1157 20.6163 23.9908 21.7411C22.866 22.866 21.3409 23.4987 19.7501 23.5004H11.5001C11.3012 23.5004 11.1104 23.4214 10.9698 23.2807C10.8291 23.1401 10.7501 22.9493 10.7501 22.7504C10.7501 22.5515 10.8291 22.3607 10.9698 22.2201C11.1104 22.0794 11.3012 22.0004 11.5001 22.0004H19.7501C20.9436 22.0004 22.0882 21.5263 22.9321 20.6824C23.776 19.8385 24.2501 18.6939 24.2501 17.5004C24.2501 16.3069 23.776 15.1624 22.9321 14.3184C22.0882 13.4745 20.9436 13.0004 19.7501 13.0004H8.81041L12.0307 16.2198C12.1715 16.3605 12.2505 16.5514 12.2505 16.7504C12.2505 16.9494 12.1715 17.1403 12.0307 17.281C11.89 17.4218 11.6991 17.5008 11.5001 17.5008C11.3011 17.5008 11.1102 17.4218 10.9695 17.281L6.46948 12.781C6.39974 12.7114 6.34442 12.6287 6.30668 12.5376C6.26894 12.4466 6.24951 12.349 6.24951 12.2504C6.24951 12.1519 6.26894 12.0543 6.30668 11.9632C6.34442 11.8722 6.39974 11.7894 6.46948 11.7198L10.9695 7.21979C11.1102 7.07906 11.3011 7 11.5001 7C11.6991 7 11.89 7.07906 12.0307 7.21979C12.1715 7.36052 12.2505 7.55139 12.2505 7.75042C12.2505 7.94944 12.1715 8.14031 12.0307 8.28104L8.81041 11.5004H19.7501C21.3409 11.5022 22.866 12.1349 23.9908 13.2597C25.1157 14.3845 25.7484 15.9097 25.7501 17.5004Z" fill="#3A343C"/>
</svg>
