<svg width="33" height="32" viewBox="0 0 33 32" fill="none" xmlns="http://www.w3.org/2000/svg">
<path d="M11.625 10C11.625 9.80109 11.704 9.61032 11.8447 9.46967C11.9853 9.32902 12.1761 9.25 12.375 9.25H24.375C24.5739 9.25 24.7647 9.32902 24.9053 9.46967C25.046 9.61032 25.125 9.80109 25.125 10C25.125 10.1989 25.046 10.3897 24.9053 10.5303C24.7647 10.671 24.5739 10.75 24.375 10.75H12.375C12.1761 10.75 11.9853 10.671 11.8447 10.5303C11.704 10.3897 11.625 10.1989 11.625 10ZM24.375 15.25H12.375C12.1761 15.25 11.9853 15.329 11.8447 15.4697C11.704 15.6103 11.625 15.8011 11.625 16C11.625 16.1989 11.704 16.3897 11.8447 16.5303C11.9853 16.671 12.1761 16.75 12.375 16.75H24.375C24.5739 16.75 24.7647 16.671 24.9053 16.5303C25.046 16.3897 25.125 16.1989 25.125 16C25.125 15.8011 25.046 15.6103 24.9053 15.4697C24.7647 15.329 24.5739 15.25 24.375 15.25ZM24.375 21.25H12.375C12.1761 21.25 11.9853 21.329 11.8447 21.4697C11.704 21.6103 11.625 21.8011 11.625 22C11.625 22.1989 11.704 22.3897 11.8447 22.5303C11.9853 22.671 12.1761 22.75 12.375 22.75H24.375C24.5739 22.75 24.7647 22.671 24.9053 22.5303C25.046 22.3897 25.125 22.1989 25.125 22C25.125 21.8011 25.046 21.6103 24.9053 21.4697C24.7647 21.329 24.5739 21.25 24.375 21.25ZM8.25 8.875C8.0275 8.875 7.80999 8.94098 7.62498 9.0646C7.43998 9.18821 7.29578 9.36391 7.21064 9.56948C7.12549 9.77505 7.10321 10.0012 7.14662 10.2195C7.19003 10.4377 7.29717 10.6382 7.45451 10.7955C7.61184 10.9528 7.8123 11.06 8.03052 11.1034C8.24875 11.1468 8.47495 11.1245 8.68052 11.0394C8.88609 10.9542 9.06179 10.81 9.1854 10.625C9.30902 10.44 9.375 10.2225 9.375 10C9.375 9.70163 9.25647 9.41548 9.0455 9.2045C8.83452 8.99353 8.54837 8.875 8.25 8.875ZM8.25 14.875C8.0275 14.875 7.80999 14.941 7.62498 15.0646C7.43998 15.1882 7.29578 15.3639 7.21064 15.5695C7.12549 15.775 7.10321 16.0012 7.14662 16.2195C7.19003 16.4377 7.29717 16.6382 7.45451 16.7955C7.61184 16.9528 7.8123 17.06 8.03052 17.1034C8.24875 17.1468 8.47495 17.1245 8.68052 17.0394C8.88609 16.9542 9.06179 16.81 9.1854 16.625C9.30902 16.44 9.375 16.2225 9.375 16C9.375 15.7016 9.25647 15.4155 9.0455 15.2045C8.83452 14.9935 8.54837 14.875 8.25 14.875ZM8.25 20.875C8.0275 20.875 7.80999 20.941 7.62498 21.0646C7.43998 21.1882 7.29578 21.3639 7.21064 21.5695C7.12549 21.775 7.10321 22.0012 7.14662 22.2195C7.19003 22.4377 7.29717 22.6382 7.45451 22.7955C7.61184 22.9528 7.8123 23.06 8.03052 23.1034C8.24875 23.1468 8.47495 23.1245 8.68052 23.0394C8.88609 22.9542 9.06179 22.81 9.1854 22.625C9.30902 22.44 9.375 22.2225 9.375 22C9.375 21.7016 9.25647 21.4155 9.0455 21.2045C8.83452 20.9935 8.54837 20.875 8.25 20.875Z" fill="#3A343C"/>
</svg>
