<svg width="33" height="32" viewBox="0 0 33 32" fill="none" xmlns="http://www.w3.org/2000/svg">
<path d="M23.25 9.25C23.25 9.44891 23.171 9.63968 23.0303 9.78033C22.8897 9.92098 22.6989 10 22.5 10H19.2909L15.2906 22H18C18.1989 22 18.3897 22.079 18.5303 22.2197C18.671 22.3603 18.75 22.5511 18.75 22.75C18.75 22.9489 18.671 23.1397 18.5303 23.2803C18.3897 23.421 18.1989 23.5 18 23.5H10.5C10.3011 23.5 10.1103 23.421 9.96967 23.2803C9.82902 23.1397 9.75 22.9489 9.75 22.75C9.75 22.5511 9.82902 22.3603 9.96967 22.2197C10.1103 22.079 10.3011 22 10.5 22H13.7091L17.7094 10H15C14.8011 10 14.6103 9.92098 14.4697 9.78033C14.329 9.63968 14.25 9.44891 14.25 9.25C14.25 9.05109 14.329 8.86032 14.4697 8.71967C14.6103 8.57902 14.8011 8.5 15 8.5H22.5C22.6989 8.5 22.8897 8.57902 23.0303 8.71967C23.171 8.86032 23.25 9.05109 23.25 9.25Z" fill="#3A343C"/>
</svg>
