<svg width="33" height="32" viewBox="0 0 33 32" fill="none" xmlns="http://www.w3.org/2000/svg">
<path d="M20.8575 14.8469C21.4499 14.2766 21.8584 13.5423 22.0305 12.7383C22.2025 11.9342 22.1304 11.0971 21.8233 10.3343C21.5162 9.57154 20.9881 8.91797 20.3068 8.45749C19.6256 7.99701 18.8223 7.75064 18 7.75H11.625C11.4261 7.75 11.2353 7.82902 11.0947 7.96967C10.954 8.11032 10.875 8.30109 10.875 8.5V22.75C10.875 22.9489 10.954 23.1397 11.0947 23.2803C11.2353 23.421 11.4261 23.5 11.625 23.5H19.125C20.1651 23.5 21.1731 23.1397 21.9776 22.4803C22.782 21.821 23.3332 20.9033 23.5374 19.8834C23.7416 18.8636 23.5862 17.8044 23.0976 16.8862C22.609 15.968 21.8175 15.2473 20.8575 14.8469ZM12.375 9.25H18C18.6962 9.25 19.3639 9.52656 19.8562 10.0188C20.3484 10.5111 20.625 11.1788 20.625 11.875C20.625 12.5712 20.3484 13.2389 19.8562 13.7312C19.3639 14.2234 18.6962 14.5 18 14.5H12.375V9.25ZM19.125 22H12.375V16H19.125C19.9206 16 20.6837 16.3161 21.2463 16.8787C21.8089 17.4413 22.125 18.2044 22.125 19C22.125 19.7956 21.8089 20.5587 21.2463 21.1213C20.6837 21.6839 19.9206 22 19.125 22Z" fill="#3A343C"/>
</svg>
