<svg width="33" height="32" viewBox="0 0 33 32" fill="none" xmlns="http://www.w3.org/2000/svg">
<path d="M22.875 25C22.875 25.1989 22.796 25.3897 22.6553 25.5303C22.5147 25.671 22.3239 25.75 22.125 25.75H10.125C9.92609 25.75 9.73532 25.671 9.59467 25.5303C9.45402 25.3897 9.375 25.1989 9.375 25C9.375 24.8011 9.45402 24.6103 9.59467 24.4697C9.73532 24.329 9.92609 24.25 10.125 24.25H22.125C22.3239 24.25 22.5147 24.329 22.6553 24.4697C22.796 24.6103 22.875 24.8011 22.875 25ZM16.125 22.75C17.7158 22.7483 19.2409 22.1156 20.3657 20.9907C21.4906 19.8659 22.1233 18.3408 22.125 16.75V9.25C22.125 9.05109 22.046 8.86032 21.9053 8.71967C21.7647 8.57902 21.5739 8.5 21.375 8.5C21.1761 8.5 20.9853 8.57902 20.8447 8.71967C20.704 8.86032 20.625 9.05109 20.625 9.25V16.75C20.625 17.9435 20.1509 19.0881 19.307 19.932C18.4631 20.7759 17.3185 21.25 16.125 21.25C14.9315 21.25 13.7869 20.7759 12.943 19.932C12.0991 19.0881 11.625 17.9435 11.625 16.75V9.25C11.625 9.05109 11.546 8.86032 11.4053 8.71967C11.2647 8.57902 11.0739 8.5 10.875 8.5C10.6761 8.5 10.4853 8.57902 10.3447 8.71967C10.204 8.86032 10.125 9.05109 10.125 9.25V16.75C10.1267 18.3408 10.7594 19.8659 11.8843 20.9907C13.0091 22.1156 14.5342 22.7483 16.125 22.75Z" fill="#3A343C"/>
</svg>
