<svg width="33" height="32" viewBox="0 0 33 32" fill="none" xmlns="http://www.w3.org/2000/svg">
<path d="M27.2953 23.9144L22.0453 13.4144C21.983 13.2898 21.8873 13.1851 21.7688 13.1119C21.6503 13.0386 21.5138 12.9999 21.3745 12.9999C21.2353 12.9999 21.0987 13.0386 20.9803 13.1119C20.8618 13.1851 20.766 13.2898 20.7037 13.4144L18.6684 17.4859C17.0731 17.3962 15.5381 16.8452 14.25 15.8997C15.7613 14.2857 16.677 12.2046 16.8459 10H19.125C19.3239 10 19.5147 9.92098 19.6553 9.78033C19.796 9.63968 19.875 9.44891 19.875 9.25C19.875 9.05109 19.796 8.86032 19.6553 8.71967C19.5147 8.57902 19.3239 8.5 19.125 8.5H13.875V7C13.875 6.80109 13.796 6.61032 13.6553 6.46967C13.5147 6.32902 13.3239 6.25 13.125 6.25C12.9261 6.25 12.7353 6.32902 12.5947 6.46967C12.454 6.61032 12.375 6.80109 12.375 7V8.5H7.125C6.92609 8.5 6.73532 8.57902 6.59467 8.71967C6.45402 8.86032 6.375 9.05109 6.375 9.25C6.375 9.44891 6.45402 9.63968 6.59467 9.78033C6.73532 9.92098 6.92609 10 7.125 10H15.3403C15.1733 11.8381 14.393 13.5667 13.125 14.9078C12.3348 14.0741 11.7281 13.0841 11.3438 12.0016C11.3121 11.9071 11.2621 11.8199 11.1964 11.745C11.1307 11.6702 11.0508 11.6091 10.9613 11.5654C10.8718 11.5218 10.7745 11.4964 10.675 11.4907C10.5756 11.4851 10.476 11.4993 10.3822 11.5326C10.2883 11.5658 10.202 11.6174 10.1282 11.6844C10.0545 11.7513 9.99487 11.8323 9.95278 11.9226C9.91069 12.0128 9.88699 12.1106 9.88308 12.2101C9.87917 12.3096 9.89512 12.4089 9.93 12.5022C10.3774 13.7677 11.0823 14.9267 12 15.9062C10.587 16.9446 8.87853 17.5031 7.125 17.5C6.92609 17.5 6.73532 17.579 6.59467 17.7197C6.45402 17.8603 6.375 18.0511 6.375 18.25C6.375 18.4489 6.45402 18.6397 6.59467 18.7803C6.73532 18.921 6.92609 19 7.125 19C9.30055 19.0024 11.4137 18.2734 13.125 16.93C14.5215 18.0211 16.1885 18.7117 17.9475 18.9278L15.4537 23.9144C15.3647 24.0923 15.35 24.2983 15.4129 24.487C15.4757 24.6757 15.611 24.8318 15.7889 24.9208C15.9668 25.0098 16.1728 25.0245 16.3615 24.9616C16.5503 24.8988 16.7063 24.7635 16.7953 24.5856L18.0881 22H24.6609L25.9538 24.5856C26.0161 24.7102 26.1119 24.815 26.2305 24.8882C26.3491 24.9614 26.4857 25.0001 26.625 25C26.7528 24.9999 26.8785 24.9672 26.9901 24.9049C27.1018 24.8426 27.1956 24.7528 27.2628 24.644C27.3299 24.5353 27.3682 24.4111 27.3739 24.2834C27.3796 24.1557 27.3525 24.0287 27.2953 23.9144ZM18.8381 20.5L21.375 15.4272L23.9109 20.5H18.8381Z" fill="#3A343C"/>
</svg>
