<svg width="24" height="25" viewBox="0 0 24 25" fill="none" xmlns="http://www.w3.org/2000/svg">
<path d="M21.7299 18.0621C22.2589 16.9869 22.5225 15.8006 22.4987 14.6026C22.4749 13.4046 22.1644 12.2297 21.5932 11.1763C21.022 10.1229 20.2067 9.22175 19.2156 8.54825C18.2245 7.87475 17.0865 7.44853 15.8968 7.30527C15.5023 6.38551 14.9276 5.55403 14.2067 4.8598C13.4859 4.16556 12.6333 3.62264 11.6994 3.263C10.7654 2.90336 9.76889 2.73428 8.76857 2.76573C7.76825 2.79718 6.78434 3.02851 5.87482 3.44611C4.96529 3.86371 4.14854 4.45912 3.47269 5.19726C2.79683 5.9354 2.27555 6.80134 1.93955 7.74407C1.60355 8.6868 1.45963 9.68724 1.51626 10.6864C1.5729 11.6857 1.82895 12.6634 2.26932 13.5621L1.5512 16.0765C1.48712 16.3015 1.48431 16.5394 1.54307 16.7658C1.60182 16.9922 1.72001 17.1988 1.8854 17.3642C2.05079 17.5296 2.25736 17.6478 2.48376 17.7065C2.71015 17.7653 2.94813 17.7625 3.17307 17.6984L5.68745 16.9803C6.44618 17.3528 7.26232 17.5946 8.10151 17.6956C8.50154 18.6328 9.08836 19.4787 9.82615 20.1816C10.5639 20.8844 11.4372 21.4296 12.3927 21.7838C13.3482 22.138 14.3658 22.2937 15.3835 22.2415C16.4012 22.1893 17.3976 21.9303 18.3118 21.4803L20.8262 22.1984C21.0511 22.2625 21.2891 22.2653 21.5155 22.2065C21.7419 22.1478 21.9485 22.0296 22.1139 21.8642C22.2793 21.6988 22.3974 21.4922 22.4562 21.2658C22.515 21.0394 22.5122 20.8015 22.4481 20.5765L21.7299 18.0621ZM5.76807 15.4278C5.69837 15.4278 5.62899 15.4372 5.56182 15.4559L3.08589 16.1637L3.7937 13.6878C3.84674 13.4991 3.82386 13.2972 3.72995 13.1253C3.04034 11.8592 2.83004 10.387 3.1376 8.97854C3.44515 7.57003 4.24996 6.31952 5.40454 5.45614C6.55913 4.59277 7.98616 4.17436 9.42416 4.27758C10.8622 4.38081 12.2148 4.99875 13.2342 6.01818C14.2537 7.03761 14.8716 8.39026 14.9748 9.82825C15.0781 11.2662 14.6596 12.6933 13.7963 13.8479C12.9329 15.0025 11.6824 15.8073 10.2739 16.1148C8.86537 16.4224 7.3932 16.2121 6.12714 15.5225C6.01737 15.4611 5.89384 15.4285 5.76807 15.4278ZM20.2056 18.1878L20.9134 20.6637L18.4375 19.9559C18.2488 19.9029 18.0469 19.9257 17.875 20.0196C16.4924 20.7718 14.8699 20.9512 13.3564 20.5192C11.843 20.0872 10.5596 19.0783 9.78245 17.7097C10.8094 17.6027 11.8032 17.2847 12.7015 16.7755C13.5998 16.2663 14.3831 15.577 15.0024 14.7507C15.6216 13.9245 16.0635 12.9792 16.3002 11.9742C16.5368 10.9691 16.5633 9.92601 16.3778 8.91027C17.2765 9.12207 18.1142 9.53843 18.8256 10.1269C19.5371 10.7154 20.1032 11.4602 20.4798 12.3032C20.8563 13.1463 21.0332 14.0649 20.9968 14.9875C20.9603 15.9101 20.7113 16.8118 20.2693 17.6225C20.1747 17.7952 20.1518 17.9983 20.2056 18.1878Z" fill="#3A343C"/>
</svg>
