<svg width="24" height="25" viewBox="0 0 24 25" fill="none" xmlns="http://www.w3.org/2000/svg">
<path d="M15.8972 7.30537C15.2184 5.71627 14.0118 4.41029 12.4812 3.60822C10.9506 2.80616 9.19006 2.55721 7.49712 2.90347C5.80418 3.24973 4.28274 4.16996 3.19001 5.50857C2.09727 6.84719 1.5003 8.52207 1.5 10.2501V16.4376C1.5 16.7857 1.63828 17.1195 1.88442 17.3656C2.13056 17.6118 2.4644 17.7501 2.8125 17.7501H8.12531C8.71058 19.0866 9.67231 20.2238 10.8931 21.0229C12.1139 21.822 13.5409 22.2484 15 22.2501H21.1875C21.5356 22.2501 21.8694 22.1118 22.1156 21.8656C22.3617 21.6195 22.5 21.2857 22.5 20.9376V14.7501C22.4996 12.9166 21.8277 11.1467 20.6111 9.77497C19.3945 8.40325 17.7175 7.52471 15.8972 7.30537ZM21 20.7501H15C13.939 20.7488 12.8973 20.467 11.9805 19.933C11.0637 19.399 10.3045 18.632 9.78 17.7097C10.8072 17.6032 11.8013 17.2854 12.6999 16.7763C13.5985 16.2673 14.3822 15.578 15.0018 14.7518C15.6213 13.9255 16.0634 12.9801 16.3003 11.9749C16.5371 10.9697 16.5636 9.92633 16.3781 8.91037C17.6937 9.22084 18.8659 9.96644 19.7048 11.0263C20.5436 12.0862 21 13.3984 21 14.7501V20.7501Z" fill="#6E3A82"/>
</svg>
