<svg width="14" height="14" viewBox="0 0 14 14" fill="none" xmlns="http://www.w3.org/2000/svg">
<circle cx="7" cy="7" r="7" fill="#F3F1F3"/>
<path d="M10.3463 5.97102L7.22127 9.09602C7.19224 9.12508 7.15778 9.14813 7.11984 9.16385C7.08191 9.17958 7.04124 9.18768 7.00017 9.18768C6.95911 9.18768 6.91844 9.17958 6.8805 9.16385C6.84257 9.14813 6.8081 9.12508 6.77908 9.09602L3.65408 5.97102C3.59544 5.91239 3.5625 5.83286 3.5625 5.74993C3.5625 5.667 3.59544 5.58747 3.65408 5.52884C3.71272 5.4702 3.79225 5.43726 3.87517 5.43726C3.9581 5.43726 4.03763 5.4702 4.09627 5.52884L7.00017 8.43313L9.90408 5.52884C9.93311 5.4998 9.96758 5.47677 10.0055 5.46106C10.0435 5.44534 10.0841 5.43726 10.1252 5.43726C10.1662 5.43726 10.2069 5.44534 10.2448 5.46106C10.2828 5.47677 10.3172 5.4998 10.3463 5.52884C10.3753 5.55787 10.3983 5.59234 10.414 5.63027C10.4298 5.66821 10.4378 5.70887 10.4378 5.74993C10.4378 5.79099 10.4298 5.83165 10.414 5.86958C10.3983 5.90752 10.3753 5.94199 10.3463 5.97102Z" fill="#3A343C"/>
</svg>
