<svg width="24" height="25" viewBox="0 0 24 25" fill="none" xmlns="http://www.w3.org/2000/svg">
<path d="M22.5 5.75013V10.2501C22.5 10.449 22.421 10.6398 22.2803 10.7805C22.1397 10.9211 21.9489 11.0001 21.75 11.0001H17.25C17.0511 11.0001 16.8603 10.9211 16.7197 10.7805C16.579 10.6398 16.5 10.449 16.5 10.2501C16.5 10.0512 16.579 9.86046 16.7197 9.7198C16.8603 9.57915 17.0511 9.50013 17.25 9.50013H19.8188L17.3259 7.21638L17.3025 7.19388C16.2601 6.15184 14.9337 5.44006 13.4891 5.14746C12.0445 4.85485 10.5457 4.9944 9.17991 5.54866C7.81414 6.10293 6.64197 7.04734 5.80982 8.26391C4.97768 9.48048 4.52245 10.9153 4.501 12.3891C4.47956 13.8629 4.89286 15.3103 5.68926 16.5506C6.48566 17.7908 7.62986 18.769 8.97892 19.3627C10.328 19.9565 11.8221 20.1396 13.2746 19.8891C14.7271 19.6387 16.0736 18.9658 17.1459 17.9545C17.2905 17.8178 17.4835 17.744 17.6825 17.7496C17.8814 17.7551 18.07 17.8395 18.2067 17.984C18.3435 18.1286 18.4172 18.3216 18.4117 18.5205C18.4061 18.7195 18.3218 18.9081 18.1772 19.0448C16.5098 20.6261 14.298 21.5053 12 21.5001H11.8763C10.4023 21.4799 8.95579 21.098 7.66398 20.3879C6.37216 19.6777 5.27455 18.6612 4.46762 17.4275C3.6607 16.1938 3.16915 14.7808 3.0362 13.3127C2.90324 11.8446 3.13294 10.3663 3.70511 9.00772C4.27728 7.64916 5.1744 6.45194 6.31762 5.52128C7.46085 4.59063 8.81517 3.95504 10.2616 3.67038C11.7079 3.38571 13.2021 3.46069 14.6127 3.88871C16.0234 4.31674 17.3073 5.08471 18.3516 6.12513L21 8.54388V5.75013C21 5.55122 21.079 5.36046 21.2197 5.2198C21.3603 5.07915 21.5511 5.00013 21.75 5.00013C21.9489 5.00013 22.1397 5.07915 22.2803 5.2198C22.421 5.36046 22.5 5.55122 22.5 5.75013Z" fill="#908395"/>
</svg>
