<svg width="24" height="25" viewBox="0 0 24 25" fill="none" xmlns="http://www.w3.org/2000/svg">
<path d="M17.031 13.031L9.53104 20.531C9.46136 20.6007 9.37863 20.656 9.28759 20.6937C9.19654 20.7314 9.09896 20.7508 9.00042 20.7508C8.90187 20.7508 8.80429 20.7314 8.71324 20.6937C8.6222 20.656 8.53947 20.6007 8.46979 20.531C8.40011 20.4614 8.34483 20.3786 8.30712 20.2876C8.26941 20.1965 8.25 20.099 8.25 20.0004C8.25 19.9019 8.26941 19.8043 8.30712 19.7132C8.34483 19.6222 8.40011 19.5395 8.46979 19.4698L15.4401 12.5004L8.46979 5.53104C8.32906 5.39031 8.25 5.19944 8.25 5.00042C8.25 4.80139 8.32906 4.61052 8.46979 4.46979C8.61052 4.32906 8.80139 4.25 9.00042 4.25C9.19944 4.25 9.39031 4.32906 9.53104 4.46979L17.031 11.9698C17.1008 12.0394 17.1561 12.1222 17.1938 12.2132C17.2316 12.3043 17.251 12.4019 17.251 12.5004C17.251 12.599 17.2316 12.6966 17.1938 12.7876C17.1561 12.8787 17.1008 12.9614 17.031 13.031Z" fill="black"/>
</svg>
