<svg width="20" height="20" viewBox="0 0 20 20" fill="none" xmlns="http://www.w3.org/2000/svg">
<path d="M12.25 18.0004V13.5004C12.25 13.3014 12.171 13.1107 12.0303 12.97C11.8897 12.8294 11.6989 12.7504 11.5 12.7504H8.5C8.30109 12.7504 8.11032 12.8294 7.96967 12.97C7.82902 13.1107 7.75 13.3014 7.75 13.5004V18.0004C7.75 18.1993 7.67098 18.39 7.53033 18.5307C7.38968 18.6713 7.19891 18.7504 7 18.7504H2.5C2.30109 18.7504 2.11032 18.6713 1.96967 18.5307C1.82902 18.39 1.75 18.1993 1.75 18.0004V9.33223C1.75001 9.22771 1.77187 9.12435 1.81416 9.02877C1.85646 8.9332 1.91827 8.84752 1.99562 8.77723L9.49563 1.69535C9.63372 1.56966 9.81374 1.5 10.0005 1.5C10.1872 1.5 10.3672 1.56966 10.5053 1.69535L18.0053 8.77723C18.0827 8.84752 18.1445 8.9332 18.1868 9.02877C18.2291 9.12435 18.2509 9.22771 18.2509 9.33223V18.0004C18.2509 18.1993 18.1719 18.39 18.0313 18.5307C17.8906 18.6713 17.6998 18.7504 17.5009 18.7504H13C12.8011 18.7504 12.6103 18.6713 12.4697 18.5307C12.329 18.39 12.25 18.1993 12.25 18.0004Z" stroke="black" stroke-width="2" stroke-linecap="round" stroke-linejoin="round"/>
</svg>
