<svg width="100" height="100" viewBox="0 0 100 100" fill="none" xmlns="http://www.w3.org/2000/svg">
<path d="M90.5432 73.1758C92.7472 68.6958 93.8456 63.7528 93.7465 58.761C93.6474 53.7692 92.3536 48.8738 89.9736 44.4847C87.5935 40.0957 84.1965 36.3408 80.0669 33.5346C75.9374 30.7283 71.1956 28.9524 66.2386 28.3555C64.5946 24.5232 62.2002 21.0586 59.1965 18.166C56.1929 15.2734 52.6406 13.0112 48.7491 11.5127C44.8576 10.0142 40.7055 9.30969 36.5375 9.44073C32.3695 9.57176 28.2699 10.5357 24.4802 12.2757C20.6905 14.0156 17.2874 16.4965 14.4713 19.5721C11.6553 22.6477 9.48326 26.2558 8.08325 30.1838C6.68325 34.1118 6.08358 38.2803 6.31956 42.4437C6.55554 46.6071 7.62241 50.6811 9.4573 54.4258L6.46512 64.9024C6.19811 65.8396 6.18641 66.8312 6.43124 67.7745C6.67606 68.7178 7.16851 69.5786 7.85762 70.2677C8.54673 70.9568 9.40748 71.4492 10.3508 71.6941C11.2941 71.9389 12.2857 71.9272 13.2229 71.6602L23.6995 68.668C26.8609 70.2201 30.2615 71.2278 33.7581 71.6485C35.4249 75.5535 37.8699 79.078 40.9441 82.0067C44.0182 84.9354 47.6569 87.2069 51.6381 88.6826C55.6193 90.1584 59.8595 90.8073 64.0998 90.5899C68.3401 90.3725 72.4917 89.2932 76.3011 87.418L86.7776 90.4102C87.7149 90.6772 88.7065 90.6889 89.6498 90.4441C90.5931 90.1992 91.4538 89.7068 92.1429 89.0177C92.832 88.3286 93.3245 87.4678 93.5693 86.5245C93.8141 85.5812 93.8024 84.5896 93.5354 83.6524L90.5432 73.1758ZM24.0354 62.1992C23.745 62.1993 23.4559 62.2387 23.1761 62.3164L12.8596 65.2657L15.8089 54.9492C16.0299 54.1633 15.9345 53.322 15.5432 52.6055C12.6699 47.3302 11.7936 41.1962 13.0751 35.3274C14.3566 29.4587 17.7099 24.2482 22.5207 20.6508C27.3315 17.0534 33.2775 15.31 39.2691 15.7401C45.2608 16.1702 50.8968 18.745 55.1444 22.9926C59.392 27.2403 61.9668 32.8763 62.3969 38.8679C62.827 44.8595 61.0836 50.8055 57.4862 55.6163C53.8888 60.4271 48.6784 63.7804 42.8096 65.0619C36.9408 66.3434 30.8068 65.4672 25.5315 62.5938C25.0742 62.338 24.5595 62.2023 24.0354 62.1992ZM84.1917 73.6992L87.1409 84.0157L76.8245 81.0664C76.0385 80.8454 75.1973 80.9408 74.4808 81.3321C68.7202 84.4661 61.9595 85.2135 55.6535 83.4134C49.3475 81.6133 44.0001 77.4097 40.762 71.7071C45.0411 71.2614 49.1819 69.9362 52.9247 67.8147C56.6675 65.6931 59.9314 62.8209 62.5117 59.3783C65.092 55.9357 66.933 51.997 67.9192 47.8093C68.9053 43.6216 69.0154 39.2752 68.2425 35.043C71.9871 35.9255 75.4775 37.6603 78.442 40.1124C81.4065 42.5645 83.7651 45.6676 85.3341 49.1803C86.9031 52.693 87.6403 56.5204 87.4883 60.3646C87.3362 64.2088 86.299 67.966 84.4573 71.3438C84.0629 72.0636 83.9675 72.9097 84.1917 73.6992Z" fill="#AE79C3"/>
</svg>
