<svg width="39" height="48" viewBox="0 0 39 48" fill="none" xmlns="http://www.w3.org/2000/svg">
  <path d="M19.3004 9.6001C16.4523 9.6001 13.6683 10.4446 11.3002 12.0269C8.93212 13.6092 7.08643 15.8582 5.99653 18.4895C4.90663 21.1207 4.62146 24.0161 5.17709 26.8094C5.73272 29.6027 7.10418 32.1686 9.11806 34.1824C11.1319 36.1963 13.6978 37.5678 16.4911 38.1234C19.2844 38.679 22.1798 38.3939 24.811 37.304C27.4423 36.2141 29.6913 34.3684 31.2736 32.0003C32.8558 29.6322 33.7004 26.8481 33.7004 24.0001C33.7004 20.181 32.1833 16.5183 29.4827 13.8178C26.7822 11.1172 23.1195 9.6001 19.3004 9.6001ZM17.2433 29.7498L12.1004 24.607L13.7358 22.9715L17.2433 26.479L24.865 18.8572L26.5066 20.4886L17.2433 29.7498Z" fill="#6C6C6C"/>
</svg>