<svg width="18" height="18" viewBox="0 0 18 18" fill="none" xmlns="http://www.w3.org/2000/svg">
<path d="M13.6965 8.15078C13.6965 8.29002 13.6412 8.42355 13.5427 8.52201C13.4443 8.62047 13.3107 8.67578 13.1715 8.67578H10.5465C10.4072 8.67578 10.2737 8.62047 10.1753 8.52201C10.0768 8.42355 10.0215 8.29002 10.0215 8.15078C10.0215 8.01154 10.0768 7.87801 10.1753 7.77955C10.2737 7.68109 10.4072 7.62578 10.5465 7.62578H13.1715C13.3107 7.62578 13.4443 7.68109 13.5427 7.77955C13.6412 7.87801 13.6965 8.01154 13.6965 8.15078ZM13.1715 9.72578H10.5465C10.4072 9.72578 10.2737 9.78109 10.1753 9.87955C10.0768 9.978 10.0215 10.1115 10.0215 10.2508C10.0215 10.39 10.0768 10.5236 10.1753 10.622C10.2737 10.7205 10.4072 10.7758 10.5465 10.7758H13.1715C13.3107 10.7758 13.4443 10.7205 13.5427 10.622C13.6412 10.5236 13.6965 10.39 13.6965 10.2508C13.6965 10.1115 13.6412 9.978 13.5427 9.87955C13.4443 9.78109 13.3107 9.72578 13.1715 9.72578ZM15.7965 4.47578V13.9258C15.7965 14.2043 15.6859 14.4713 15.4889 14.6682C15.292 14.8652 15.025 14.9758 14.7465 14.9758H3.19648C2.91801 14.9758 2.65094 14.8652 2.45402 14.6682C2.25711 14.4713 2.14648 14.2043 2.14648 13.9258V4.47578C2.14648 4.1973 2.25711 3.93023 2.45402 3.73332C2.65094 3.53641 2.91801 3.42578 3.19648 3.42578H14.7465C15.025 3.42578 15.292 3.53641 15.4889 3.73332C15.6859 3.93023 15.7965 4.1973 15.7965 4.47578ZM14.7465 13.9258V4.47578H3.19648V13.9258H14.7465ZM9.47942 11.6945C9.51423 11.8294 9.49403 11.9726 9.42326 12.0926C9.3525 12.2126 9.23696 12.2996 9.10208 12.3344C8.96719 12.3692 8.824 12.349 8.704 12.2782C8.58401 12.2075 8.49704 12.0919 8.46223 11.957C8.28964 11.2837 7.60517 10.7758 6.87083 10.7758C6.13648 10.7758 5.45267 11.2837 5.27942 11.957C5.24461 12.0919 5.15764 12.2075 5.03765 12.2782C4.91766 12.349 4.77446 12.3692 4.63958 12.3344C4.50469 12.2996 4.38916 12.2126 4.31839 12.0926C4.24762 11.9726 4.22742 11.8294 4.26223 11.6945C4.4326 11.0604 4.83531 10.5136 5.39033 10.1628C5.09539 9.86965 4.89414 9.49549 4.8121 9.08779C4.73006 8.68009 4.77091 8.25721 4.92949 7.87276C5.08806 7.48831 5.35722 7.15959 5.70283 6.92829C6.04845 6.69699 6.45495 6.57351 6.87083 6.57351C7.2867 6.57351 7.69321 6.69699 8.03882 6.92829C8.38444 7.15959 8.65359 7.48831 8.81217 7.87276C8.97074 8.25721 9.0116 8.68009 8.92956 9.08779C8.84751 9.49549 8.64627 9.86965 8.35133 10.1628C8.90695 10.5131 9.31002 11.0601 9.48008 11.6945H9.47942ZM6.87148 9.72578C7.07915 9.72578 7.28216 9.6642 7.45483 9.54882C7.6275 9.43345 7.76208 9.26946 7.84156 9.0776C7.92103 8.88573 7.94182 8.67462 7.90131 8.47094C7.86079 8.26726 7.76079 8.08016 7.61394 7.93332C7.4671 7.78647 7.28001 7.68647 7.07633 7.64596C6.87265 7.60544 6.66153 7.62623 6.46967 7.70571C6.2778 7.78518 6.11382 7.91976 5.99844 8.09243C5.88306 8.2651 5.82148 8.46811 5.82148 8.67578C5.82148 8.95426 5.93211 9.22133 6.12902 9.41824C6.32593 9.61515 6.59301 9.72578 6.87148 9.72578Z" fill="#3A343C"/>
</svg>
