<svg width="24" height="25" viewBox="0 0 24 25" fill="none" xmlns="http://www.w3.org/2000/svg">
<path d="M20.0306 6.71938L16.2806 2.96938C16.2109 2.89975 16.1282 2.84454 16.0371 2.8069C15.9461 2.76926 15.8485 2.74992 15.75 2.75H8.25C7.85218 2.75 7.47064 2.90804 7.18934 3.18934C6.90804 3.47064 6.75 3.85218 6.75 4.25V5.75H5.25C4.85218 5.75 4.47064 5.90804 4.18934 6.18934C3.90804 6.47064 3.75 6.85218 3.75 7.25V20.75C3.75 21.1478 3.90804 21.5294 4.18934 21.8107C4.47064 22.092 4.85218 22.25 5.25 22.25H15.75C16.1478 22.25 16.5294 22.092 16.8107 21.8107C17.092 21.5294 17.25 21.1478 17.25 20.75V19.25H18.75C19.1478 19.25 19.5294 19.092 19.8107 18.8107C20.092 18.5294 20.25 18.1478 20.25 17.75V7.25C20.2501 7.15148 20.2307 7.05391 20.1931 6.96286C20.1555 6.87182 20.1003 6.78908 20.0306 6.71938ZM15.75 20.75H5.25V7.25H12.4397L15.75 10.5603V18.485C15.75 18.4906 15.75 18.4953 15.75 18.5C15.75 18.5047 15.75 18.5094 15.75 18.515V20.75ZM18.75 17.75H17.25V10.25C17.2501 10.1515 17.2307 10.0539 17.1931 9.96286C17.1555 9.87182 17.1003 9.78908 17.0306 9.71937L13.2806 5.96938C13.2109 5.89975 13.1282 5.84454 13.0371 5.8069C12.9461 5.76926 12.8485 5.74992 12.75 5.75H8.25V4.25H15.4397L18.75 7.56031V17.75ZM13.5 14.75C13.5 14.9489 13.421 15.1397 13.2803 15.2803C13.1397 15.421 12.9489 15.5 12.75 15.5H8.25C8.05109 15.5 7.86032 15.421 7.71967 15.2803C7.57902 15.1397 7.5 14.9489 7.5 14.75C7.5 14.5511 7.57902 14.3603 7.71967 14.2197C7.86032 14.079 8.05109 14 8.25 14H12.75C12.9489 14 13.1397 14.079 13.2803 14.2197C13.421 14.3603 13.5 14.5511 13.5 14.75ZM13.5 17.75C13.5 17.9489 13.421 18.1397 13.2803 18.2803C13.1397 18.421 12.9489 18.5 12.75 18.5H8.25C8.05109 18.5 7.86032 18.421 7.71967 18.2803C7.57902 18.1397 7.5 17.9489 7.5 17.75C7.5 17.5511 7.57902 17.3603 7.71967 17.2197C7.86032 17.079 8.05109 17 8.25 17H12.75C12.9489 17 13.1397 17.079 13.2803 17.2197C13.421 17.3603 13.5 17.5511 13.5 17.75Z" fill="#3A343C"/>
</svg>
