<svg width="24" height="25" viewBox="0 0 24 25" fill="none" xmlns="http://www.w3.org/2000/svg">
<path d="M21 11.3327V19.9999C21 20.3977 20.842 20.7792 20.5607 21.0605C20.2794 21.3418 19.8978 21.4999 19.5 21.4999H15.75C15.3522 21.4999 14.9706 21.3418 14.6893 21.0605C14.408 20.7792 14.25 20.3977 14.25 19.9999V16.2499C14.25 16.051 14.171 15.8602 14.0303 15.7195C13.8897 15.5789 13.6989 15.4999 13.5 15.4999H10.5C10.3011 15.4999 10.1103 15.5789 9.96967 15.7195C9.82902 15.8602 9.75 16.051 9.75 16.2499V19.9999C9.75 20.3977 9.59196 20.7792 9.31066 21.0605C9.02936 21.3418 8.64782 21.4999 8.25 21.4999H4.5C4.10218 21.4999 3.72064 21.3418 3.43934 21.0605C3.15804 20.7792 3 20.3977 3 19.9999V11.3327C2.99997 11.1251 3.04303 10.9197 3.12646 10.7296C3.20989 10.5395 3.33187 10.3688 3.48469 10.2283L10.9847 3.15206L10.995 3.14175C11.2711 2.89062 11.631 2.75146 12.0042 2.75146C12.3775 2.75146 12.7373 2.89062 13.0134 3.14175C13.0166 3.14541 13.0201 3.14886 13.0238 3.15206L20.5238 10.2283C20.675 10.3696 20.7954 10.5406 20.8774 10.7307C20.9594 10.9207 21.0011 11.1257 21 11.3327Z" fill="#6E3A82"/>
</svg>
