<svg width="24" height="25" viewBox="0 0 24 25" fill="none" xmlns="http://www.w3.org/2000/svg">
<path d="M20.5153 10.2283L13.0153 3.15206C13.0116 3.14886 13.0082 3.14541 13.005 3.14175C12.7289 2.89062 12.369 2.75146 11.9958 2.75146C11.6225 2.75146 11.2627 2.89062 10.9866 3.14175L10.9763 3.15206L3.48469 10.2283C3.33187 10.3688 3.20989 10.5395 3.12646 10.7296C3.04303 10.9197 2.99997 11.1251 3 11.3327V19.9999C3 20.3977 3.15804 20.7792 3.43934 21.0605C3.72064 21.3418 4.10218 21.4999 4.5 21.4999H9C9.39782 21.4999 9.77936 21.3418 10.0607 21.0605C10.342 20.7792 10.5 20.3977 10.5 19.9999V15.4999H13.5V19.9999C13.5 20.3977 13.658 20.7792 13.9393 21.0605C14.2206 21.3418 14.6022 21.4999 15 21.4999H19.5C19.8978 21.4999 20.2794 21.3418 20.5607 21.0605C20.842 20.7792 21 20.3977 21 19.9999V11.3327C21 11.1251 20.957 10.9197 20.8735 10.7296C20.7901 10.5395 20.6681 10.3688 20.5153 10.2283ZM19.5 19.9999H15V15.4999C15 15.102 14.842 14.7205 14.5607 14.4392C14.2794 14.1579 13.8978 13.9999 13.5 13.9999H10.5C10.1022 13.9999 9.72064 14.1579 9.43934 14.4392C9.15804 14.7205 9 15.102 9 15.4999V19.9999H4.5V11.3327L4.51031 11.3233L12 4.24987L19.4906 11.3214L19.5009 11.3308L19.5 19.9999Z" fill="#3A343C"/>
</svg>
