<svg width="18" height="18" viewBox="0 0 18 18" fill="none" xmlns="http://www.w3.org/2000/svg">
<path d="M8.96953 2.37598C7.61968 2.37598 6.30013 2.77626 5.17777 3.5262C4.0554 4.27614 3.18062 5.34206 2.66406 6.58916C2.14749 7.83627 2.01233 9.20855 2.27567 10.5325C2.53902 11.8564 3.18904 13.0725 4.14353 14.027C5.09802 14.9815 6.31412 15.6315 7.63804 15.8948C8.96196 16.1582 10.3342 16.023 11.5813 15.5065C12.8285 14.9899 13.8944 14.1151 14.6443 12.9927C15.3943 11.8704 15.7945 10.5508 15.7945 9.20097C15.7926 7.39146 15.0729 5.6566 13.7934 4.37708C12.5139 3.09756 10.779 2.37789 8.96953 2.37598ZM8.96953 3.42598C10.0884 3.42479 11.1833 3.75051 12.1195 4.3631V5.65723L10.6646 7.34641L8.59941 7.62598L8.57906 7.61154L7.28822 6.7676C7.17377 6.68698 7.04436 6.63006 6.9076 6.60019C6.77083 6.57032 6.62948 6.5681 6.49184 6.59366C6.35421 6.61922 6.22307 6.67204 6.10615 6.74902C5.98922 6.826 5.88888 6.92558 5.811 7.04191L4.43681 9.09597C4.32234 9.26715 4.26072 9.46821 4.25963 9.67413L4.24453 12.0517L4.02994 12.1928C3.49944 11.3169 3.21136 10.3158 3.19524 9.29189C3.17912 8.26801 3.43553 7.25826 3.9382 6.36612C4.44087 5.47399 5.17171 4.73155 6.05582 4.2149C6.93994 3.69825 7.94553 3.42597 8.96953 3.42598ZM4.65731 13.0381L4.82269 12.9298C4.9671 12.8345 5.08574 12.7051 5.16805 12.5529C5.25037 12.4008 5.29382 12.2306 5.29453 12.0576L5.30831 9.68004L6.68381 7.62598C6.69055 7.63116 6.69756 7.63598 6.70481 7.64041L7.99566 8.48501C8.21199 8.63768 8.47816 8.70264 8.7405 8.66679L10.807 8.38657C11.0619 8.35256 11.2954 8.22623 11.4633 8.03154L12.9182 6.34104C13.0809 6.1504 13.17 5.90786 13.1695 5.65723V5.24182C13.8796 5.99309 14.3747 6.92144 14.603 7.92968C14.8312 8.93793 14.7842 9.98899 14.4669 10.9728L13.4078 10.0042C13.2605 9.86907 13.0777 9.77874 12.8809 9.74387C12.6841 9.70899 12.4814 9.73102 12.2967 9.80735L10.2978 10.6375C10.1306 10.7077 9.98438 10.8197 9.87312 10.9628C9.76185 11.1059 9.68933 11.2753 9.66253 11.4545L9.50569 12.517C9.46799 12.7727 9.52595 13.0334 9.66847 13.249C9.81099 13.4647 10.0281 13.6202 10.2781 13.6858L11.6864 14.0572L11.8413 14.2128C10.6913 14.8726 9.34903 15.116 8.04055 14.9021C6.73207 14.6881 5.53727 14.0298 4.65731 13.0381ZM12.7102 13.5978L12.428 13.315C12.2963 13.1829 12.1319 13.0882 11.9515 13.0407L10.5445 12.6693L10.7014 11.6068L12.6997 10.776L14.0227 11.9887C13.6855 12.5996 13.2408 13.1447 12.7102 13.5978Z" fill="#3A343C"/>
</svg>
