<svg width="24" height="24" viewBox="0 0 24 24" fill="none" xmlns="http://www.w3.org/2000/svg">
<path d="M23.2502 14.25C23.2502 14.4489 23.1712 14.6397 23.0306 14.7803C22.8899 14.921 22.6991 15 22.5002 15H21.0002V16.5C21.0002 16.6989 20.9212 16.8897 20.7806 17.0303C20.6399 17.171 20.4491 17.25 20.2502 17.25C20.0513 17.25 19.8605 17.171 19.7199 17.0303C19.5792 16.8897 19.5002 16.6989 19.5002 16.5V15H18.0002C17.8013 15 17.6105 14.921 17.4699 14.7803C17.3292 14.6397 17.2502 14.4489 17.2502 14.25C17.2502 14.0511 17.3292 13.8603 17.4699 13.7197C17.6105 13.579 17.8013 13.5 18.0002 13.5H19.5002V12C19.5002 11.8011 19.5792 11.6103 19.7199 11.4697C19.8605 11.329 20.0513 11.25 20.2502 11.25C20.4491 11.25 20.6399 11.329 20.7806 11.4697C20.9212 11.6103 21.0002 11.8011 21.0002 12V13.5H22.5002C22.6991 13.5 22.8899 13.579 23.0306 13.7197C23.1712 13.8603 23.2502 14.0511 23.2502 14.25ZM5.25022 6.75H6.75022V8.25C6.75022 8.44891 6.82924 8.63968 6.96989 8.78033C7.11055 8.92098 7.30131 9 7.50022 9C7.69913 9 7.8899 8.92098 8.03055 8.78033C8.17121 8.63968 8.25022 8.44891 8.25022 8.25V6.75H9.75022C9.94913 6.75 10.1399 6.67098 10.2806 6.53033C10.4212 6.38968 10.5002 6.19891 10.5002 6C10.5002 5.80109 10.4212 5.61032 10.2806 5.46967C10.1399 5.32902 9.94913 5.25 9.75022 5.25H8.25022V3.75C8.25022 3.55109 8.17121 3.36032 8.03055 3.21967C7.8899 3.07902 7.69913 3 7.50022 3C7.30131 3 7.11055 3.07902 6.96989 3.21967C6.82924 3.36032 6.75022 3.55109 6.75022 3.75V5.25H5.25022C5.05131 5.25 4.86055 5.32902 4.71989 5.46967C4.57924 5.61032 4.50022 5.80109 4.50022 6C4.50022 6.19891 4.57924 6.38968 4.71989 6.53033C4.86055 6.67098 5.05131 6.75 5.25022 6.75ZM17.2502 18H16.5002V17.25C16.5002 17.0511 16.4212 16.8603 16.2806 16.7197C16.1399 16.579 15.9491 16.5 15.7502 16.5C15.5513 16.5 15.3605 16.579 15.2199 16.7197C15.0792 16.8603 15.0002 17.0511 15.0002 17.25V18H14.2502C14.0513 18 13.8605 18.079 13.7199 18.2197C13.5792 18.3603 13.5002 18.5511 13.5002 18.75C13.5002 18.9489 13.5792 19.1397 13.7199 19.2803C13.8605 19.421 14.0513 19.5 14.2502 19.5H15.0002V20.25C15.0002 20.4489 15.0792 20.6397 15.2199 20.7803C15.3605 20.921 15.5513 21 15.7502 21C15.9491 21 16.1399 20.921 16.2806 20.7803C16.4212 20.6397 16.5002 20.4489 16.5002 20.25V19.5H17.2502C17.4491 19.5 17.6399 19.421 17.7806 19.2803C17.9212 19.1397 18.0002 18.9489 18.0002 18.75C18.0002 18.5511 17.9212 18.3603 17.7806 18.2197C17.6399 18.079 17.4491 18 17.2502 18ZM20.5605 7.5L7.50022 20.5603C7.21895 20.8414 6.83756 20.9993 6.43991 20.9993C6.04226 20.9993 5.66087 20.8414 5.3796 20.5603L3.43897 18.6216C3.29965 18.4823 3.18913 18.3169 3.11373 18.1349C3.03832 17.9529 2.99951 17.7578 2.99951 17.5608C2.99951 17.3638 3.03832 17.1687 3.11373 16.9867C3.18913 16.8047 3.29965 16.6393 3.43897 16.5L16.5002 3.43969C16.6395 3.30036 16.8049 3.18984 16.9869 3.11444C17.1689 3.03904 17.364 3.00023 17.561 3.00023C17.758 3.00023 17.9531 3.03904 18.1351 3.11444C18.3171 3.18984 18.4825 3.30036 18.6218 3.43969L20.5605 5.37844C20.6999 5.51773 20.8104 5.6831 20.8858 5.86511C20.9612 6.04713 21 6.24221 21 6.43922C21 6.63623 20.9612 6.83131 20.8858 7.01332C20.8104 7.19533 20.6999 7.36071 20.5605 7.5ZM19.5002 6.43969L17.5605 4.5L14.5605 7.5L16.5002 9.43969L19.5002 6.43969Z" fill="#6E3A82"/>
</svg>
