<svg width="18" height="18" viewBox="0 0 18 18" fill="none" xmlns="http://www.w3.org/2000/svg">
<path d="M15.5422 15.1284L12.2563 11.8432C13.2087 10.6998 13.6836 9.23332 13.5823 7.74871C13.4809 6.26411 12.8111 4.87573 11.7121 3.8724C10.6132 2.86907 9.16977 2.32804 7.68209 2.36185C6.19441 2.39566 4.77704 3.00171 3.72482 4.05393C2.67261 5.10614 2.06655 6.52352 2.03274 8.01119C1.99893 9.49887 2.53997 10.9423 3.5433 12.0412C4.54663 13.1402 5.93501 13.81 7.41961 13.9114C8.90422 14.0127 10.3707 13.5378 11.5141 12.5854L14.7993 15.8713C14.8481 15.9201 14.906 15.9588 14.9697 15.9852C15.0335 16.0116 15.1018 16.0251 15.1708 16.0251C15.2397 16.0251 15.308 16.0116 15.3718 15.9852C15.4355 15.9588 15.4934 15.9201 15.5422 15.8713C15.591 15.8225 15.6297 15.7646 15.6561 15.7009C15.6825 15.6371 15.696 15.5688 15.696 15.4999C15.696 15.4309 15.6825 15.3626 15.6561 15.2988C15.6297 15.2351 15.591 15.1772 15.5422 15.1284ZM3.09575 8.14986C3.09575 7.21534 3.37287 6.30181 3.89206 5.52479C4.41125 4.74776 5.14919 4.14215 6.01257 3.78453C6.87596 3.4269 7.826 3.33333 8.74255 3.51565C9.65911 3.69796 10.501 4.14797 11.1618 4.80878C11.8226 5.46958 12.2726 6.31149 12.455 7.22805C12.6373 8.14461 12.5437 9.09465 12.1861 9.95803C11.8285 10.8214 11.2228 11.5594 10.4458 12.0785C9.6688 12.5977 8.75527 12.8749 7.82075 12.8749C6.56803 12.8735 5.36702 12.3752 4.48121 11.4894C3.5954 10.6036 3.09714 9.40258 3.09575 8.14986Z" fill="#3A343C"/>
</svg>
