<svg width="24" height="25" viewBox="0 0 24 25" fill="none" xmlns="http://www.w3.org/2000/svg">
<path d="M21.5308 20.9694L16.8368 16.2763C18.1973 14.6429 18.8757 12.5478 18.7309 10.427C18.5861 8.3061 17.6293 6.32271 16.0593 4.88938C14.4894 3.45605 12.4274 2.68314 10.3021 2.73144C8.17687 2.77974 6.15205 3.64553 4.64888 5.1487C3.14571 6.65187 2.27993 8.67669 2.23163 10.8019C2.18333 12.9272 2.95623 14.9893 4.38956 16.5592C5.82289 18.1291 7.80629 19.086 9.92715 19.2308C12.048 19.3756 14.1431 18.6971 15.7765 17.3366L20.4696 22.0307C20.5393 22.1003 20.622 22.1556 20.713 22.1933C20.8041 22.231 20.9017 22.2505 21.0002 22.2505C21.0988 22.2505 21.1963 22.231 21.2874 22.1933C21.3784 22.1556 21.4612 22.1003 21.5308 22.0307C21.6005 21.961 21.6558 21.8783 21.6935 21.7872C21.7312 21.6962 21.7506 21.5986 21.7506 21.5C21.7506 21.4015 21.7312 21.3039 21.6935 21.2129C21.6558 21.1218 21.6005 21.0391 21.5308 20.9694ZM3.75021 11C3.75021 9.66501 4.14609 8.35996 4.88779 7.24993C5.62949 6.1399 6.6837 5.27474 7.9171 4.76384C9.1505 4.25295 10.5077 4.11928 11.8171 4.37973C13.1264 4.64018 14.3292 5.28306 15.2732 6.22706C16.2172 7.17106 16.8601 8.3738 17.1205 9.68317C17.381 10.9925 17.2473 12.3497 16.7364 13.5831C16.2255 14.8165 15.3603 15.8708 14.2503 16.6125C13.1403 17.3542 11.8352 17.75 10.5002 17.75C8.71061 17.748 6.99488 17.0363 5.72944 15.7708C4.464 14.5054 3.7522 12.7896 3.75021 11Z" fill="#3A343C"/>
</svg>
