<svg width="18" height="18" viewBox="0 0 18 18" fill="none" xmlns="http://www.w3.org/2000/svg">
<path d="M15.843 15.1294L12.5571 11.8442C13.5095 10.7008 13.9844 9.23429 13.883 7.74969C13.7817 6.26508 13.1119 4.87671 12.0129 3.87338C10.914 2.87005 9.47055 2.32901 7.98287 2.36282C6.4952 2.39663 5.07782 3.00268 4.02561 4.0549C2.97339 5.10712 2.36734 6.52449 2.33353 8.01217C2.29972 9.49985 2.84075 10.9433 3.84408 12.0422C4.84741 13.1412 6.23579 13.811 7.72039 13.9123C9.205 14.0137 10.6715 13.5388 11.8149 12.5864L15.1001 15.8723C15.1489 15.921 15.2068 15.9597 15.2705 15.9861C15.3342 16.0125 15.4026 16.0261 15.4715 16.0261C15.5405 16.0261 15.6088 16.0125 15.6726 15.9861C15.7363 15.9597 15.7942 15.921 15.843 15.8723C15.8917 15.8235 15.9304 15.7656 15.9568 15.7019C15.9832 15.6381 15.9968 15.5698 15.9968 15.5008C15.9968 15.4318 15.9832 15.3635 15.9568 15.2998C15.9304 15.2361 15.8917 15.1782 15.843 15.1294ZM3.39654 8.15083C3.39654 7.21632 3.67365 6.30278 4.19284 5.52576C4.71203 4.74874 5.44998 4.14313 6.31336 3.7855C7.17674 3.42788 8.12678 3.33431 9.04334 3.51662C9.9599 3.69894 10.8018 4.14895 11.4626 4.80975C12.1234 5.47056 12.5734 6.31247 12.7557 7.22903C12.9381 8.14559 12.8445 9.09563 12.4869 9.95901C12.1292 10.8224 11.5236 11.5603 10.7466 12.0795C9.96958 12.5987 9.05605 12.8758 8.12153 12.8758C6.86881 12.8744 5.6678 12.3762 4.78199 11.4904C3.89618 10.6046 3.39793 9.40355 3.39654 8.15083Z" fill="#E6E780"/>
</svg>
