<svg width="24" height="25" viewBox="0 0 24 25" fill="none" xmlns="http://www.w3.org/2000/svg">
<path d="M15.75 11C15.75 12.0384 15.4421 13.0534 14.8652 13.9168C14.2884 14.7801 13.4684 15.453 12.5091 15.8504C11.5498 16.2477 10.4942 16.3517 9.47581 16.1491C8.45741 15.9466 7.52194 15.4466 6.78772 14.7123C6.05349 13.9781 5.55348 13.0426 5.35091 12.0242C5.14833 11.0058 5.2523 9.95024 5.64966 8.99093C6.04702 8.03162 6.71993 7.21168 7.58329 6.6348C8.44664 6.05792 9.46168 5.75002 10.5 5.75002C11.8924 5.75002 13.2278 6.30314 14.2123 7.28771C15.1969 8.27227 15.75 9.60763 15.75 11ZM21.5307 22.0306C21.461 22.1004 21.3783 22.1557 21.2872 22.1934C21.1962 22.2312 21.0986 22.2506 21 22.2506C20.9015 22.2506 20.8039 22.2312 20.7128 22.1934C20.6218 22.1557 20.5391 22.1004 20.4694 22.0306L15.7763 17.3366C14.1442 18.6944 12.0515 19.3707 9.93346 19.2249C7.81543 19.0791 5.83514 18.1224 4.40449 16.5538C2.97384 14.9852 2.20297 12.9254 2.25222 10.803C2.30148 8.68051 3.16707 6.65873 4.66895 5.15818C6.17083 3.65763 8.19337 2.79382 10.3159 2.74644C12.4384 2.69906 14.4975 3.47175 16.0648 4.90379C17.6322 6.33582 18.5871 8.31696 18.731 10.4351C18.8749 12.5533 18.1968 14.6454 16.8375 16.2763L21.5307 20.9694C21.6004 21.039 21.6557 21.1218 21.6934 21.2128C21.7312 21.3039 21.7506 21.4015 21.7506 21.5C21.7506 21.5986 21.7312 21.6962 21.6934 21.7872C21.6557 21.8783 21.6004 21.961 21.5307 22.0306ZM10.5 17.75C11.8351 17.75 13.1401 17.3541 14.2501 16.6124C15.3602 15.8707 16.2253 14.8165 16.7362 13.5831C17.2471 12.3497 17.3808 10.9925 17.1203 9.68316C16.8599 8.37379 16.217 7.17105 15.273 6.22705C14.329 5.28304 13.1263 4.64017 11.8169 4.37972C10.5075 4.11927 9.15032 4.25294 7.91692 4.76383C6.68351 5.27472 5.62931 6.13989 4.88761 7.24992C4.14591 8.35995 3.75003 9.66499 3.75003 11C3.75201 12.7896 4.46381 14.5054 5.72925 15.7708C6.99469 17.0362 8.71043 17.748 10.5 17.75Z" fill="#6E3A82"/>
</svg>
