<svg width="21" height="21" viewBox="0 0 21 21" fill="none" xmlns="http://www.w3.org/2000/svg">
  <path d="M1.50563 9.76823C1.50753 10.0323 1.59429 10.2888 1.75311 10.4998C1.91194 10.7109 2.1344 10.8652 2.38766 10.9401L8.36892 12.7807L10.2095 18.762C10.2846 19.0152 10.4389 19.2376 10.6499 19.3964C10.8609 19.5552 11.1173 19.642 11.3814 19.644H11.4049C11.6638 19.6464 11.9169 19.5672 12.1283 19.4175C12.3396 19.2679 12.4985 19.0555 12.5822 18.8104L17.6775 5.06745C17.6792 5.0634 17.6805 5.05922 17.6814 5.05495C17.7576 4.83373 17.7701 4.59557 17.7176 4.36756C17.6652 4.13956 17.5497 3.93086 17.3845 3.76521C17.2192 3.59957 17.0108 3.48362 16.783 3.43057C16.5551 3.37752 16.3169 3.38948 16.0955 3.46511L16.083 3.46901L2.33923 8.56745C2.09037 8.65251 1.87524 8.81493 1.72526 9.03097C1.57529 9.24701 1.49833 9.50534 1.50563 9.76823Z" fill="#6E3A82"/>
</svg>