<svg width="154" height="52" viewBox="0 0 154 52" fill="none" xmlns="http://www.w3.org/2000/svg">
<path d="M14.184 38.752C11.808 38.752 9.624 38.2 7.632 37.096C5.64 35.968 4.056 34.42 2.88 32.452C1.728 30.46 1.152 28.216 1.152 25.72C1.152 23.224 1.728 20.992 2.88 19.024C4.056 17.032 5.64 15.484 7.632 14.38C9.624 13.276 11.808 12.724 14.184 12.724C16.584 12.724 18.768 13.276 20.736 14.38C22.728 15.484 24.3 17.032 25.452 19.024C26.604 20.992 27.18 23.224 27.18 25.72C27.18 28.216 26.604 30.46 25.452 32.452C24.3 34.42 22.728 35.968 20.736 37.096C18.744 38.2 16.56 38.752 14.184 38.752ZM14.184 32.2C15.984 32.2 17.4 31.612 18.432 30.436C19.488 29.26 20.016 27.688 20.016 25.72C20.016 23.704 19.488 22.12 18.432 20.968C17.4 19.792 15.984 19.204 14.184 19.204C12.36 19.204 10.932 19.792 9.9 20.968C8.868 22.12 8.352 23.704 8.352 25.72C8.352 27.712 8.868 29.296 9.9 30.472C10.932 31.624 12.36 32.2 14.184 32.2ZM30.6399 28.384C30.6399 26.296 31.0119 24.472 31.7559 22.912C32.5239 21.352 33.5679 20.152 34.8879 19.312C36.2079 18.472 37.6719 18.052 39.2799 18.052C40.5759 18.052 41.7279 18.328 42.7359 18.88C43.7679 19.408 44.5719 20.14 45.1479 21.076V11.86H52.2399V38.5H45.1479V35.692C44.5959 36.628 43.8159 37.372 42.8079 37.924C41.7999 38.476 40.6119 38.752 39.2439 38.752C37.6359 38.752 36.1719 38.332 34.8519 37.492C33.5559 36.652 32.5239 35.452 31.7559 33.892C31.0119 32.308 30.6399 30.472 30.6399 28.384ZM45.1839 28.384C45.1839 27.088 44.8239 26.068 44.1039 25.324C43.4079 24.58 42.5439 24.208 41.5119 24.208C40.4559 24.208 39.5799 24.58 38.8839 25.324C38.1879 26.044 37.8399 27.064 37.8399 28.384C37.8399 29.68 38.1879 30.712 38.8839 31.48C39.5799 32.224 40.4559 32.596 41.5119 32.596C42.5439 32.596 43.4079 32.224 44.1039 31.48C44.8239 30.736 45.1839 29.704 45.1839 28.384ZM56.5487 28.384C56.5487 26.296 56.9207 24.472 57.6647 22.912C58.4327 21.352 59.4767 20.152 60.7967 19.312C62.1167 18.472 63.5807 18.052 65.1887 18.052C66.4847 18.052 67.6367 18.328 68.6447 18.88C69.6767 19.408 70.4807 20.14 71.0567 21.076V11.86H78.1487V38.5H71.0567V35.692C70.5047 36.628 69.7247 37.372 68.7167 37.924C67.7087 38.476 66.5207 38.752 65.1527 38.752C63.5447 38.752 62.0807 38.332 60.7607 37.492C59.4647 36.652 58.4327 35.452 57.6647 33.892C56.9207 32.308 56.5487 30.472 56.5487 28.384ZM71.0927 28.384C71.0927 27.088 70.7327 26.068 70.0127 25.324C69.3167 24.58 68.4527 24.208 67.4207 24.208C66.3647 24.208 65.4887 24.58 64.7927 25.324C64.0967 26.044 63.7487 27.064 63.7487 28.384C63.7487 29.68 64.0967 30.712 64.7927 31.48C65.4887 32.224 66.3647 32.596 67.4207 32.596C68.4527 32.596 69.3167 32.224 70.0127 31.48C70.7327 30.736 71.0927 29.704 71.0927 28.384ZM105.353 18.304L92.5374 48.112H84.8694L89.6934 37.636L81.4134 18.304H89.2614L93.5094 29.752L97.6134 18.304H105.353Z" fill="#AE79C3"/>
<path d="M117.44 14.772C118.069 14.8893 118.587 15.204 118.992 15.716C119.397 16.228 119.6 16.8147 119.6 17.476C119.6 18.0733 119.451 18.6013 119.152 19.06C118.864 19.508 118.443 19.86 117.888 20.116C117.333 20.372 116.677 20.5 115.92 20.5H111.104V9.332H115.712C116.469 9.332 117.12 9.45467 117.664 9.7C118.219 9.94533 118.635 10.2867 118.912 10.724C119.2 11.1613 119.344 11.6573 119.344 12.212C119.344 12.8627 119.168 13.4067 118.816 13.844C118.475 14.2813 118.016 14.5907 117.44 14.772ZM113.344 13.94H115.392C115.925 13.94 116.336 13.8227 116.624 13.588C116.912 13.3427 117.056 12.996 117.056 12.548C117.056 12.1 116.912 11.7533 116.624 11.508C116.336 11.2627 115.925 11.14 115.392 11.14H113.344V13.94ZM115.6 18.676C116.144 18.676 116.565 18.548 116.864 18.292C117.173 18.036 117.328 17.6733 117.328 17.204C117.328 16.724 117.168 16.3507 116.848 16.084C116.528 15.8067 116.096 15.668 115.552 15.668H113.344V18.676H115.6ZM123.625 11.14V13.94H127.385V15.716H123.625V18.676H127.865V20.5H121.385V9.316H127.865V11.14H123.625ZM137.501 9.332V11.14H134.525V20.5H132.285V11.14H129.309V9.332H137.501ZM145.983 18.372H141.535L140.799 20.5H138.447L142.463 9.316H145.071L149.087 20.5H146.719L145.983 18.372ZM145.375 16.58L143.759 11.908L142.143 16.58H145.375Z" fill="#3A343C"/>
</svg>
