<svg width="16" height="17" viewBox="0 0 16 17" fill="none" xmlns="http://www.w3.org/2000/svg">
<path d="M10.8168 10.6553C10.9131 10.5912 11.0239 10.5521 11.1392 10.5417C11.2544 10.5312 11.3705 10.5496 11.4768 10.5953L15.5777 12.4327C15.7159 12.4918 15.8313 12.5941 15.9065 12.7242C15.9818 12.8543 16.0129 13.0053 15.9951 13.1545C15.86 14.1641 15.3629 15.0903 14.596 15.7609C13.8292 16.4314 12.845 16.8006 11.8264 16.7998C8.68981 16.7998 5.68173 15.5538 3.46386 13.3359C1.24599 11.1181 1.23037e-06 8.11 1.23037e-06 4.97345C-0.000777815 3.95482 0.368425 2.97058 1.03895 2.20377C1.70947 1.43695 2.63567 0.939763 3.6453 0.804663C3.79455 0.786933 3.94553 0.818015 4.07564 0.893258C4.20574 0.968502 4.30799 1.08386 4.36706 1.22206L6.20449 5.3265C6.24963 5.43192 6.26802 5.54687 6.258 5.66111C6.24799 5.77535 6.20989 5.88534 6.1471 5.9813L4.28879 8.19092C4.22287 8.29038 4.18389 8.40525 4.17566 8.52429C4.16743 8.64333 4.19023 8.76247 4.24184 8.87006C4.96098 10.3423 6.48275 11.8458 7.95931 12.558C8.06747 12.6093 8.18715 12.6316 8.30656 12.6226C8.42596 12.6136 8.54095 12.5737 8.64019 12.5067L10.8168 10.6553Z" fill="#4B348B"/>
</svg>
