<svg width="14" height="12" viewBox="0 0 14 12" fill="none" xmlns="http://www.w3.org/2000/svg">
<path d="M11.6965 5.15078C11.6965 5.29002 11.6412 5.42355 11.5427 5.52201C11.4443 5.62047 11.3107 5.67578 11.1715 5.67578H8.54648C8.40724 5.67578 8.27371 5.62047 8.17525 5.52201C8.07679 5.42355 8.02148 5.29002 8.02148 5.15078C8.02148 5.01154 8.07679 4.87801 8.17525 4.77955C8.27371 4.68109 8.40724 4.62578 8.54648 4.62578H11.1715C11.3107 4.62578 11.4443 4.68109 11.5427 4.77955C11.6412 4.87801 11.6965 5.01154 11.6965 5.15078ZM11.1715 6.72578H8.54648C8.40724 6.72578 8.27371 6.78109 8.17525 6.87955C8.07679 6.978 8.02148 7.11154 8.02148 7.25078C8.02148 7.39002 8.07679 7.52355 8.17525 7.62201C8.27371 7.72047 8.40724 7.77578 8.54648 7.77578H11.1715C11.3107 7.77578 11.4443 7.72047 11.5427 7.62201C11.6412 7.52355 11.6965 7.39002 11.6965 7.25078C11.6965 7.11154 11.6412 6.978 11.5427 6.87955C11.4443 6.78109 11.3107 6.72578 11.1715 6.72578ZM13.7965 1.47578V10.9258C13.7965 11.2043 13.6859 11.4713 13.4889 11.6682C13.292 11.8652 13.025 11.9758 12.7465 11.9758H1.19648C0.918007 11.9758 0.650935 11.8652 0.454022 11.6682C0.257109 11.4713 0.146484 11.2043 0.146484 10.9258V1.47578C0.146484 1.1973 0.257109 0.930232 0.454022 0.733319C0.650935 0.536406 0.918007 0.425781 1.19648 0.425781H12.7465C13.025 0.425781 13.292 0.536406 13.4889 0.733319C13.6859 0.930232 13.7965 1.1973 13.7965 1.47578ZM12.7465 10.9258V1.47578H1.19648V10.9258H12.7465ZM7.47942 8.69453C7.51423 8.82942 7.49403 8.97261 7.42326 9.0926C7.3525 9.21259 7.23696 9.29956 7.10208 9.33437C6.96719 9.36918 6.824 9.34898 6.704 9.27822C6.58401 9.20745 6.49704 9.09192 6.46223 8.95703C6.28964 8.28372 5.60517 7.77578 4.87083 7.77578C4.13648 7.77578 3.45267 8.28372 3.27942 8.95703C3.24461 9.09192 3.15764 9.20745 3.03765 9.27822C2.91766 9.34898 2.77446 9.36918 2.63958 9.33437C2.50469 9.29956 2.38916 9.21259 2.31839 9.0926C2.24762 8.97261 2.22742 8.82942 2.26223 8.69453C2.4326 8.06043 2.83531 7.51364 3.39033 7.16284C3.09539 6.86965 2.89414 6.49549 2.8121 6.08779C2.73006 5.68009 2.77091 5.25721 2.92949 4.87276C3.08806 4.48831 3.35722 4.15959 3.70283 3.92829C4.04845 3.69699 4.45495 3.57351 4.87083 3.57351C5.2867 3.57351 5.69321 3.69699 6.03882 3.92829C6.38444 4.15959 6.65359 4.48831 6.81217 4.87276C6.97074 5.25721 7.0116 5.68009 6.92956 6.08779C6.84751 6.49549 6.64627 6.86965 6.35133 7.16284C6.90695 7.51313 7.31002 8.06009 7.48008 8.69453H7.47942ZM4.87148 6.72578C5.07915 6.72578 5.28216 6.6642 5.45483 6.54882C5.6275 6.43345 5.76208 6.26946 5.84156 6.0776C5.92103 5.88573 5.94182 5.67462 5.90131 5.47094C5.86079 5.26726 5.76079 5.08016 5.61394 4.93332C5.4671 4.78647 5.28001 4.68647 5.07633 4.64596C4.87265 4.60544 4.66153 4.62623 4.46967 4.70571C4.2778 4.78518 4.11382 4.91976 3.99844 5.09243C3.88306 5.2651 3.82148 5.46811 3.82148 5.67578C3.82148 5.95426 3.93211 6.22133 4.12902 6.41824C4.32593 6.61515 4.59301 6.72578 4.87148 6.72578Z" fill="#3A343C"/>
</svg>
