<svg width="20" height="19" viewBox="0 0 20 19" fill="none" xmlns="http://www.w3.org/2000/svg">
<path d="M19.4995 2.54994V7.04994C19.4995 7.24885 19.4205 7.43962 19.2799 7.58027C19.1392 7.72092 18.9484 7.79994 18.7495 7.79994H14.2495C14.0506 7.79994 13.8598 7.72092 13.7192 7.58027C13.5785 7.43962 13.4995 7.24885 13.4995 7.04994C13.4995 6.85103 13.5785 6.66026 13.7192 6.51961C13.8598 6.37896 14.0506 6.29994 14.2495 6.29994H16.8183L14.3255 4.01619L14.302 3.99369C13.2596 2.95165 11.9332 2.23987 10.4886 1.94726C9.04399 1.65466 7.54518 1.79421 6.17942 2.34847C4.81365 2.90273 3.64148 3.84714 2.80934 5.06371C1.97719 6.28029 1.52196 7.71509 1.50052 9.18888C1.47907 10.6627 1.89237 12.1101 2.68877 13.3504C3.48517 14.5907 4.62937 15.5688 5.97843 16.1625C7.32749 16.7563 8.8216 16.9394 10.2741 16.6889C11.7266 16.4385 13.0731 15.7656 14.1455 14.7543C14.29 14.6176 14.483 14.5438 14.682 14.5494C14.8809 14.5549 15.0695 14.6393 15.2062 14.7838C15.343 14.9284 15.4167 15.1214 15.4112 15.3204C15.4056 15.5193 15.3213 15.7079 15.1767 15.8446C13.5093 17.4259 11.2975 18.3051 8.99952 18.2999H8.87577C7.40177 18.2798 5.9553 17.8978 4.66349 17.1877C3.37167 16.4775 2.27406 15.461 1.46714 14.2273C0.660208 12.9936 0.168664 11.5806 0.0357069 10.1125C-0.0972498 8.64439 0.132452 7.16609 0.704622 5.80752C1.27679 4.44896 2.17391 3.25174 3.31714 2.32109C4.46036 1.39044 5.81468 0.754847 7.26107 0.470182C8.70745 0.185517 10.2016 0.260492 11.6122 0.688519C13.0229 1.11655 14.3068 1.88452 15.3511 2.92494L17.9995 5.34369V2.54994C17.9995 2.35103 18.0785 2.16026 18.2192 2.01961C18.3598 1.87896 18.5506 1.79994 18.7495 1.79994C18.9484 1.79994 19.1392 1.87896 19.2799 2.01961C19.4205 2.16026 19.4995 2.35103 19.4995 2.54994Z" fill="#006987"/>
</svg>
