<svg width="20" height="15" viewBox="0 0 20 15" fill="none" xmlns="http://www.w3.org/2000/svg">
<path d="M19.925 0.734375L10.825 9.79688C10.5908 10.0297 10.274 10.1604 9.94375 10.1604C9.61352 10.1604 9.2967 10.0297 9.0625 9.79688L0.04375 0.803125C0.0160246 0.905025 0.00132418 1.01003 0 1.11563V13.6156C0 13.9471 0.131696 14.2651 0.366117 14.4995C0.600537 14.7339 0.918479 14.8656 1.25 14.8656H18.75C19.0815 14.8656 19.3995 14.7339 19.6339 14.4995C19.8683 14.2651 20 13.9471 20 13.6156V1.11563C19.995 0.985409 19.9697 0.856772 19.925 0.734375ZM2.10625 13.6156H1.2375V12.7219L5.78125 8.21563L6.6625 9.09688L2.10625 13.6156ZM18.7375 13.6156H17.8625L13.3062 9.09688L14.1875 8.21563L18.7312 12.7219L18.7375 13.6156Z" fill="#4B348B"/>
</svg>
