<svg width="32" height="33" viewBox="0 0 32 33" fill="none" xmlns="http://www.w3.org/2000/svg">
<g clip-path="url(#clip0_296_161824)">
<path d="M25.5 14.7998C27.433 14.7998 29 13.2328 29 11.2998C29 9.36681 27.433 7.7998 25.5 7.7998C23.567 7.7998 22 9.36681 22 11.2998C22 13.2328 23.567 14.7998 25.5 14.7998Z" stroke="black" stroke-width="2" stroke-linecap="round" stroke-linejoin="round"/>
<path d="M6 26.7998H2C1.73478 26.7998 1.48043 26.6944 1.29289 26.5069C1.10536 26.3194 1 26.065 1 25.7998V20.7998C1 20.5346 1.10536 20.2802 1.29289 20.0927C1.48043 19.9052 1.73478 19.7998 2 19.7998H6" stroke="black" stroke-width="2" stroke-linecap="round" stroke-linejoin="round"/>
<path d="M14 20.7998H18L26.375 18.8736C26.6829 18.7892 27.0061 18.7769 27.3195 18.8378C27.6329 18.8987 27.9281 19.031 28.182 19.2245C28.436 19.418 28.6419 19.6674 28.7838 19.9534C28.9256 20.2394 28.9996 20.5543 29 20.8736C29.0002 21.259 28.8929 21.6369 28.6902 21.9648C28.4875 22.2927 28.1974 22.5576 27.8525 22.7298L23 24.7998L15 26.7998H6V19.7998L9.125 16.6748C9.40432 16.3965 9.73577 16.1759 10.1004 16.0258C10.465 15.8756 10.8557 15.7988 11.25 15.7998H17.5C18.163 15.7998 18.7989 16.0632 19.2678 16.532C19.7366 17.0009 20 17.6368 20 18.2998C20 18.9629 19.7366 19.5987 19.2678 20.0676C18.7989 20.5364 18.163 20.7998 17.5 20.7998H14Z" stroke="black" stroke-width="2" stroke-linecap="round" stroke-linejoin="round"/>
<path d="M22.0003 11.4609C21.321 11.7821 20.5564 11.8762 19.8194 11.7293C19.0825 11.5823 18.4124 11.2021 17.9083 10.6449C17.4042 10.0876 17.0929 9.3829 17.0203 8.63497C16.9477 7.88705 17.1177 7.13563 17.5053 6.49183C17.8928 5.84803 18.4773 5.34606 19.1722 5.06014C19.8671 4.77422 20.6356 4.71954 21.364 4.90419C22.0924 5.08885 22.742 5.50302 23.2168 6.08546C23.6916 6.66791 23.9663 7.38769 24.0003 8.13836" stroke="black" stroke-width="2" stroke-linecap="round" stroke-linejoin="round"/>
</g>
<defs>
<clipPath id="clip0_296_161824">
<rect width="32" height="32" fill="white" transform="translate(0 0.799805)"/>
</clipPath>
</defs>
</svg>
