<svg width="18" height="19" viewBox="0 0 18 19" fill="none" xmlns="http://www.w3.org/2000/svg">
<path d="M17.472 12.846L17.4979 12.7594C18.1674 10.8431 18.1674 8.75648 17.4979 6.84019L17.472 6.75365C16.8404 5.01248 15.6889 3.5075 14.1736 2.44254C12.6582 1.37758 10.8521 0.804113 9 0.799805C7.14727 0.801627 5.34007 1.37412 3.82423 2.43941C2.30838 3.50471 1.15746 5.01109 0.528035 6.75365L0.502073 6.84019C-0.167358 8.75648 -0.167358 10.8431 0.502073 12.7594L0.528035 12.846C1.15746 14.5885 2.30838 16.0949 3.82423 17.1602C5.34007 18.2255 7.14727 18.798 9 18.7998C10.8527 18.798 12.6599 18.2255 14.1758 17.1602C15.6916 16.0949 16.8425 14.5885 17.472 12.846ZM6.79331 13.2613H11.2067C10.7632 14.6379 10.0081 15.8936 9 16.9306C7.99192 15.8936 7.23676 14.6379 6.79331 13.2613ZM6.42985 11.8767C6.16454 10.5048 6.16454 9.09479 6.42985 7.72288H11.5701C11.7019 8.40736 11.7685 9.10277 11.7692 9.7998C11.769 10.4969 11.7023 11.1923 11.5701 11.8767H6.42985ZM1.38475 9.7998C1.38622 9.09781 1.48228 8.39922 1.67032 7.72288H5.0193C4.78854 9.09788 4.78854 10.5017 5.0193 11.8767H1.67032C1.48228 11.2004 1.38622 10.5018 1.38475 9.7998ZM11.2067 6.33827H6.79331C7.23676 4.96169 7.99192 3.70603 9 2.66904C10.0081 3.70603 10.7632 4.96169 11.2067 6.33827ZM12.9807 7.72288H16.3297C16.7105 9.08131 16.7105 10.5183 16.3297 11.8767H12.9807C13.2115 10.5017 13.2115 9.09788 12.9807 7.72288ZM15.7845 6.33827H12.6692C12.2528 4.88036 11.5431 3.52283 10.5836 2.34884C11.6915 2.58806 12.7326 3.06992 13.6319 3.75975C14.5312 4.44958 15.2664 5.33022 15.7845 6.33827ZM7.41637 2.34884C6.4569 3.52283 5.74722 4.88036 5.33083 6.33827H2.2155C2.73365 5.33022 3.46883 4.44958 4.36814 3.75975C5.26745 3.06992 6.3085 2.58806 7.41637 2.34884ZM2.2155 13.2613H5.33083C5.74722 14.7192 6.4569 16.0768 7.41637 17.2508C6.30782 17.0133 5.26601 16.5321 4.36646 15.8421C3.46691 15.152 2.73217 14.2705 2.2155 13.2613ZM10.5836 17.2508C11.5431 16.0768 12.2528 14.7192 12.6692 13.2613H15.7845C15.2678 14.2705 14.5331 15.152 13.6335 15.8421C12.734 16.5321 11.6922 17.0133 10.5836 17.2508Z" fill="#4B348B"/>
</svg>
