<svg width="26" height="27" viewBox="0 0 26 27" fill="none" xmlns="http://www.w3.org/2000/svg">
<path d="M10.7387 23.8152C10.7947 23.9772 10.9005 24.1174 11.041 24.2156C11.1816 24.3139 11.3496 24.3652 11.521 24.3621C11.6924 24.3591 11.8585 24.3019 11.9954 24.1987C12.1324 24.0955 12.2332 23.9517 12.2834 23.7878L14.6752 16.0132C14.7142 15.8863 14.7836 15.7709 14.8774 15.6771C14.9712 15.5832 15.0866 15.5138 15.2135 15.4749L22.9881 13.0882C23.152 13.0379 23.2959 12.9371 23.399 12.8002C23.5022 12.6632 23.5594 12.4972 23.5624 12.3257C23.5655 12.1543 23.5142 11.9863 23.416 11.8458C23.3177 11.7053 23.1776 11.5994 23.0155 11.5434L5.14053 4.91339C4.99714 4.86462 4.84297 4.8569 4.69542 4.89111C4.54787 4.92531 4.41283 5.00007 4.30552 5.10696C4.19821 5.21385 4.12291 5.3486 4.08813 5.49601C4.05334 5.64342 4.06045 5.79762 4.10865 5.9412L10.7387 23.8152Z" stroke="#4B348B" stroke-width="2" stroke-linecap="round" stroke-linejoin="round"/>
</svg>
