<svg width="32" height="33" viewBox="0 0 32 33" fill="none" xmlns="http://www.w3.org/2000/svg">
<g clip-path="url(#clip0_296_161839)">
<path d="M2 15.7998H30" stroke="black" stroke-width="2" stroke-linecap="round" stroke-linejoin="round"/>
<path d="M28 23.7998V26.7998C28 27.065 27.8946 27.3194 27.7071 27.5069C27.5196 27.6944 27.2652 27.7998 27 27.7998H24C23.7348 27.7998 23.4804 27.6944 23.2929 27.5069C23.1054 27.3194 23 27.065 23 26.7998V23.7998" stroke="black" stroke-width="2" stroke-linecap="round" stroke-linejoin="round"/>
<path d="M9 23.7998V26.7998C9 27.065 8.89464 27.3194 8.70711 27.5069C8.51957 27.6944 8.26522 27.7998 8 27.7998H5C4.73478 27.7998 4.48043 27.6944 4.29289 27.5069C4.10536 27.3194 4 27.065 4 26.7998V23.7998" stroke="black" stroke-width="2" stroke-linecap="round" stroke-linejoin="round"/>
<path d="M8 19.7998H10" stroke="black" stroke-width="2" stroke-linecap="round" stroke-linejoin="round"/>
<path d="M22 19.7998H24" stroke="black" stroke-width="2" stroke-linecap="round" stroke-linejoin="round"/>
<path d="M28 15.7998L24.2638 7.39355C24.1852 7.21682 24.057 7.06667 23.8949 6.96128C23.7327 6.8559 23.5434 6.79981 23.35 6.7998H8.65C8.45659 6.79981 8.26733 6.8559 8.10514 6.96128C7.94296 7.06667 7.81482 7.21682 7.73625 7.39355L4 15.7998V23.7998H28V15.7998Z" stroke="black" stroke-width="2" stroke-linecap="round" stroke-linejoin="round"/>
</g>
<defs>
<clipPath id="clip0_296_161839">
<rect width="32" height="32" fill="white" transform="translate(0 0.799805)"/>
</clipPath>
</defs>
</svg>
