<svg width="18" height="19" viewBox="0 0 18 19" fill="none" xmlns="http://www.w3.org/2000/svg">
<path d="M17.25 0.5H5.25C5.05109 0.5 4.86032 0.579018 4.71967 0.71967C4.57902 0.860322 4.5 1.05109 4.5 1.25V5H0.75C0.551088 5 0.360322 5.07902 0.21967 5.21967C0.0790178 5.36032 0 5.55109 0 5.75V17.75C0 17.9489 0.0790178 18.1397 0.21967 18.2803C0.360322 18.421 0.551088 18.5 0.75 18.5H12.75C12.9489 18.5 13.1397 18.421 13.2803 18.2803C13.421 18.1397 13.5 17.9489 13.5 17.75V14H17.25C17.4489 14 17.6397 13.921 17.7803 13.7803C17.921 13.6397 18 13.4489 18 13.25V1.25C18 1.05109 17.921 0.860322 17.7803 0.71967C17.6397 0.579018 17.4489 0.5 17.25 0.5ZM12 17H1.5V6.5H12V17ZM16.5 12.5H13.5V5.75C13.5 5.55109 13.421 5.36032 13.2803 5.21967C13.1397 5.07902 12.9489 5 12.75 5H6V2H16.5V12.5Z" fill="#746779"/>
</svg>
