<svg width="6" height="12" viewBox="0 0 6 12" fill="none" xmlns="http://www.w3.org/2000/svg">
<path d="M5.85403 6.15383L0.854028 11.1538C0.807573 11.2003 0.752423 11.2371 0.691726 11.2623C0.63103 11.2874 0.565975 11.3004 0.500278 11.3004C0.434581 11.3004 0.369526 11.2874 0.30883 11.2623C0.248133 11.2371 0.192983 11.2003 0.146528 11.1538C0.100073 11.1074 0.0632225 11.0522 0.0380812 10.9915C0.0129398 10.9308 0 10.8658 0 10.8001C0 10.7344 0.0129398 10.6693 0.0380812 10.6086C0.0632225 10.5479 0.100073 10.4928 0.146528 10.4463L4.7934 5.80008L0.146528 1.15383C0.0527074 1.06001 -9.88558e-10 0.932765 0 0.800083C9.88559e-10 0.667401 0.0527074 0.540153 0.146528 0.446333C0.240348 0.352512 0.367596 0.299805 0.500278 0.299805C0.63296 0.299805 0.760208 0.352512 0.854028 0.446333L5.85403 5.44633C5.90052 5.49277 5.9374 5.54791 5.96256 5.60861C5.98772 5.66931 6.00067 5.73438 6.00067 5.80008C6.00067 5.86579 5.98772 5.93085 5.96256 5.99155C5.9374 6.05225 5.90052 6.1074 5.85403 6.15383Z" fill="#006987"/>
</svg>
