<svg width="41" height="40" viewBox="0 0 41 40" fill="none" xmlns="http://www.w3.org/2000/svg">
<rect x="0.5" width="40" height="40" rx="20" fill="#F3F1F3"/>
<path d="M17.034 20.07C17.1569 20.0175 17.2892 19.9903 17.4228 19.9898C17.5565 19.9893 17.6889 20.0156 17.8122 20.0672C17.9355 20.1188 18.0473 20.1945 18.1408 20.29C18.2344 20.3855 18.3078 20.4988 18.3568 20.6231C18.4058 20.7475 18.4294 20.8804 18.4262 21.014C18.4229 21.1477 18.3929 21.2793 18.3379 21.4011C18.2829 21.523 18.2041 21.6325 18.106 21.7234C18.008 21.8142 17.8927 21.8845 17.767 21.93C17.0985 22.1934 16.5248 22.6519 16.1205 23.2458C15.7162 23.8397 15.5 24.5415 15.5 25.26V27C15.5 27.2652 15.6054 27.5196 15.7929 27.7071C15.9804 27.8946 16.2348 28 16.5 28H24.5C24.7652 28 25.0196 27.8946 25.2071 27.7071C25.3946 27.5196 25.5 27.2652 25.5 27V25.353C25.5001 24.6115 25.2749 23.8874 24.8541 23.2768C24.4334 22.6662 23.837 22.1979 23.144 21.934C23.0175 21.8901 22.9012 21.8213 22.8018 21.7316C22.7024 21.6419 22.6221 21.5332 22.5655 21.4119C22.509 21.2905 22.4773 21.1591 22.4725 21.0253C22.4677 20.8916 22.4897 20.7582 22.5374 20.6331C22.5851 20.508 22.6574 20.3938 22.75 20.2972C22.8427 20.2006 22.9538 20.1235 23.0767 20.0706C23.1997 20.0177 23.332 19.9901 23.4659 19.9893C23.5998 19.9885 23.7324 20.0146 23.856 20.066C24.9276 20.4742 25.8499 21.1983 26.5006 22.1425C27.1514 23.0867 27.4999 24.2063 27.5 25.353V27C27.5 27.7956 27.1839 28.5587 26.6213 29.1213C26.0587 29.6839 25.2956 30 24.5 30H16.5C15.7044 30 14.9413 29.6839 14.3787 29.1213C13.8161 28.5587 13.5 27.7956 13.5 27V25.26C13.5001 24.1402 13.8373 23.0463 14.4676 22.1206C15.0978 21.195 15.9921 20.4805 17.034 20.07ZM20.5 10C21.5609 10 22.5783 10.4214 23.3284 11.1716C24.0786 11.9217 24.5 12.9391 24.5 14V16C24.5 17.0609 24.0786 18.0783 23.3284 18.8284C22.5783 19.5786 21.5609 20 20.5 20C19.4391 20 18.4217 19.5786 17.6716 18.8284C16.9214 18.0783 16.5 17.0609 16.5 16V14C16.5 12.9391 16.9214 11.9217 17.6716 11.1716C18.4217 10.4214 19.4391 10 20.5 10V10ZM20.5 12C19.9696 12 19.4609 12.2107 19.0858 12.5858C18.7107 12.9609 18.5 13.4696 18.5 14V16C18.5 16.5304 18.7107 17.0391 19.0858 17.4142C19.4609 17.7893 19.9696 18 20.5 18C21.0304 18 21.5391 17.7893 21.9142 17.4142C22.2893 17.0391 22.5 16.5304 22.5 16V14C22.5 13.4696 22.2893 12.9609 21.9142 12.5858C21.5391 12.2107 21.0304 12 20.5 12Z" fill="#908395"/>
</svg>
