<svg width="19" height="20" viewBox="0 0 19 20" fill="none" xmlns="http://www.w3.org/2000/svg">
<path d="M18.5306 3.96899L15.5306 0.968988C15.461 0.899256 15.3783 0.843937 15.2872 0.806193C15.1962 0.76845 15.0986 0.749023 15 0.749023C14.9014 0.749023 14.8038 0.76845 14.7128 0.806193C14.6217 0.843937 14.539 0.899256 14.4694 0.968988L5.46937 9.96899C5.39975 10.0387 5.34454 10.1214 5.3069 10.2125C5.26926 10.3035 5.24992 10.4011 5.25 10.4996V13.4996C5.25 13.6985 5.32902 13.8893 5.46967 14.0299C5.61032 14.1706 5.80109 14.2496 6 14.2496H9C9.09852 14.2497 9.19609 14.2304 9.28714 14.1927C9.37818 14.1551 9.46092 14.0999 9.53063 14.0302L18.5306 5.03024C18.6004 4.96058 18.6557 4.87787 18.6934 4.78682C18.7312 4.69577 18.7506 4.59818 18.7506 4.49961C18.7506 4.40105 18.7312 4.30346 18.6934 4.21241C18.6557 4.12136 18.6004 4.03864 18.5306 3.96899ZM8.68969 12.7496H6.75V10.8099L12.75 4.80993L14.6897 6.74961L8.68969 12.7496ZM15.75 5.6893L13.8103 3.74961L15 2.55993L16.9397 4.49961L15.75 5.6893ZM18 9.74961V17.9996C18 18.3974 17.842 18.779 17.5607 19.0603C17.2794 19.3416 16.8978 19.4996 16.5 19.4996H1.5C1.10218 19.4996 0.720644 19.3416 0.43934 19.0603C0.158035 18.779 0 18.3974 0 17.9996V2.99961C0 2.60179 0.158035 2.22026 0.43934 1.93895C0.720644 1.65765 1.10218 1.49961 1.5 1.49961H9.75C9.94891 1.49961 10.1397 1.57863 10.2803 1.71928C10.421 1.85994 10.5 2.0507 10.5 2.24961C10.5 2.44853 10.421 2.63929 10.2803 2.77994C10.1397 2.9206 9.94891 2.99961 9.75 2.99961H1.5V17.9996H16.5V9.74961C16.5 9.5507 16.579 9.35994 16.7197 9.21928C16.8603 9.07863 17.0511 8.99961 17.25 8.99961C17.4489 8.99961 17.6397 9.07863 17.7803 9.21928C17.921 9.35994 18 9.5507 18 9.74961Z" fill="#746779"/>
</svg>
