<svg width="22" height="18" viewBox="0 0 22 18" fill="none" xmlns="http://www.w3.org/2000/svg">
<path d="M21.2806 8.46997L13.7806 0.969965C13.6757 0.865014 13.5421 0.793507 13.3967 0.764489C13.2512 0.735472 13.1004 0.750246 12.9633 0.806945C12.8262 0.863643 12.709 0.959718 12.6265 1.08302C12.5441 1.20632 12.5 1.35131 12.4999 1.49965V5.28246C10.0681 5.49059 7.38213 6.68122 5.17244 8.55528C2.51182 10.8128 0.855255 13.7218 0.507443 16.7462C0.480263 16.9813 0.527938 17.2191 0.643684 17.4255C0.75943 17.632 0.937349 17.7967 1.15212 17.8962C1.36689 17.9957 1.60757 18.0249 1.83991 17.9797C2.07225 17.9345 2.28441 17.8171 2.44619 17.6443C3.47744 16.5465 7.14682 13.075 12.4999 12.7693V16.4997C12.5 16.648 12.5441 16.793 12.6265 16.9163C12.709 17.0396 12.8262 17.1357 12.9633 17.1924C13.1004 17.2491 13.2512 17.2638 13.3967 17.2348C13.5421 17.2058 13.6757 17.1343 13.7806 17.0293L21.2806 9.52934C21.4208 9.38874 21.4996 9.19825 21.4996 8.99965C21.4996 8.80105 21.4208 8.61057 21.2806 8.46997ZM13.9999 14.6893V11.9997C13.9999 11.8007 13.9209 11.61 13.7803 11.4693C13.6396 11.3287 13.4489 11.2497 13.2499 11.2497C10.6174 11.2497 8.05338 11.9368 5.629 13.2934C4.39427 13.9874 3.24383 14.8216 2.20057 15.7797C2.74432 13.5447 4.11494 11.4193 6.14276 9.69903C8.31963 7.85309 10.9765 6.74965 13.2499 6.74965C13.4489 6.74965 13.6396 6.67063 13.7803 6.52998C13.9209 6.38933 13.9999 6.19857 13.9999 5.99965V3.3109L19.6896 8.99965L13.9999 14.6893Z" fill="#746779"/>
</svg>
