<svg width="24" height="25" viewBox="0 0 24 25" fill="none" xmlns="http://www.w3.org/2000/svg">
<path d="M23.0086 11.2232L18.7805 14.9132L20.0471 20.4069C20.1141 20.6941 20.0949 20.9947 19.9921 21.2711C19.8892 21.5475 19.7071 21.7874 19.4686 21.9609C19.2301 22.1344 18.9458 22.2337 18.6511 22.2464C18.3565 22.2592 18.0646 22.1848 17.8121 22.0326L13.0205 19.1263L8.23924 22.0326C7.98665 22.1848 7.69479 22.2592 7.40015 22.2464C7.10551 22.2337 6.82117 22.1344 6.58267 21.9609C6.34417 21.7874 6.1621 21.5475 6.05922 21.2711C5.95634 20.9947 5.93722 20.6941 6.00424 20.4069L7.26893 14.9188L3.03986 11.2232C2.81619 11.0303 2.65444 10.7756 2.57492 10.4911C2.49539 10.2067 2.50163 9.90504 2.59284 9.6241C2.68405 9.34315 2.85618 9.09539 3.08764 8.91188C3.3191 8.72838 3.59959 8.61729 3.89393 8.59256L9.4683 8.10974L11.6442 2.91974C11.7579 2.64742 11.9495 2.4148 12.1951 2.25117C12.4407 2.08755 12.7292 2.00024 13.0242 2.00024C13.3193 2.00024 13.6078 2.08755 13.8534 2.25117C14.0989 2.4148 14.2906 2.64742 14.4042 2.91974L16.5867 8.10974L22.1592 8.59256C22.4536 8.61729 22.7341 8.72838 22.9655 8.91188C23.197 9.09539 23.3691 9.34315 23.4603 9.6241C23.5515 9.90504 23.5578 10.2067 23.4782 10.4911C23.3987 10.7756 23.237 11.0303 23.0133 11.2232H23.0086Z" fill="#6E3A82"/>
</svg>
