<svg width="24" height="25" viewBox="0 0 24 25" fill="none" xmlns="http://www.w3.org/2000/svg">
<path d="M22.4248 9.62093C22.334 9.34098 22.1628 9.09394 21.9326 8.91057C21.7024 8.7272 21.4233 8.6156 21.1301 8.58968L15.5623 8.10968L13.3798 2.91968C13.2662 2.64735 13.0745 2.41473 12.829 2.25111C12.5834 2.08749 12.2949 2.00018 11.9998 2.00018C11.7047 2.00018 11.4163 2.08749 11.1707 2.25111C10.9251 2.41473 10.7335 2.64735 10.6198 2.91968L8.44389 8.10968L2.86951 8.5925C2.57517 8.61723 2.29468 8.72832 2.06322 8.91182C1.83176 9.09533 1.65964 9.34309 1.56842 9.62404C1.47721 9.90498 1.47098 10.2066 1.5505 10.4911C1.63003 10.7755 1.79177 11.0302 2.01545 11.2231L6.24451 14.9187L4.97701 20.4069C4.90999 20.6941 4.92911 20.9946 5.03199 21.271C5.13488 21.5474 5.31695 21.7874 5.55545 21.9608C5.79394 22.1343 6.07829 22.2336 6.37293 22.2464C6.66756 22.2591 6.95942 22.1847 7.21201 22.0325L11.9933 19.1262L16.7848 22.0325C17.0374 22.1847 17.3293 22.2591 17.6239 22.2464C17.9186 22.2336 18.2029 22.1343 18.4414 21.9608C18.6799 21.7874 18.862 21.5474 18.9648 21.271C19.0677 20.9946 19.0868 20.6941 19.0198 20.4069L17.7533 14.9131L21.9814 11.2231C22.205 11.0295 22.3665 10.7742 22.4454 10.4891C22.5243 10.204 22.5171 9.90196 22.4248 9.62093ZM20.9979 10.0897L16.7698 13.7797C16.564 13.9587 16.411 14.1904 16.327 14.4499C16.2431 14.7094 16.2316 14.9869 16.2936 15.2525L17.5639 20.75L12.7761 17.8437C12.5425 17.7015 12.2743 17.6262 12.0008 17.6262C11.7273 17.6262 11.459 17.7015 11.2255 17.8437L6.4442 20.75L7.70608 15.2562C7.76809 14.9906 7.75652 14.7132 7.6726 14.4537C7.58869 14.1942 7.43561 13.9624 7.22983 13.7834L2.99983 10.0953C2.99948 10.0925 2.99948 10.0897 2.99983 10.0869L8.57233 9.605C8.84439 9.58102 9.10474 9.48321 9.3253 9.32213C9.54586 9.16104 9.71826 8.9428 9.82389 8.69093L11.9998 3.5075L14.1748 8.69093C14.2805 8.9428 14.4529 9.16104 14.6734 9.32213C14.894 9.48321 15.1543 9.58102 15.4264 9.605L20.9998 10.0869C20.9998 10.0869 20.9998 10.0925 20.9998 10.0934L20.9979 10.0897Z" fill="#3A343C"/>
</svg>
