<svg width="10" height="18" viewBox="0 0 10 18" fill="none" xmlns="http://www.w3.org/2000/svg">
<path d="M9.28024 15.9698C9.34992 16.0395 9.4052 16.1222 9.44291 16.2132C9.48062 16.3043 9.50003 16.4019 9.50003 16.5004C9.50003 16.599 9.48062 16.6965 9.44291 16.7876C9.4052 16.8786 9.34992 16.9614 9.28024 17.031C9.21056 17.1007 9.12783 17.156 9.03679 17.1937C8.94574 17.2314 8.84816 17.2508 8.74961 17.2508C8.65107 17.2508 8.55349 17.2314 8.46244 17.1937C8.3714 17.156 8.28867 17.1007 8.21899 17.031L0.718988 9.53104C0.649256 9.46139 0.593937 9.37867 0.556194 9.28762C0.518451 9.19657 0.499023 9.09898 0.499023 9.00042C0.499023 8.90186 0.518451 8.80426 0.556194 8.71321C0.593937 8.62216 0.649256 8.53945 0.718988 8.46979L8.21899 0.969792C8.35972 0.829062 8.55059 0.75 8.74961 0.75C8.94864 0.75 9.13951 0.829062 9.28024 0.969792C9.42097 1.11052 9.50003 1.30139 9.50003 1.50042C9.50003 1.69944 9.42097 1.89031 9.28024 2.03104L2.30993 9.00042L9.28024 15.9698Z" fill="#908395"/>
</svg>
