<svg width="10" height="18" viewBox="0 0 10 18" fill="none" xmlns="http://www.w3.org/2000/svg">
<path d="M9.28007 9.53104L1.78007 17.031C1.71038 17.1007 1.62766 17.156 1.53661 17.1937C1.44557 17.2314 1.34799 17.2508 1.24944 17.2508C1.15089 17.2508 1.05331 17.2314 0.962268 17.1937C0.871223 17.156 0.788498 17.1007 0.718815 17.031C0.649132 16.9614 0.593857 16.8786 0.556145 16.7876C0.518433 16.6965 0.499023 16.599 0.499023 16.5004C0.499023 16.4019 0.518433 16.3043 0.556145 16.2132C0.593857 16.1222 0.649132 16.0395 0.718815 15.9698L7.68913 9.00042L0.718815 2.03104C0.578085 1.89031 0.499023 1.69944 0.499023 1.50042C0.499023 1.30139 0.578085 1.11052 0.718815 0.969792C0.859546 0.829062 1.05042 0.75 1.24944 0.75C1.44846 0.75 1.63934 0.829062 1.78007 0.969792L9.28007 8.46979C9.3498 8.53945 9.40512 8.62216 9.44286 8.71321C9.4806 8.80426 9.50003 8.90186 9.50003 9.00042C9.50003 9.09898 9.4806 9.19657 9.44286 9.28762C9.40512 9.37867 9.3498 9.46139 9.28007 9.53104Z" fill="#908395"/>
</svg>
