<svg width="148" height="44" viewBox="0 0 148 44" fill="none" xmlns="http://www.w3.org/2000/svg">
<path d="M146.515 43.1645C149.061 35.2016 148.31 26.6579 144.407 19.1706C140.504 11.6833 133.722 5.77904 125.362 2.58917C117.002 -0.600695 107.651 -0.85179 99.1007 1.884C90.5509 4.61979 83.4036 10.15 79.0284 17.415C71.4773 15.6275 63.5018 16.0825 56.251 18.7147C49.0003 21.3468 42.8488 26.0201 38.683 32.0611C35.3792 30.4128 31.7464 29.3919 28.0021 29.0595C24.2578 28.7272 20.4788 29.0901 16.8911 30.1267C13.3034 31.1632 9.98053 32.8521 7.1216 35.0923C4.26266 37.3325 1.92617 40.078 0.251953 43.1645H146.515Z" fill="#006987"/>
</svg>
