<svg width="106" height="32" viewBox="0 0 106 32" fill="none" xmlns="http://www.w3.org/2000/svg">
<path d="M1.01508 31.3221C-0.756631 25.6607 -0.195496 19.6002 2.59181 14.2931C5.37911 8.98613 10.198 4.80286 16.1321 2.53899C22.0663 0.27513 28.7015 0.0886036 34.776 2.01487C40.8505 3.94113 45.9403 7.84583 49.0775 12.9863C54.4549 11.711 60.1356 12.0341 65.2994 13.9092C70.4632 15.7843 74.8432 19.1142 77.8072 23.4184C80.1594 22.2439 82.7462 21.5163 85.4124 21.2791C88.0787 21.0419 90.7696 21.3 93.3245 22.0379C95.8794 22.7758 98.2458 23.9784 100.282 25.5736C102.317 27.1689 103.981 29.124 105.173 31.3221H1.01508Z" fill="#006987"/>
</svg>
