<svg width="24" height="27" viewBox="0 0 24 27" fill="none" xmlns="http://www.w3.org/2000/svg">
<path d="M23 4.7998H18V3.7998C18 3.00416 17.6839 2.24109 17.1213 1.67848C16.5587 1.11588 15.7956 0.799805 15 0.799805H9C8.20435 0.799805 7.44129 1.11588 6.87868 1.67848C6.31607 2.24109 6 3.00416 6 3.7998V4.7998H1C0.734784 4.7998 0.48043 4.90516 0.292893 5.0927C0.105357 5.28023 0 5.53459 0 5.7998C0 6.06502 0.105357 6.31938 0.292893 6.50691C0.48043 6.69445 0.734784 6.7998 1 6.7998H2V24.7998C2 25.3302 2.21071 25.8389 2.58579 26.214C2.96086 26.5891 3.46957 26.7998 4 26.7998H20C20.5304 26.7998 21.0391 26.5891 21.4142 26.214C21.7893 25.8389 22 25.3302 22 24.7998V6.7998H23C23.2652 6.7998 23.5196 6.69445 23.7071 6.50691C23.8946 6.31938 24 6.06502 24 5.7998C24 5.53459 23.8946 5.28023 23.7071 5.0927C23.5196 4.90516 23.2652 4.7998 23 4.7998ZM8 3.7998C8 3.53459 8.10536 3.28023 8.29289 3.0927C8.48043 2.90516 8.73478 2.7998 9 2.7998H15C15.2652 2.7998 15.5196 2.90516 15.7071 3.0927C15.8946 3.28023 16 3.53459 16 3.7998V4.7998H8V3.7998ZM20 24.7998H4V6.7998H20V24.7998ZM10 11.7998V19.7998C10 20.065 9.89464 20.3194 9.70711 20.5069C9.51957 20.6944 9.26522 20.7998 9 20.7998C8.73478 20.7998 8.48043 20.6944 8.29289 20.5069C8.10536 20.3194 8 20.065 8 19.7998V11.7998C8 11.5346 8.10536 11.2802 8.29289 11.0927C8.48043 10.9052 8.73478 10.7998 9 10.7998C9.26522 10.7998 9.51957 10.9052 9.70711 11.0927C9.89464 11.2802 10 11.5346 10 11.7998ZM16 11.7998V19.7998C16 20.065 15.8946 20.3194 15.7071 20.5069C15.5196 20.6944 15.2652 20.7998 15 20.7998C14.7348 20.7998 14.4804 20.6944 14.2929 20.5069C14.1054 20.3194 14 20.065 14 19.7998V11.7998C14 11.5346 14.1054 11.2802 14.2929 11.0927C14.4804 10.9052 14.7348 10.7998 15 10.7998C15.2652 10.7998 15.5196 10.9052 15.7071 11.0927C15.8946 11.2802 16 11.5346 16 11.7998Z" fill="#3A343C"/>
</svg>
