<svg width="18" height="20" viewBox="0 0 18 20" fill="none" xmlns="http://www.w3.org/2000/svg">
<path d="M17.0306 5.71938L11.7806 0.469375C11.7109 0.399749 11.6282 0.344539 11.5371 0.306898C11.4461 0.269257 11.3485 0.249923 11.25 0.25H2.25C1.85218 0.25 1.47064 0.408035 1.18934 0.68934C0.908035 0.970645 0.75 1.35218 0.75 1.75V18.25C0.75 18.6478 0.908035 19.0294 1.18934 19.3107C1.47064 19.592 1.85218 19.75 2.25 19.75H15.75C16.1478 19.75 16.5294 19.592 16.8107 19.3107C17.092 19.0294 17.25 18.6478 17.25 18.25V6.25C17.2501 6.15148 17.2307 6.05391 17.1931 5.96286C17.1555 5.87182 17.1003 5.78908 17.0306 5.71938ZM12 2.81031L14.6897 5.5H12V2.81031ZM15.75 18.25H2.25V1.75H10.5V6.25C10.5 6.44891 10.579 6.63968 10.7197 6.78033C10.8603 6.92098 11.0511 7 11.25 7H15.75V18.25ZM11.7806 10.9694C11.8503 11.0391 11.9056 11.1218 11.9433 11.2128C11.981 11.3039 12.0004 11.4015 12.0004 11.5C12.0004 11.5985 11.981 11.6961 11.9433 11.7872C11.9056 11.8782 11.8503 11.9609 11.7806 12.0306C11.7109 12.1003 11.6282 12.1556 11.5372 12.1933C11.4461 12.231 11.3485 12.2504 11.25 12.2504C11.1515 12.2504 11.0539 12.231 10.9628 12.1933C10.8718 12.1556 10.7891 12.1003 10.7194 12.0306L9.75 11.0603V15.25C9.75 15.4489 9.67098 15.6397 9.53033 15.7803C9.38968 15.921 9.19891 16 9 16C8.80109 16 8.61032 15.921 8.46967 15.7803C8.32902 15.6397 8.25 15.4489 8.25 15.25V11.0603L7.28063 12.0306C7.21094 12.1003 7.12822 12.1556 7.03717 12.1933C6.94613 12.231 6.84855 12.2504 6.75 12.2504C6.65145 12.2504 6.55387 12.231 6.46283 12.1933C6.37178 12.1556 6.28906 12.1003 6.21937 12.0306C6.14969 11.9609 6.09442 11.8782 6.0567 11.7872C6.01899 11.6961 5.99958 11.5985 5.99958 11.5C5.99958 11.4015 6.01899 11.3039 6.0567 11.2128C6.09442 11.1218 6.14969 11.0391 6.21937 10.9694L8.46937 8.71937C8.53903 8.64964 8.62175 8.59432 8.71279 8.55658C8.80384 8.51884 8.90144 8.49941 9 8.49941C9.09856 8.49941 9.19616 8.51884 9.2872 8.55658C9.37825 8.59432 9.46097 8.64964 9.53063 8.71937L11.7806 10.9694Z" fill="#006987"/>
</svg>
