<svg width="14" height="15" viewBox="0 0 14 15" fill="none" xmlns="http://www.w3.org/2000/svg">
<path d="M6.96953 0.375977C5.61968 0.375977 4.30013 0.776256 3.17777 1.5262C2.0554 2.27614 1.18062 3.34206 0.664056 4.58916C0.147488 5.83627 0.0123307 7.20855 0.275675 8.53247C0.539019 9.85639 1.18904 11.0725 2.14353 12.027C3.09802 12.9815 4.31412 13.6315 5.63804 13.8948C6.96196 14.1582 8.33424 14.023 9.58135 13.5065C10.8285 12.9899 11.8944 12.1151 12.6443 10.9927C13.3943 9.87037 13.7945 8.55083 13.7945 7.20097C13.7926 5.39146 13.0729 3.6566 11.7934 2.37708C10.5139 1.09756 8.77905 0.377887 6.96953 0.375977ZM6.96953 1.42598C8.08841 1.42479 9.18326 1.75051 10.1195 2.3631V3.65723L8.66463 5.34641L6.59941 5.62598L6.57906 5.61154L5.28822 4.7676C5.17377 4.68698 5.04436 4.63006 4.9076 4.60019C4.77083 4.57032 4.62948 4.5681 4.49184 4.59366C4.35421 4.61922 4.22307 4.67204 4.10615 4.74902C3.98922 4.826 3.88888 4.92558 3.811 5.04191L2.43681 7.09597C2.32234 7.26715 2.26072 7.46821 2.25963 7.67413L2.24453 10.0517L2.02994 10.1928C1.49944 9.31695 1.21136 8.31577 1.19524 7.29189C1.17912 6.26801 1.43553 5.25826 1.9382 4.36612C2.44087 3.47399 3.17171 2.73155 4.05582 2.2149C4.93994 1.69825 5.94553 1.42597 6.96953 1.42598ZM2.65731 11.0381L2.82269 10.9298C2.9671 10.8345 3.08574 10.7051 3.16805 10.5529C3.25037 10.4008 3.29382 10.2306 3.29453 10.0576L3.30831 7.68004L4.68381 5.62598C4.69055 5.63116 4.69756 5.63598 4.70481 5.64041L5.99566 6.48501C6.21199 6.63768 6.47816 6.70264 6.7405 6.66679L8.80703 6.38657C9.06187 6.35256 9.29537 6.22623 9.46328 6.03154L10.9182 4.34104C11.0809 4.1504 11.17 3.90786 11.1695 3.65723V3.24182C11.8796 3.99309 12.3747 4.92144 12.603 5.92968C12.8312 6.93793 12.7842 7.98899 12.4669 8.97285L11.4078 8.00422C11.2605 7.86907 11.0777 7.77874 10.8809 7.74387C10.6841 7.70899 10.4814 7.73102 10.2967 7.80735L8.29778 8.63751C8.13064 8.70766 7.98438 8.81969 7.87312 8.9628C7.76185 9.1059 7.68933 9.27526 7.66253 9.45454L7.50569 10.517C7.46799 10.7727 7.52595 11.0334 7.66847 11.249C7.81099 11.4647 8.02805 11.6202 8.27809 11.6858L9.68641 12.0572L9.84128 12.2128C8.69127 12.8726 7.34903 13.116 6.04055 12.9021C4.73207 12.6881 3.53727 12.0298 2.65731 11.0381ZM10.7102 11.5978L10.428 11.315C10.2963 11.1829 10.1319 11.0882 9.95153 11.0407L8.54453 10.6693L8.70138 9.60679L10.6997 8.77597L12.0227 9.98872C11.6855 10.5996 11.2408 11.1447 10.7102 11.5978Z" fill="#3A343C"/>
</svg>
